<?xml version="1.0" encoding="UTF-8"?><svg id="Layer_2" xmlns="http://www.w3.org/2000/svg" viewBox="0 0 439.52 443.88"><defs><style>.cls-1{fill:none;stroke:#057b2f;stroke-miterlimit:10;stroke-width:16px;}.cls-2{fill:#057b2f;}</style></defs><g id="Layer_1-2"><path class="cls-2" d="m251.27,211.55h-55.36l-9.11,28.08h-44.85l62.84-165.2h38.78l62.84,165.2h-45.79l-9.34-28.08Zm-10.04-31.15l-17.75-53.34-17.29,53.34h35.04Z"/><rect class="cls-1" x="8" y="8" width="423.52" height="427.88" rx="29.66" ry="29.66"/><path class="cls-2" d="m251.03,348.88h-8.92v17.35h8.92c6.62,0,10.75-2.91,10.75-8.92s-3.74-8.43-10.75-8.43Z"/><path class="cls-2" d="m8,300.21v111.24c0,13.49,10.94,24.43,24.42,24.43h374.67c13.49,0,24.43-10.94,24.43-24.43v-111.24H8Zm73.78,101.78h-47.59v-67.85h47.01v13.86h-29.55v12.7h27.25v13.86h-27.25v13.57h30.13v13.86Zm69.56,0h-15.16l-26.77-39.26c.1,2.71.1,5.53.1,8.34v30.92h-16.21v-67.85h15.16l26.77,39.26c-.1-2.91-.1-5.82-.1-8.82v-30.44h16.21v67.85Zm61.79,0h-47.59v-67.85h47.01v13.86h-29.55v12.7h27.25v13.86h-27.25v13.57h30.13v13.86Zm49.8,0l-8.06-16.48c-1.44-3-3.55-5.14-7.87-5.14h-4.89v21.61h-17.46v-67.85h27.06c17.27,0,27.54,7.66,27.54,23.07,0,9.4-4.7,15.8-11.51,19.48,2.11,1.26,3.55,3.49,4.8,5.72l9.88,19.58h-19.48Zm84.43-2.23c-6.81,2.42-15.64,4.17-25.14,4.17-22.26,0-34.73-13.18-34.73-35.47s11.99-36.25,37.61-36.25c7.2,0,12.76.97,19.19,3.2v15.31c-6.04-2.42-11.61-3.68-18.9-3.68-14.01,0-20.24,8.14-20.24,21.03s5.76,21.13,18.81,21.13c2.49,0,4.99-.29,7.48-.78v-11.15h-11.32v-13.67h27.25v36.15Zm45.96-21.42v23.65h-17.46v-23.26l-24.66-44.59h21.11l7.2,15.7c1.82,3.97,3.93,8.82,5.37,12.6,1.44-3.78,3.65-8.72,5.47-12.7l7.1-15.61h20.63l-24.75,44.2Z"/></g></svg>