<?xml version="1.0" encoding="UTF-8"?><svg id="Layer_2" xmlns="http://www.w3.org/2000/svg" viewBox="0 0 115.37 150.75"><defs><style>.cls-1{fill:#fff;}.cls-2{fill:#101c2f;}.cls-3{fill:#00272e;}.cls-4{fill:#87be4b;}.cls-5{fill:#3b9d81;}.cls-6{fill:#16162b;}.cls-7{fill:#fab903;}</style></defs><g id="Layer_1-2"><rect class="cls-6" y="149.6" width="115.37" height="1.15"/><path class="cls-6" d="m73.59,116.65c-.99-8.73-7.04-10-10.73-12.27-3.01-1.84-8.57-3.3-13.42,3.48-2.6,3.64-7.39,5.87-7.39,9.37s-8.85,1.66-8.85,1.66c5.74,9.33,16.13,14.08,23.55,14.08s1.97,1.73,11.19,1.73,13.08-16.86,13.08-16.86c-4.67,3.29-6.84,4.12-7.44-1.21Z"/><path class="cls-6" d="m80.88,117.65c-2.2,1.55-3.9,2.58-5.02,2.58-.75,0-1.67-.41-2.03-3.62-.83-7.3-5.19-9.52-8.7-11.29-.77-.39-1.5-.76-2.15-1.16-1.17-.72-3.04-1.57-5.28-1.57-3.19,0-6.04,1.72-8.47,5.13-.96,1.35-2.24,2.5-3.47,3.62-2.04,1.85-3.97,3.6-3.97,5.89,0,.68-.38,1.17-1.17,1.48-.68.27-1.64.41-2.85.41-2.21,0-4.5-.47-4.53-.48-.1-.02-.2.02-.25.1-.06.08-.06.19,0,.27,5.73,9.32,16.29,14.2,23.76,14.2,3.44,0,4.04.37,4.68.76.78.48,1.58.97,6.52.97,9.32,0,13.17-16.35,13.32-17.05.02-.1-.02-.2-.1-.26-.08-.06-.2-.06-.28,0Zm-12.94,16.81c-4.79,0-5.54-.46-6.26-.9-.7-.43-1.35-.83-4.93-.83-7.2,0-17.34-4.63-23.04-13.49.83.14,2.47.38,4.07.38,1.28,0,2.3-.15,3.04-.45.98-.4,1.48-1.05,1.48-1.94,0-2.07,1.85-3.75,3.81-5.52,1.25-1.13,2.54-2.31,3.54-3.7,2.33-3.26,5.05-4.92,8.07-4.92,2.12,0,3.9.82,5.02,1.5.67.41,1.4.78,2.18,1.18,3.58,1.81,7.64,3.87,8.44,10.91.32,2.8,1.1,4.06,2.52,4.06,1.16,0,2.7-.87,4.76-2.29-.82,3.06-4.77,16.02-12.68,16.02Z"/><path class="cls-1" d="m29.2,107.1c-6.19-7.04-12.21-15.16-12.21-15.16l-5.87,2.46s5.2,8.97,9.63,17.43c4.44,8.46,4.32,5.75,8.59,12.81,4.27,7.07,11.65,22.26,11.65,22.26l10.93-9.36s-8.43-11.06-13.57-17.53c-5.13-6.47-2.97-5.88-9.16-12.91Z"/><path class="cls-6" d="m52.12,137.4c-.06-.08-4.12-5.41-8.31-10.81-.34-.45-.69-.9-1.04-1.34-.18-.23-.35-.46-.53-.69-1.31-1.68-2.58-3.3-3.69-4.7-2.3-2.9-3.11-4.35-3.9-5.75-.95-1.69-1.84-3.28-5.26-7.17-6.11-6.95-12.14-15.06-12.2-15.14-.07-.09-.19-.13-.29-.08l-5.87,2.46c-.07.03-.12.08-.14.15-.03.07-.02.14.02.2.05.09,5.24,9.06,9.63,17.42,2.48,4.74,3.53,5.98,4.75,7.41.92,1.08,1.96,2.31,3.84,5.42,3.6,5.95,9.48,17.82,11.17,21.27.1.21.19.39.27.53h0c.12.27.19.42.2.43.02.04.06.08.09.1.03.02.05.03.08.04h.06s.11-.02.16-.06l10.92-9.36c.1-.08.12-.23.04-.33Zm-11.04,9.11c-.07-.15-.17-.34-.29-.59-.08-.16-.17-.34-.27-.54-.08-.16-.17-.34-.26-.53-2.14-4.33-7.39-14.84-10.71-20.33-1.9-3.14-2.95-4.39-3.88-5.48-1.2-1.41-2.24-2.63-4.7-7.32-3.98-7.6-8.63-15.7-9.49-17.19l5.43-2.28c.87,1.16,6.45,8.58,12.11,15.02,3.38,3.84,4.26,5.41,5.2,7.08.79,1.42,1.62,2.89,3.94,5.82,1.16,1.45,2.48,3.15,3.84,4.9.07.08.14.18.21.27.08.09.15.18.22.28,4.08,5.23,8.34,10.81,9.16,11.89l-10.51,9Z"/><path class="cls-6" d="m28.61,112.05c-.13.02-.22.15-.2.28,0,.02.34,2.12-.25,3.3-.06.12-.01.27.11.33.04.02.07.03.11.03.09,0,.18-.05.22-.14.66-1.33.31-3.51.3-3.6-.02-.13-.15-.23-.29-.2Z"/><path class="cls-1" d="m86.48,106.8c-6.19,7.04-3.88,7.38-9.01,13.85-5.13,6.47-13.71,16.59-13.71,16.59l11.04,7.68s7.26-13.51,11.54-20.58c4.27-7.07,4.15-4.35,8.59-12.81,4.44-8.46,9.63-17.43,9.63-17.43l-5.87-2.46s-6.02,8.12-12.21,15.16Z"/><path class="cls-6" d="m104.66,93.88l-5.87-2.46c-.11-.04-.23-.01-.3.08-.06.08-6.08,8.2-12.19,15.14-3.37,3.83-4.23,5.67-5.14,7.62-.76,1.62-1.54,3.29-3.89,6.24-1,1.26-2.14,2.67-3.32,4.12-.06.07-.11.14-.17.21-.37.45-.74.9-1.12,1.36-4.44,5.4-9.02,10.83-9.09,10.9-.04.05-.06.12-.06.19,0,.07.05.13.11.17l11.04,7.68s.09.05.14.05c.02,0,.04,0,.06,0,.07-.02.13-.06.16-.12,0-.02.11-.21.29-.54.07-.13.15-.29.25-.47.07-.14.15-.29.25-.45,1.99-3.68,7.34-13.49,10.74-19.11,1.88-3.11,2.92-4.34,3.84-5.42,1.22-1.43,2.27-2.66,4.76-7.41,4.38-8.36,9.57-17.32,9.62-17.41.04-.07.05-.14.03-.21-.03-.06-.08-.12-.14-.15Zm-14.64,24.86c-.93,1.1-1.99,2.34-3.89,5.48-3.18,5.26-8.07,14.19-10.33,18.35-.08.15-.16.29-.23.42-.09.17-.18.33-.25.48-.28.5-.48.87-.6,1.1l-10.6-7.37c.93-1.1,5.38-6.37,9.53-11.42.07-.09.14-.18.22-.27.07-.09.14-.18.21-.27,1.28-1.56,2.51-3.07,3.58-4.43,2.38-3,3.18-4.7,3.95-6.34.89-1.92,1.74-3.73,5.06-7.5,5.65-6.43,11.24-13.86,12.1-15.02l5.44,2.28c-.86,1.5-5.52,9.6-9.5,17.19-2.46,4.7-3.5,5.91-4.69,7.32Z"/><path class="cls-1" d="m58.07,105.02c-6.5,0-10.21,5.61-10.21,12.54s5.32,10.59,10.21,10.59,10.21-3.66,10.21-10.59-3.72-12.54-10.21-12.54Z"/><path class="cls-6" d="m58.07,104.78c-6.26,0-10.46,5.14-10.46,12.78,0,7.04,5.39,10.84,10.46,10.84s10.46-3.8,10.46-10.84c0-7.65-4.2-12.78-10.46-12.78Zm0,23.12c-4.83,0-9.96-3.62-9.96-10.34,0-7.35,4-12.29,9.96-12.29s9.96,4.94,9.96,12.29c0,6.72-5.13,10.34-9.96,10.34Z"/><path class="cls-6" d="m64.18,122.72c-1,.11-1.96-.25-2.98-.62-.98-.36-1.99-.74-3.13-.74s-2.04.38-2.96.75c-.92.37-1.79.71-2.7.65-.14-.01-.25.1-.26.23,0,.14.09.25.23.26.08,0,.15,0,.23,0,.94,0,1.83-.35,2.69-.7.88-.35,1.79-.71,2.78-.71,1.04,0,2.02.36,2.96.71,1.08.4,2.1.78,3.2.65.14-.02.23-.14.22-.27-.01-.14-.14-.24-.27-.22Z"/><path class="cls-6" d="m58.27,115.35c-1.56,0-2.99.75-2.99.84,0,2.18,1.25,3.94,2.8,3.94s2.79-1.77,2.79-3.94c0-.09,0-.18,0-.26,0,0-1.2-.58-2.59-.58Z"/><path class="cls-6" d="m61.1,115.91c0-.09-.06-.17-.14-.21-.05-.02-1.26-.6-2.7-.6-1.3,0-3.24.65-3.24,1.09,0,2.31,1.37,4.19,3.04,4.19s3.04-1.88,3.04-4.19c0-.07,0-.14,0-.21v-.06Zm-3.03,3.97c-1.38,0-2.51-1.6-2.55-3.58.3-.18,1.46-.71,2.74-.71,1.06,0,2.01.35,2.35.49,0,.03,0,.07,0,.1,0,2.04-1.14,3.7-2.55,3.7Z"/><path class="cls-1" d="m58.27,115.35c-1.56,0-2.99.75-2.99.84,0,.24.02.48.05.7.81-.47,1.8-.34,2.96-.34.98,0,1.83-.21,2.56.13.01-.16.02-.32.02-.49,0-.09,0-.18,0-.26,0,0-1.2-.58-2.59-.58Z"/><path class="cls-6" d="m60.96,115.7s-1.26-.6-2.7-.6c-1.3,0-3.24.65-3.24,1.09,0,.24.02.48.05.73,0,.08.06.15.13.19.04.02.07.03.11.03.04,0,.08-.01.12-.03.59-.34,1.33-.33,2.22-.31.47,0,.99,0,1.45-.03.24-.02.46-.03.68-.03.4,0,.69.05.94.17.07.03.16.03.23-.01.07-.04.12-.11.12-.19.01-.17.02-.34.02-.51,0-.08,0-.15,0-.27,0-.09-.06-.17-.14-.21Zm-.35.63c-.41-.11-.94-.1-1.53-.06-.45.03-.95.03-1.41.03-.82-.02-1.53-.02-2.14.22,0-.07,0-.14-.01-.22.3-.18,1.46-.71,2.74-.71,1.06,0,2.01.35,2.35.49,0,.03,0,.07,0,.1,0,.05,0,.1,0,.15Z"/><path class="cls-7" d="m75.57,142.8v.71c0,.18,0,.35-.01.52-.02,4.22-.31,3.76-.35,5.56h-34.35c-.03-1.31-.19-1.43-.29-3.01h0c-.01-.19-.02-.39-.03-.61h0c0-.19,0-.38-.02-.6-.02-.66-.03-1.5-.02-2.57.02-3.23,1.39-14.8,1.71-17.47.02-.15.04-.27.05-.36,0-.12.02-.19.02-.19.17.15.33.31.49.46,5.02,4.7,7.49,7.54,10.47,8.45.99.3,3.15.86,4.79,1.27,1.64-.41,3.8-.97,4.79-1.27,3.09-.94,5.62-3.93,10.96-8.91v.04c0,.06.03.18.04.35.02.09.03.2.05.33.36,2.96,1.68,14.13,1.7,17.3Z"/><path class="cls-2" d="m75.8,142.57c-.06-3.56-1.42-14.86-1.72-17.33,0-.14-.03-.25-.04-.33,0-.09,0-.14,0-.15,0-.06-.04-.11-.08-.14-.02-.03-.05-.05-.08-.06-.09-.03-.19,0-.26.05-1.16,1.08-2.18,2.07-3.11,2.96-3.36,3.23-5.39,5.17-7.75,5.89-.97.3-3.09.84-4.72,1.26-1.63-.42-3.74-.96-4.71-1.26-2.37-.72-4.39-2.66-7.75-5.89-.93-.89-1.96-1.88-3.12-2.96-.06-.05-.13-.07-.21-.05,0,0-.03,0-.04,0-.07.02-.13.08-.14.16-.02,0-.02.02-.02.04,0,0,0,.12-.04.31-.26,2.11-1.73,14.41-1.75,17.74,0,.8,0,1.47.01,2.04,0,.21,0,.39,0,.57h0c0,.23.02.44.03.63.05,1.14.12,1.67.19,2.13.06.4.11.75.12,1.42h.5c-.02-.7-.07-1.07-.13-1.49-.04-.27-.08-.57-.12-1,0-.17-.03-.35-.04-.56-.01-.19-.02-.4-.03-.63-.03-.73-.05-1.72-.04-3.1.01-3.11,1.31-14.14,1.68-17.2.02-.11.03-.22.04-.31.05.04.1.09.14.14,0,0,.02.01.03.03.41.37.8.74,1.17,1.11.5.46.97.91,1.42,1.34,3.41,3.27,5.47,5.25,7.94,6,.99.3,3.16.87,4.8,1.28.04,0,.08,0,.12,0,1.65-.41,3.81-.98,4.8-1.28,2.48-.75,4.54-2.73,7.95-6,.57-.55,1.17-1.12,1.82-1.74.3-.28.61-.58.93-.88,0,.04,0,.08.02.13,0,.1.02.21.04.34.39,3.25,1.65,13.98,1.67,17.04v1.15c0,.19,0,.37-.01.54-.02,2.23-.13,2.98-.22,3.6-.06.42-.11.79-.13,1.49h.49c0-.67.06-1.02.13-1.42.1-.71.23-1.59.23-4.59v-.78c0-.08,0-.16,0-.24Z"/><path class="cls-1" d="m63.21,126.01h-10.21s1.23,4.69-.39,7.39c0,0,3.08,1.8,5.42,1.84h.08c2.34-.04,5.42-1.84,5.42-1.84-1.62-2.69-.32-7.39-.32-7.39Z"/><path class="cls-6" d="m63.32,126.63c.03-.13-.06-.26-.19-.29-.14-.03-.26.06-.29.19-.28,1.33-.79,4.57.36,6.77-.73.4-3.19,1.66-5.09,1.69h-.08c-1.9-.03-4.36-1.29-5.09-1.69,1.09-2.06.75-5.02.45-6.63-.03-.13-.15-.22-.29-.2-.13.03-.22.15-.2.29.25,1.29.69,4.51-.51,6.5-.03.06-.04.12-.03.19.02.06.06.12.12.15.13.08,3.17,1.84,5.55,1.88h.09c2.38-.04,5.41-1.8,5.54-1.88.06-.03.1-.09.11-.15.02-.06,0-.13-.03-.19-1.23-2.04-.71-5.32-.43-6.64Z"/><path class="cls-1" d="m67.88,115.99l-.67,4.78s-.02,1.84,1.66,1.02,1.77-6.92-.99-5.81Z"/><path class="cls-6" d="m67.79,115.76c-.13.05-.19.2-.14.32.05.13.2.19.32.14.71-.28,1.21-.06,1.54.68.65,1.46.21,4.21-.74,4.67-.42.2-.74.24-.95.1-.3-.19-.36-.72-.36-.9,0-.14-.11-.25-.24-.25h0c-.13,0-.25.11-.25.24,0,.04,0,.95.59,1.33.16.1.35.16.56.16.26,0,.55-.08.87-.23,1.3-.63,1.69-3.7.98-5.31-.43-.98-1.23-1.32-2.17-.94Z"/><path class="cls-1" d="m47.25,121.8c1.68.81,1.66-1.02,1.66-1.02l-.67-4.78c-2.77-1.11-2.68,4.99-.99,5.81Z"/><path class="cls-6" d="m48.91,120.53h0c-.14,0-.25.11-.25.25,0,.19-.06.71-.36.9-.21.13-.53.1-.95-.1-.95-.46-1.39-3.21-.74-4.67.33-.75.83-.97,1.54-.68.13.05.27-.01.32-.14.05-.13-.01-.27-.14-.32-.95-.38-1.74-.04-2.17.94-.71,1.61-.32,4.69.98,5.31.32.15.61.23.87.23.21,0,.4-.05.56-.16.59-.38.59-1.29.59-1.32,0-.14-.11-.24-.25-.24Z"/><path class="cls-6" d="m65.58,111.5c-.55-.2-1.44-.9-2.15-1.46-.3-.24-.58-.45-.8-.61-.28-.2-.54-.25-.77-.14-.39.18-.45.74-.45.8-.01.14.09.26.23.27.13.01.25-.09.27-.22.01-.14.08-.36.17-.4.05-.02.15.02.27.1.21.15.48.36.78.59.78.61,1.66,1.3,2.29,1.53.03.01.06.02.08.02.1,0,.2-.06.23-.16.05-.13-.02-.27-.15-.32Z"/><path class="cls-6" d="m62.43,112.11c-.11.08-.13.23-.05.34.08.11.23.14.34.06.13-.09.47-.1.89.44.05.06.12.1.19.1.05,0,.11-.02.15-.05.11-.08.13-.24.04-.35-.83-1.07-1.56-.54-1.57-.53Z"/><path class="cls-6" d="m54.79,109.29c-.23-.1-.48-.06-.77.14-.22.15-.49.37-.79.6-.71.56-1.6,1.25-2.16,1.46-.13.05-.19.19-.15.32.04.1.13.16.23.16.03,0,.06,0,.09-.02.63-.23,1.51-.92,2.29-1.53.29-.23.56-.44.77-.59.12-.08.22-.12.27-.1.09.04.16.26.17.4.01.14.13.24.27.22.13-.01.24-.13.22-.27,0-.06-.07-.62-.45-.8Z"/><path class="cls-6" d="m52.67,112.65c-.08.11-.07.26.04.35.04.03.1.05.15.05.07,0,.15-.03.2-.1.41-.53.75-.52.88-.44.11.08.26.06.34-.05.08-.11.06-.26-.05-.35,0,0-.74-.53-1.57.53Z"/><path class="cls-6" d="m58.1,112.43c-.79,0-1.22.83-1.24.87-.06.12-.01.27.11.33.04.02.07.03.11.03.09,0,.18-.05.22-.13,0,0,.31-.6.8-.6s.74.58.74.58c.06.12.2.18.33.13.12-.05.18-.2.13-.32-.02-.04-.39-.88-1.2-.88Z"/><path class="cls-6" d="m62.67,102.58c-5.34-1.97-10.96.35-14.3,5.09-3.34,4.74.8,10.31.8,10.31,0,0-.36-2.15.94-4.27,0,0-1.5-.85-.25-3.89,0,0,.02,2.42,1.31,3.27,0,0,.33-5.03,3.87-4.78,0,0-.3-1.84,2.39-2.24,0,0,.79-2.42,2.18-.47,1.4,1.94.29,2.37,1.82,3.42,0,0,2.08-.51,3.22,1.34,0,0,.85-1.55-.2-2.84,0,0,2.41,2.18,1.57,4.42,0,0,2,1.93,2,5.02,0,0,1.5-2.05,1.17-5.44-.33-3.46-1.1-6.93-6.54-8.94Z"/><path class="cls-6" d="m87.64,112.34c.02-.13-.07-.26-.2-.28-.13-.02-.26.07-.28.2-.02.09-.37,2.27.3,3.6.04.09.13.14.22.14.04,0,.08,0,.11-.03.12-.06.17-.21.11-.33-.59-1.18-.25-3.28-.25-3.3Z"/><polygon class="cls-5" points="1.38 94.03 114.68 94.03 114.68 92 1.38 91.97 1.38 94.03"/><path class="cls-3" d="m1.14,94.27h113.77v-2.51l-113.77-.03v2.53Zm.47-2.06l112.83.03v1.57H1.61v-1.6Z"/><polygon class="cls-1" points="7.14 64.59 1.38 92 114.68 92 108.92 64.59 7.14 64.59"/><path class="cls-3" d="m6.95,64.35l-5.86,27.88h113.88l-5.86-27.88H6.95Zm-5.28,27.41l5.66-26.94h101.4l5.66,26.94H1.67Z"/><polygon class="cls-3" points="35.6 75.86 49.17 75.86 49.59 66.02 36.5 66.02 35.6 75.86"/><path class="cls-3" d="m35.34,76.09h14.05l.44-10.31h-13.55l-.94,10.31Zm14.01-9.84l-.4,9.37h-13.09l.86-9.37h12.64Z"/><polygon class="cls-3" points="34.29 90.14 48.56 90.14 49.09 77.8 35.42 77.8 34.29 90.14"/><path class="cls-3" d="m34.04,90.37h14.75l.55-12.81h-14.12l-1.17,12.81Zm14.81-12.34l-.51,11.87h-13.79l1.09-11.87h13.21Z"/><polygon class="cls-3" points="51.05 66.02 50.68 75.86 63.91 75.86 63.54 66.02 51.05 66.02"/><path class="cls-3" d="m50.82,65.78l-.39,10.31h13.72l-.39-10.31h-12.94Zm.1,9.84l.35-9.37h12.04l.35,9.37h-12.75Z"/><polygon class="cls-3" points="50.6 77.8 50.14 90.14 64.45 90.14 63.98 77.8 50.6 77.8"/><path class="cls-3" d="m50.38,77.56l-.48,12.81h14.8l-.48-12.81h-13.83Zm0,12.34l.45-11.87h12.93l.45,11.87h-13.82Z"/><polygon class="cls-3" points="64.99 66.02 65.41 75.86 78.98 75.86 78.08 66.02 64.99 66.02"/><path class="cls-3" d="m64.74,65.78l.44,10.31h14.05l-.94-10.31h-13.55Zm.89,9.84l-.4-9.37h12.64l.86,9.37h-13.09Z"/><polygon class="cls-3" points="65.49 77.8 66.02 90.14 80.29 90.14 79.16 77.8 65.49 77.8"/><path class="cls-3" d="m65.25,77.56l.55,12.81h14.75l-1.17-12.81h-14.12Zm1,12.34l-.51-11.87h13.21l1.09,11.87h-13.79Z"/><polygon class="cls-3" points="6.74 75.86 18.13 75.86 19.64 66.02 8.74 66.02 6.74 75.86"/><path class="cls-3" d="m6.45,76.09h11.88l1.59-10.31h-11.37l-2.09,10.31Zm12.92-9.84l-1.44,9.37H7.02l1.9-9.37h10.44Z"/><polygon class="cls-3" points="3.84 90.14 15.94 90.14 17.83 77.8 6.34 77.8 3.84 90.14"/><path class="cls-3" d="m3.55,90.37h12.59l1.97-12.81H6.15l-2.6,12.81Zm14.01-12.34l-1.83,11.87H4.12l2.41-11.87h11.03Z"/><polygon class="cls-3" points="94.94 66.02 96.45 75.86 109.32 75.86 107.32 66.02 94.94 66.02"/><path class="cls-3" d="m94.67,65.78l1.59,10.31h13.36l-2.09-10.31h-12.85Zm1.99,9.84l-1.44-9.37h11.92l1.9,9.37h-12.38Z"/><polygon class="cls-3" points="96.75 77.8 98.65 90.14 112.22 90.14 109.72 77.8 96.75 77.8"/><path class="cls-3" d="m96.48,77.56l1.94,12.61.03.2h14.06l-2.6-12.81h-13.43Zm2.37,12.34l-1.82-11.87h12.5l2.41,11.87h-13.09Z"/><polygon class="cls-3" points="19.81 75.86 33.89 75.86 34.85 66.02 21.26 66.02 19.81 75.86"/><path class="cls-3" d="m19.54,76.09h14.56l1.01-10.31h-14.04l-1.52,10.31Zm15.05-9.84l-.92,9.37h-13.6l1.38-9.37h13.13Z"/><polygon class="cls-3" points="17.7 90.14 32.5 90.14 33.7 77.8 19.52 77.8 17.7 90.14"/><path class="cls-3" d="m17.43,90.37h15.28l1.25-12.81h-14.64l-1.89,12.81Zm16.02-12.34l-1.16,11.87h-14.32l1.75-11.87h13.72Z"/><polygon class="cls-3" points="79.73 66.02 80.69 75.86 94.77 75.86 93.32 66.02 79.73 66.02"/><path class="cls-3" d="m79.47,65.78l1.01,10.31h14.56l-1.52-10.31h-14.05Zm1.43,9.84l-.91-9.37h13.13l1.39,9.37h-13.6Z"/><polygon class="cls-3" points="80.88 77.8 82.09 90.14 96.88 90.14 95.06 77.8 80.88 77.8"/><path class="cls-3" d="m80.62,77.56l1.25,12.81h15.28l-1.89-12.81h-14.64Zm1.67,12.34l-1.16-11.87h13.72l1.75,11.87h-14.31Z"/><polygon class="cls-4" points="45.38 35.48 65.48 6.96 58.43 30.31 69.26 27.31 51.28 53.82 56.61 31.71 45.38 35.48"/><polygon class="cls-4" points="73.66 41.89 88.47 29.61 81.36 41.02 87.55 40.98 74.16 52.5 80.18 41.5 73.66 41.89"/><polygon class="cls-4" points="25.8 46.9 26.25 27.67 30.19 40.52 34.23 35.82 34.14 53.49 29.79 41.72 25.8 46.9"/><circle class="cls-5" cx="24.43" cy="56.91" r="1.28"/><path class="cls-5" d="m39.53,20.16c0,.71-.57,1.28-1.28,1.28s-1.28-.57-1.28-1.28.57-1.28,1.28-1.28,1.28.57,1.28,1.28Z"/><path class="cls-5" d="m94.5,53.49c0,.71-.57,1.28-1.28,1.28s-1.28-.57-1.28-1.28.57-1.28,1.28-1.28,1.28.57,1.28,1.28Z"/><path class="cls-5" d="m96.49,12.96c0,.71-.57,1.28-1.28,1.28s-1.28-.57-1.28-1.28.57-1.28,1.28-1.28,1.28.57,1.28,1.28Z"/><path class="cls-7" d="m9.76,39.65c0,.5-.41.91-.91.91s-.9-.41-.9-.91.41-.9.9-.9.91.41.91.9Z"/><path class="cls-7" d="m14.1,16.65c0,.5-.41.9-.9.9s-.91-.41-.91-.9.41-.9.91-.9.9.41.9.9Z"/><path class="cls-7" d="m78.98,20.16c0,.5-.4.9-.9.9s-.91-.4-.91-.9.41-.9.91-.9.9.41.9.9Z"/><path class="cls-7" d="m73.79.91c0,.5-.41.9-.91.9s-.9-.41-.9-.9.4-.91.9-.91.91.41.91.91Z"/><path class="cls-7" d="m29.91,2.71c0,.5-.4.9-.9.9s-.91-.4-.91-.9.41-.9.91-.9.9.4.9.9Z"/><path class="cls-7" d="m51.82,6.96c0,.5-.41.9-.9.9s-.91-.4-.91-.9.41-.9.91-.9.9.4.9.9Z"/><path class="cls-7" d="m99.19,32.28c0,.5-.41.9-.9.9s-.91-.41-.91-.9.41-.91.91-.91.9.41.9.91Z"/><path class="cls-7" d="m46.29,43.59c0,.5-.41.9-.91.9s-.9-.4-.9-.9.4-.9.9-.9.91.4.91.9Z"/></g></svg>