<?xml version="1.0" encoding="UTF-8"?><svg id="Layer_2" xmlns="http://www.w3.org/2000/svg" xmlns:xlink="http://www.w3.org/1999/xlink" viewBox="0 0 90.38 84.34"><defs><style>.cls-1{fill:url(#linear-gradient);}</style><linearGradient id="linear-gradient" x1="0" y1="42.17" x2="90.38" y2="42.17" gradientUnits="userSpaceOnUse"><stop offset="0" stop-color="#4f46e5"/><stop offset="1" stop-color="#4338ca"/></linearGradient></defs><g id="Layer_1-2"><path class="cls-1" d="m63.58,15.19c.11-1.98.21-3.2.24-4.42.1-4.88,1.1-6,5.36-5.98,4.98.02,6.71,1.54,6.8,6.19.08,3.95.21,7.92-.04,11.86-.22,3.52,1.13,6.01,3.62,8.38,3.69,3.51,7.24,7.22,10.46,11.16.77.95.04,3.12,0,4.72-1.61-.25-3.23-.49-4.83-.78-.21-.04-.39-.32-.57-.5-11.67-11.66-23.33-23.32-35-34.98-.63-.63-1.32-1.22-1.88-1.91-2.11-2.63-3.72-1.91-5.86.26-11.48,11.65-23.11,23.15-34.71,34.68-.9.89-1.9,1.84-3.04,2.31-1.26.52-2.74.51-4.13.72.14-1.44.03-2.97.5-4.3.35-1,1.38-1.8,2.18-2.6C14.53,28.15,26.39,16.32,38.25,4.49c6.04-6.02,8.04-6,14.16.15,2.71,2.72,5.39,5.46,8.13,8.14.76.74,1.66,1.33,3.04,2.41Zm5.85,41.99c-.3-.2-.64-.31-1.03-.31h-4.3c-.38,0-.68.31-.68.68v3.36c0,.38.31.68.68.68h4.3c.56,0,1.03-.22,1.41-.66.39-.44.58-1.02.58-1.75,0-.45-.09-.85-.26-1.19-.17-.34-.41-.62-.71-.82Zm-43.17,8.06c-.25-.15-.53-.23-.85-.23h-4.95c-.25,0-.45.2-.45.45v2.89c0,.25.2.45.45.45h4.95c.49,0,.89-.17,1.19-.52.3-.34.45-.86.45-1.54,0-.32-.07-.62-.21-.88-.14-.27-.33-.48-.58-.63Zm55.98-11.49c-.3,6.24-.07,12.5-.09,18.75-.02,7.26-3.92,11.64-11.23,11.72-17.45.18-34.91.14-52.36,0-5.54-.04-8.87-2.61-9.38-8.17-.76-8.35-.66-16.79-.71-25.19,0-1.2,1.02-2.64,1.95-3.58,11.42-11.51,22.91-22.94,34.81-34.82,1.23.99,2.28,1.69,3.15,2.56,10.1,9.99,20.12,20.05,30.3,29.96,2.57,2.5,3.73,5.11,3.55,8.76Zm-47.99,14.32c0-1.18-.19-2.14-.58-2.89-.39-.75-.9-1.33-1.53-1.75-.63-.42-1.33-.71-2.11-.88v-.13c.66-.19,1.28-.49,1.83-.88.56-.4,1.01-.94,1.35-1.62.34-.69.51-1.56.51-2.64s-.28-2.01-.84-2.83c-.56-.81-1.3-1.45-2.22-1.91-.92-.46-1.94-.69-3.05-.69h-14.28c-.25,0-.45.2-.45.45v21.22c0,.25.2.45.45.45h14.47c1.2,0,2.28-.25,3.25-.74.96-.49,1.74-1.18,2.32-2.06.58-.88.87-1.91.87-3.09Zm20.71,1.17c0-.33-.26-.59-.59-.59h-11.07c-.33,0-.59-.26-.59-.59v-2.19c0-.33.26-.59.59-.59h9.11c.33,0,.59-.26.59-.59v-3.9c0-.33-.26-.59-.59-.59h-9.11c-.33,0-.59-.26-.59-.59v-1.87c0-.33.26-.59.59-.59h10.84c.33,0,.59-.26.59-.59v-4.12c0-.33-.26-.59-.59-.59h-17.95c-.33,0-.59.26-.59.59v20.94c0,.33.26.59.59.59h18.18c.33,0,.59-.26.59-.59v-4.12Zm22.81,3.73l-3.57-7.08c-.15-.3-.07-.67.21-.86.91-.62,1.65-1.4,2.22-2.35.66-1.1,1-2.36,1-3.78,0-1.24-.28-2.4-.84-3.47-.56-1.07-1.39-1.94-2.49-2.6-1.1-.66-2.48-1-4.13-1h-13.18c-.38,0-.68.31-.68.68v20.76c0,.38.31.68.68.68h5.74c.38,0,.68-.31.68-.68v-6.06c0-.38.31-.68.68-.68h2.38c.27,0,.51.16.62.4l3.01,6.63c.11.24.35.4.62.4h6.43c.51,0,.84-.54.61-.99Zm-57.31-12.52h4.44c.34,0,.63-.08.87-.24.24-.16.42-.39.56-.69.14-.3.21-.68.21-1.13s-.16-.87-.48-1.21c-.32-.33-.71-.5-1.16-.5h-4.44c-.25,0-.45.2-.45.45v2.86c0,.25.2.45.45.45Z"/></g></svg>