<?xml version="1.0" encoding="UTF-8"?><svg id="Layer_2" xmlns="http://www.w3.org/2000/svg" viewBox="0 0 321.33 94.77"><defs><style>.cls-1{fill:#d4d4d4;}</style></defs><g id="Layer_1-2"><path class="cls-1" d="m45.25,12.47c1.23.99,2.28,1.69,3.15,2.56,10.1,9.99,20.12,20.05,30.3,29.96,2.57,2.5,3.73,5.11,3.55,8.76-.31,6.24-.07,12.5-.09,18.75-.02,7.26-3.92,11.64-11.23,11.72-17.45.18-34.91.14-52.36,0-5.54-.04-8.87-2.61-9.38-8.17-.76-8.35-.66-16.79-.71-25.19,0-1.2,1.02-2.64,1.95-3.58,11.42-11.51,22.91-22.94,34.81-34.82Z"/><path class="cls-1" d="m63.58,15.19c.11-1.98.21-3.2.24-4.42.1-4.88,1.1-6,5.36-5.98,4.98.02,6.71,1.54,6.8,6.19.08,3.95.21,7.92-.04,11.86-.22,3.52,1.13,6.01,3.62,8.38,3.69,3.51,7.24,7.22,10.46,11.16.77.95.04,3.12,0,4.72-1.61-.25-3.23-.49-4.83-.78-.21-.04-.39-.32-.57-.5-11.67-11.66-23.33-23.32-35-34.98-.63-.63-1.32-1.22-1.88-1.91-2.11-2.63-3.72-1.91-5.86.26-11.48,11.65-23.11,23.15-34.71,34.68-.9.89-1.9,1.84-3.04,2.31-1.26.52-2.74.51-4.13.72.14-1.44.03-2.97.5-4.3.35-1,1.38-1.8,2.18-2.6C14.53,28.15,26.39,16.32,38.25,4.49c6.04-6.02,8.04-6,14.16.15,2.71,2.72,5.39,5.46,8.13,8.14.76.74,1.66,1.33,3.04,2.41Z"/><path class="cls-1" d="m103.54,83.42v-39.59c0-.47.38-.84.84-.84h26.64c2.08,0,3.98.43,5.7,1.29,1.72.86,3.1,2.05,4.14,3.57,1.04,1.52,1.56,3.28,1.56,5.28s-.32,3.64-.96,4.92c-.64,1.28-1.48,2.29-2.52,3.03-1.04.74-2.18,1.29-3.42,1.65v.24c1.44.32,2.75.87,3.93,1.65s2.13,1.87,2.85,3.27,1.08,3.2,1.08,5.4-.54,4.12-1.62,5.76c-1.08,1.64-2.52,2.92-4.32,3.84-1.8.92-3.82,1.38-6.06,1.38h-27c-.47,0-.84-.38-.84-.84Zm13.26-25.2c0,.47.38.84.84.84h8.28c.64,0,1.18-.15,1.62-.45.44-.3.79-.73,1.05-1.29.26-.56.39-1.26.39-2.1s-.3-1.63-.9-2.25c-.6-.62-1.32-.93-2.16-.93h-8.28c-.47,0-.84.38-.84.84v5.33Zm0,15.6c0,.47.38.84.84.84h9.24c.92,0,1.66-.32,2.22-.96.56-.64.84-1.6.84-2.88,0-.6-.13-1.15-.39-1.65-.26-.5-.62-.89-1.08-1.17-.46-.28-.99-.42-1.59-.42h-9.24c-.47,0-.84.38-.84.84v5.39Z"/><path class="cls-1" d="m145.89,83.16v-39.07c0-.61.49-1.1,1.1-1.1h33.49c.61,0,1.1.49,1.1,1.1v7.69c0,.61-.49,1.1-1.1,1.1h-20.23c-.61,0-1.1.49-1.1,1.1v3.49c0,.61.49,1.1,1.1,1.1h16.99c.61,0,1.1.49,1.1,1.1v7.27c0,.61-.49,1.1-1.1,1.1h-16.99c-.61,0-1.1.49-1.1,1.1v4.09c0,.61.49,1.1,1.1,1.1h20.65c.61,0,1.1.49,1.1,1.1v7.69c0,.61-.49,1.1-1.1,1.1h-33.91c-.61,0-1.1-.49-1.1-1.1Z"/><path class="cls-1" d="m184.53,82.99v-38.73c0-.7.57-1.27,1.27-1.27h24.59c3.08,0,5.65.62,7.71,1.86,2.06,1.24,3.61,2.86,4.65,4.86,1.04,2,1.56,4.16,1.56,6.48,0,2.64-.62,4.99-1.86,7.05-1.06,1.76-2.44,3.22-4.14,4.38-.51.35-.66,1.04-.38,1.6l6.65,13.21c.43.85-.19,1.85-1.14,1.85h-11.99c-.5,0-.95-.29-1.16-.75l-5.62-12.37c-.21-.45-.66-.75-1.16-.75h-4.45c-.7,0-1.27.57-1.27,1.27v11.31c0,.7-.57,1.27-1.27,1.27h-10.71c-.7,0-1.27-.57-1.27-1.27Zm13.26-23.04c0,.7.57,1.27,1.27,1.27h8.03c1.04,0,1.92-.41,2.64-1.23.72-.82,1.08-1.91,1.08-3.27,0-.84-.16-1.58-.48-2.22-.32-.64-.76-1.15-1.32-1.53-.56-.38-1.2-.57-1.92-.57h-8.03c-.7,0-1.27.57-1.27,1.27v6.27Z"/><path class="cls-1" d="m228.39,94.77l7.44-42.06h3.54l-.3,4.86h.42c1.52-1.92,3.25-3.33,5.19-4.23,1.94-.9,4.03-1.35,6.27-1.35,2.6,0,4.8.43,6.6,1.29,1.8.86,3.17,2.17,4.11,3.93.94,1.76,1.41,3.96,1.41,6.6,0,.92-.04,1.87-.12,2.85-.08.98-.24,1.99-.48,3.03-.68,3.36-1.75,6.17-3.21,8.43-1.46,2.26-3.26,3.97-5.4,5.13-2.14,1.16-4.57,1.74-7.29,1.74-1.6,0-3.09-.18-4.47-.54-1.38-.36-2.59-.91-3.63-1.65-1.04-.74-1.88-1.69-2.52-2.85h-.42l-2.58,14.82h-4.56Zm17.28-13.74c2,0,3.83-.4,5.49-1.2,1.66-.8,3.07-2.07,4.23-3.81,1.16-1.74,1.98-4.01,2.46-6.81.16-.92.27-1.69.33-2.31.06-.62.1-1.16.12-1.62.02-.46.03-.87.03-1.23,0-1.96-.35-3.53-1.05-4.71-.7-1.18-1.66-2.04-2.88-2.58-1.22-.54-2.65-.81-4.29-.81-2.12,0-4.02.42-5.7,1.26s-3.1,2.13-4.26,3.87c-1.16,1.74-1.98,3.99-2.46,6.75-.16.8-.28,1.48-.36,2.04-.08.56-.13,1.06-.15,1.5-.02.44-.03.84-.03,1.2,0,2.16.38,3.85,1.14,5.07.76,1.22,1.78,2.09,3.06,2.61,1.28.52,2.72.78,4.32.78Z"/><path class="cls-1" d="m267.51,84.27l5.52-31.56h3.54l-.54,5.58h.36c.4-.88.99-1.8,1.77-2.76.78-.96,1.77-1.79,2.97-2.49,1.2-.7,2.62-1.05,4.26-1.05.68,0,1.32.04,1.92.12s1.06.18,1.38.3l-.66,4.02h-2.34c-1.64,0-3.07.32-4.29.96-1.22.64-2.26,1.48-3.12,2.52-.86,1.04-1.56,2.2-2.1,3.48s-.93,2.56-1.17,3.84l-3,17.04h-4.5Z"/><path class="cls-1" d="m302.67,84.98c-3,0-5.53-.44-7.59-1.32-2.06-.88-3.62-2.21-4.68-3.99-1.06-1.78-1.59-4.03-1.59-6.75,0-1,.07-2,.21-3,.14-1,.31-2,.51-3,.72-3.36,1.87-6.15,3.45-8.37,1.58-2.22,3.59-3.87,6.03-4.95,2.44-1.08,5.24-1.62,8.4-1.62s5.59.44,7.65,1.32c2.06.88,3.62,2.23,4.68,4.05,1.06,1.82,1.59,4.09,1.59,6.81,0,.84-.05,1.69-.15,2.55s-.25,1.77-.45,2.73c-.68,3.44-1.82,6.32-3.42,8.64-1.6,2.32-3.62,4.05-6.06,5.19-2.44,1.14-5.3,1.71-8.58,1.71Zm.12-3.84c2.28,0,4.32-.41,6.12-1.23,1.8-.82,3.31-2.11,4.53-3.87,1.22-1.76,2.07-4.06,2.55-6.9.16-.88.27-1.62.33-2.22.06-.6.11-1.11.15-1.53s.06-.81.06-1.17c0-2-.38-3.61-1.14-4.83-.76-1.22-1.83-2.13-3.21-2.73-1.38-.6-3.01-.9-4.89-.9-2.24,0-4.27.42-6.09,1.26-1.82.84-3.33,2.13-4.53,3.87s-2.06,4.05-2.58,6.93c-.12.88-.22,1.62-.3,2.22-.08.6-.14,1.11-.18,1.53-.04.42-.06.81-.06,1.17,0,2,.37,3.61,1.11,4.83.74,1.22,1.81,2.12,3.21,2.7,1.4.58,3.04.87,4.92.87Z"/></g></svg>