<?xml version="1.0" encoding="UTF-8"?><svg id="Layer_2" xmlns="http://www.w3.org/2000/svg" xmlns:xlink="http://www.w3.org/1999/xlink" viewBox="0 0 2565.42 1330.6"><defs><style>.cls-1{fill:#fff;}.cls-2{fill:#a5c1cc;}.cls-3{fill:#798e96;}.cls-4{fill:#fac35a;}.cls-5{fill:#a1a1ff;}.cls-6{fill:#c7d9e0;}.cls-7{fill:#fcdea4;}.cls-8{fill:#adbabf;}.cls-9{fill:#db957f;}.cls-10{fill:#e6e6e9;}.cls-11{fill:#d5cfcc;}.cls-12{fill:#bfb7b2;}.cls-13{fill:#6c7080;}.cls-14{fill:#9fbdc9;}.cls-15,.cls-16,.cls-17,.cls-18{fill:none;}.cls-15,.cls-17{stroke:#2d334a;}.cls-15,.cls-17,.cls-18{stroke-miterlimit:10;}.cls-19{fill:#b3cbd4;}.cls-20{fill:#f7a509;}.cls-21{fill:#b7aea9;}.cls-22{fill:#94b6c3;}.cls-23{fill:#2d334a;}.cls-24{fill:#f8b027;}.cls-25{fill:#555a6c;}.cls-26{clip-path:url(#clippath);}.cls-27{fill:#90a1a8;}.cls-28{fill:#b9cfd7;}.cls-29{fill:#fbd386;}.cls-30{fill:#42475c;}.cls-31{fill:#d1dfe5;}.cls-32{fill:#8a8aff;}.cls-33{fill:#cedee4;}.cls-17{stroke-width:.91px;}.cls-18{stroke:#a7c3cc;stroke-width:3.44px;}.cls-34{fill:#88aebc;}.cls-35{fill:#654c4e;}</style><clipPath id="clippath"><polygon class="cls-16" points="938.99 451.52 612.19 451.52 612.19 562.88 1018.83 562.88 938.99 451.52"/></clipPath></defs><g id="Layer_1-2"><path class="cls-10" d="m1075.36,1006.09c-138.59,0-255.47,92.95-291.71,219.92h583.42c-36.24-126.96-153.12-219.92-291.71-219.92Z"/><path class="cls-10" d="m733.98,1074.24c-95.64,0-176.3,64.15-201.31,151.76h402.61c-25.01-87.62-105.66-151.76-201.31-151.76Z"/><path class="cls-10" d="m1167.89,1226.01c39.18-135.58,194.45-236.85,380.05-236.85s340.87,101.27,380.05,236.85h-760.1Z"/><path class="cls-11" d="m1209.17,1120.46c-69.3,0-127.74,46.48-145.85,109.96h291.71c-18.12-63.48-76.56-109.96-145.85-109.96Z"/><path class="cls-11" d="m1038.48,1154.54c-47.82,0-88.15,32.07-100.65,75.88h201.31c-12.5-43.81-52.83-75.88-100.65-75.88Z"/><path class="cls-11" d="m1255.43,1230.42c19.59-67.79,97.23-118.42,190.02-118.42s170.43,50.63,190.02,118.42h-380.05Z"/><path class="cls-11" d="m2053.4,1330.6H377.21c-30.98,0-56.09-25.11-56.09-56.09s25.11-56.09,56.09-56.09h1676.19c30.98,0,56.09,25.11,56.09,56.09s-25.11,56.09-56.09,56.09Z"/><path class="cls-8" d="m2231.2,1033.32c15.47,8.37,26.63,19.59,31.55,25.07.22-.47.44-.93.67-1.4,5.73-11.97,12.53-25.33,20.42-39.53-6.37-2.66-21.26-9.71-34.71-22.2-17.69-16.43-26.17-36.06-26.17-36.06,0,0,20.19,7.02,37.88,23.45,13.01,12.09,21.03,25.89,24.37,32.35,6.58-11.75,13.91-24.04,21.99-36.58-5.59-4.32-17.98-14.86-27.65-30.17-12.9-20.41-16.08-41.55-16.08-41.55,0,0,17.73,11.95,30.62,32.36,9.01,14.26,13.27,28.86,15.03,36.38,8.13-12.48,17.01-25.18,26.64-37.81-4.85-5.1-15.52-17.43-22.75-34.06-9.63-22.14-9.55-43.51-9.55-43.51,0,0,15.7,14.51,25.33,36.65,6.64,15.25,8.66,30.14,9.28,37.93,6.55-8.47,13.44-16.9,20.68-25.2-2.58-6.61-7.74-21.99-8.15-40.04-.55-24.13,7.6-43.9,7.6-43.9,0,0,9.05,19.37,9.6,43.5.33,14.67-2.54,27.71-4.85,35.69,5.14-5.75,10.45-11.44,15.94-17.02,3.67-7.45,10.35-19.05,20.52-29.67,16.69-17.45,36.43-25.64,36.43-25.64,0,0-7.31,20.09-24,37.53-10.05,10.51-21.21,17.66-28.5,21.68-5.68,5.77-11.16,11.65-16.47,17.61,7.71-1.44,22.54-3.35,38.91-.95,23.89,3.5,42,14.86,42,14.86,0,0-20.61,5.67-44.5,2.17-18.14-2.66-32.94-9.84-39.02-13.15-7.3,8.31-14.23,16.76-20.83,25.26,7.22.67,23.05,2.94,39.16,10.5,21.86,10.25,35.92,26.35,35.92,26.35,0,0-21.37-.52-43.23-10.77-16.61-7.79-28.71-18.95-33.56-23.86-9.94,12.94-19.07,25.96-27.42,38.76,7.35.05,23.17.95,39.71,7,22.68,8.28,38.11,23.08,38.11,23.08,0,0-21.33,1.37-44.01-6.92-17.08-6.24-30.04-16.17-35.41-20.69-8.18,12.66-15.58,25.06-22.22,36.91,7.44-.2,23.14.18,39.72,5.57,22.96,7.46,38.91,21.69,38.91,21.69,0,0-21.27,2.14-44.23-5.32-17.07-5.55-30.26-14.83-35.91-19.23-7.78,14.01-14.49,27.19-20.15,39.01-.28.59-.56,1.18-.84,1.77,4.83.29,23.23,1.91,41.99,10.72,21.86,10.25,35.92,26.35,35.92,26.35,0,0-21.37-.52-43.23-10.77-18.77-8.8-31.78-21.91-35.09-25.44-23.02,48.57-33.59,84.4-33.69,84.77l-5.68-1.66c.11-.36,10.55-35.81,33.25-84-7.2-1.09-22.83-4.27-38.42-12.71-21.23-11.49-34.35-28.37-34.35-28.37,0,0,21.31,1.74,42.54,13.23Z"/><path class="cls-8" d="m1979.37,1001.23c25.6,7.2,45.79,20.04,54.87,26.49.17-.76.34-1.52.52-2.28,4.47-19.56,10.06-41.53,16.97-65.09-10.27-1.81-34.58-7.25-58.58-21.2-31.55-18.35-50.59-44.47-50.59-44.47,0,0,32.12,3.63,63.67,21.98,23.21,13.5,39.63,31.19,46.7,39.61,5.8-19.51,12.52-40.08,20.26-61.26-9.68-4.51-31.46-15.94-50.82-35.3-25.81-25.81-37.53-55.93-37.53-55.93,0,0,30.12,11.72,55.93,37.53,18.03,18.03,29.18,38.15,34.27,48.65,7.84-21.11,16.71-42.79,26.72-64.62-8.86-5.91-28.68-20.54-44.89-42.67-21.57-29.44-28.56-61-28.56-61,0,0,27.98,16.18,49.55,45.62,14.86,20.29,22.8,41.57,26.3,52.85,6.84-14.67,14.2-29.4,22.11-44.05-6-8.89-18.73-29.86-25.35-56.34-8.84-35.41-3.39-67.27-3.39-67.27,0,0,19.79,25.56,28.63,60.97,5.37,21.52,5.46,41.71,4.71,54.25,5.67-10.2,11.61-20.34,17.85-30.4,2.94-12.21,8.93-31.54,20.39-50.59,18.81-31.28,45.21-49.93,45.21-49.93,0,0-4.1,32.06-22.91,63.34-11.33,18.85-25.41,33.1-34.82,41.46-6.45,10.39-12.59,20.89-18.44,31.45,10.9-4.69,32.13-12.43,57.07-14.34,36.39-2.78,66.89,7.94,66.89,7.94,0,0-28.51,15.22-64.91,18-27.64,2.11-51.86-3.56-61.92-6.41-8,14.69-15.41,29.46-22.31,44.19,10.88-1.41,34.98-3.33,61.24,2.46,35.65,7.85,61.74,26.92,61.74,26.92,0,0-31.69,6.34-67.34-1.51-27.08-5.97-48.64-18.4-57.44-24.03-10.36,22.38-19.49,44.63-27.55,66.28,10.86-2.37,34.49-6.3,60.9-2.89,36.2,4.67,63.88,21.36,63.88,21.36,0,0-31.01,9.11-67.21,4.44-27.26-3.52-49.69-13.85-59.1-18.74-7.85,21.38-14.64,42.14-20.5,61.83,10.91-2.78,34.19-7.43,60.43-5,36.34,3.36,64.61,19.04,64.61,19.04,0,0-30.66,10.23-67.01,6.86-27.02-2.5-49.57-11.81-59.36-16.42-6.81,23.24-12.33,44.92-16.74,64.23-.22.97-.44,1.93-.65,2.89,7.23-1.19,34.89-4.9,65.49,1.84,35.65,7.85,61.74,26.92,61.74,26.92,0,0-31.69,6.34-67.34-1.51-30.61-6.74-54.16-21.75-60.21-25.85-17.8,79.29-21.46,135.66-21.5,136.23l-8.93-.55c.04-.57,3.64-56.33,21.1-134.95-10.99.78-35.09,1.29-60.89-5.96-35.14-9.88-60.1-30.41-60.1-30.41,0,0,32.01-4.51,67.14,5.36Z"/><path class="cls-12" d="m185.46,950.03c-1.85,20.42-18.11,35.64-18.11,35.64,0,0-13.27-17.89-11.42-38.32,1.85-20.42,18.11-35.64,18.11-35.64,0,0,13.27,17.89,11.42,38.32Z"/><path class="cls-12" d="m251.06,1015.21c-5.21,19.83-23.77,32.15-23.77,32.15,0,0-10.12-19.84-4.91-39.68,5.21-19.83,23.77-32.15,23.77-32.15,0,0,10.12,19.84,4.91,39.68Z"/><path class="cls-12" d="m90.46,921.3c18.04,9.75,25.61,30.7,25.61,30.7,0,0-21.67,5.13-39.71-4.62-18.04-9.75-25.61-30.7-25.61-30.7,0,0,21.67-5.13,39.71,4.62Z"/><path class="cls-12" d="m128.59,983.14c19.59-6.06,39.85,3.2,39.85,3.2,0,0-11.51,19.07-31.1,25.13-19.59,6.06-39.85-3.2-39.85-3.2,0,0,11.51-19.07,31.1-25.13Z"/><path class="cls-12" d="m187.13,1043.77c19.59-6.06,39.85,3.2,39.85,3.2,0,0-11.51,19.07-31.1,25.13-19.59,6.06-39.85-3.2-39.85-3.2,0,0,11.51-19.07,31.1-25.13Z"/><path class="cls-12" d="m313.27,1189.62l-3.92,1.44c-.17-.45-17.12-46.05-51.13-98.76-19.95-30.92-41.78-58.21-64.88-81.09-28.83-28.56-59.73-50.31-91.84-64.65l1.7-3.81c32.59,14.55,63.92,36.61,93.12,65.54,23.32,23.11,45.35,50.65,65.47,81.84,34.24,53.08,51.32,99.04,51.49,99.5Z"/><path class="cls-12" d="m382.07,874.48c-11.52,23.12-37.58,33.53-37.58,33.53,0,0-7.37-27.07,4.15-50.19,11.52-23.12,37.58-33.53,37.58-33.53,0,0,7.37,27.07-4.15,50.19Z"/><path class="cls-12" d="m429.18,981.02c-15.2,20.89-42.62,26.83-42.62,26.83,0,0-2.78-27.92,12.42-48.81s42.62-26.83,42.62-26.83c0,0,2.78,27.92-12.42,48.81Z"/><path class="cls-12" d="m283.76,797.25c16.7,19.71,15.99,47.76,15.99,47.76,0,0-27.78-3.91-44.48-23.62-16.7-19.71-15.99-47.76-15.99-47.76,0,0,27.78,3.91,44.48,23.62Z"/><path class="cls-12" d="m300.17,887.28c25.76,1.87,45.3,22.01,45.3,22.01,0,0-22.24,17.11-48,15.24-25.76-1.87-45.3-22.01-45.3-22.01,0,0,22.24-17.11,48-15.24Z"/><path class="cls-12" d="m341.09,985.24c25.76,1.87,45.3,22.01,45.3,22.01,0,0-22.24,17.11-48,15.24-25.76-1.87-45.3-22.01-45.3-22.01,0,0,22.24-17.11,48-15.24Z"/><path class="cls-12" d="m422.28,1214.16l-5.26-.1c.01-.61,1-61.88-14.75-139.31-9.24-45.42-22.36-87.44-38.98-124.88-20.74-46.72-47.03-86.4-78.14-117.94l3.75-3.69c31.57,32.01,58.23,72.24,79.24,119.57,16.78,37.8,30.01,80.2,39.33,126.02,15.85,77.97,14.85,139.73,14.83,140.34Z"/><path class="cls-1" d="m636.54,135.51c45.13,0,83.19,30.27,94.99,71.61h-189.97c11.8-41.34,49.86-71.61,94.99-71.61Z"/><path class="cls-1" d="m173.55,101.64c66.48,0,122.54,44.59,139.92,105.49H33.63c17.38-60.9,73.45-105.49,139.92-105.49Z"/><path class="cls-1" d="m607.8,207.12c-21.46-74.24-106.48-129.7-208.11-129.7s-186.66,55.45-208.11,129.7h416.23Z"/><path class="cls-19" d="m422.22,178.9c32.06,0,59.1,21.5,67.48,50.87h-134.96c8.38-29.37,35.42-50.87,67.48-50.87Z"/><path class="cls-19" d="m501.19,194.67c22.13,0,40.78,14.84,46.57,35.11h-93.14c5.78-20.27,24.44-35.11,46.57-35.11Z"/><path class="cls-19" d="m400.81,229.77c-9.06-31.36-44.98-54.79-87.92-54.79s-78.85,23.43-87.92,54.79h175.83Z"/><path class="cls-8" d="m2242.52,1102.91c82.46,0,152.01,55.31,173.57,130.85h-347.13c21.56-75.54,91.1-130.85,173.57-130.85Z"/><path class="cls-8" d="m2445.64,1143.46c56.91,0,104.9,38.17,119.78,90.3h-239.55c14.88-52.13,62.87-90.3,119.78-90.3Z"/><path class="cls-8" d="m2187.47,1233.75c-23.31-80.67-115.7-140.92-226.13-140.92s-202.81,60.25-226.13,140.92h452.25Z"/><path class="cls-12" d="m270.89,1126.59c-69.18,0-127.52,46.4-145.61,109.77h291.22c-18.09-63.37-76.43-109.77-145.61-109.77Z"/><path class="cls-12" d="m100.48,1160.61c-47.74,0-88,32.02-100.48,75.75h200.97c-12.48-43.73-52.74-75.75-100.48-75.75Z"/><path class="cls-12" d="m317.07,1236.36c19.56-67.68,97.06-118.22,189.7-118.22s170.15,50.55,189.7,118.22h-379.41Z"/><path class="cls-3" d="m2160.17,1224.9c16.98,0,31.29,11.39,35.73,26.94h-71.46c4.44-15.55,18.76-26.94,35.73-26.94Z"/><path class="cls-3" d="m1986,1212.16c25.01,0,46.1,16.77,52.64,39.68h-105.27c6.54-22.91,27.63-39.68,52.64-39.68Z"/><path class="cls-3" d="m2149.36,1251.84c-8.07-27.93-40.06-48.79-78.29-48.79s-70.22,20.86-78.29,48.79h156.57Z"/><path class="cls-5" d="m1646.13,1200.19c-25,0-46.08,16.76-52.61,39.66h105.22c-6.54-22.9-27.62-39.66-52.61-39.66Z"/><path class="cls-5" d="m1584.56,1212.48c-17.25,0-31.8,11.57-36.31,27.37h72.61c-4.51-15.8-19.06-27.37-36.31-27.37Z"/><path class="cls-5" d="m1662.82,1239.85c7.07-24.45,35.07-42.72,68.54-42.72s61.48,18.26,68.54,42.72h-137.09Z"/><path class="cls-27" d="m390.85,1205.58c-27.24,0-50.21,18.27-57.34,43.23h114.67c-7.12-24.96-30.1-43.23-57.34-43.23Z"/><path class="cls-27" d="m323.75,1218.97c-18.8,0-34.65,12.61-39.57,29.83h79.14c-4.91-17.22-20.77-29.83-39.57-29.83Z"/><path class="cls-27" d="m409.04,1248.8c7.7-26.65,38.22-46.55,74.7-46.55s67,19.9,74.7,46.55h-149.4Z"/><path class="cls-23" d="m867,1211.09c-20.61,0-37.99,13.82-43.38,32.7h86.76c-5.39-18.88-22.77-32.7-43.38-32.7Z"/><path class="cls-23" d="m816.24,1221.23c-14.22,0-26.22,9.54-29.94,22.57h59.87c-3.72-13.03-15.71-22.57-29.94-22.57Z"/><path class="cls-23" d="m880.76,1243.8c5.83-20.16,28.92-35.22,56.52-35.22s50.69,15.06,56.52,35.22h-113.04Z"/><path class="cls-23" d="m829,1142.99c2.8-1.37,6.18-.22,7.55,2.57.62,1.25.72,2.62.4,3.88,5.36,3.93,10.4,8.2,15.09,12.61-1.54-5.09-3.44-12.79-3.8-20.59-1.48-.42-2.79-1.44-3.52-2.93-1.37-2.8-.22-6.18,2.57-7.55,2.8-1.37,6.18-.22,7.55,2.57s.22,6.18-2.57,7.55c-.32.16-.65.28-.99.37.58,11.68,4.85,23.42,5.53,25.23,10.06,10.14,18.27,20.61,24.23,29.01,10.71,15.1,16.69,27,16.75,27.12l-2.72,1.36c-.06-.12-5.93-11.8-16.51-26.72-3.18-4.48-7.01-9.57-11.43-14.87-2.18-.22-10.38-.76-20.94,2.12.23,2.28-.94,4.56-3.12,5.63-2.8,1.37-6.18.22-7.55-2.57-1.37-2.8-.22-6.18,2.57-7.55,2.46-1.21,5.38-.46,6.98,1.65,8.36-2.33,15.3-2.61,19.32-2.5-8.06-9.32-17.83-19.07-28.99-27.29-.42.41-.9.75-1.45,1.02-2.8,1.37-6.18.22-7.55-2.57-1.37-2.8-.22-6.18,2.57-7.55Z"/><path class="cls-23" d="m901.93,1174.5c-1.96-.97-9.45-4.37-20.34-5.39-.59,2.21-2.49,3.94-4.9,4.17-3.1.3-5.86-1.97-6.16-5.07-.3-3.1,1.97-5.86,5.07-6.16,2.73-.27,5.2,1.47,5.95,4,8.64.76,15.24,2.94,18.96,4.47-4.26-11.56-9.97-24.12-17.52-35.75-.53.23-1.11.39-1.72.45-3.1.3-5.86-1.97-6.16-5.07-.3-3.1,1.97-5.86,5.07-6.16,3.1-.3,5.86,1.97,6.16,5.07.14,1.39-.25,2.71-.99,3.77,3.63,5.56,6.84,11.34,9.68,17.11.35-5.31,1.28-13.18,3.7-20.61-1.24-.92-2.1-2.33-2.26-3.98-.3-3.1,1.97-5.86,5.07-6.16,3.1-.3,5.86,1.97,6.16,5.07.3,3.1-1.97,5.86-5.07,6.16-.36.03-.71.03-1.05,0-3.58,11.14-3.71,23.62-3.71,25.56,5.84,13.03,9.84,25.73,12.46,35.69,4.71,17.91,6.11,31.15,6.13,31.28l-3.03.31c-.01-.13-1.39-13.14-6.04-30.82-1.4-5.32-3.19-11.42-5.46-17.94Z"/><path class="cls-6" d="m1012.26,5.38c44,0,81.11,29.51,92.61,69.82h-185.23c11.5-40.31,48.61-69.82,92.61-69.82Z"/><path class="cls-6" d="m1120.64,27.01c30.36,0,55.97,20.37,63.91,48.18h-127.82c7.94-27.82,33.55-48.18,63.91-48.18Z"/><path class="cls-6" d="m982.89,75.19C970.45,32.15,921.15,0,862.23,0s-108.22,32.15-120.66,75.19h241.32Z"/><polygon class="cls-34" points="1215.3 836.69 1088.45 1237.11 1342.15 1237.11 1215.3 836.69"/><circle class="cls-23" cx="1215.3" cy="836.69" r="49.31" transform="translate(-227.68 528.76) rotate(-22.5)"/><path class="cls-13" d="m993.72,59.82c17.32,0,31.93,11.62,36.46,27.48h-72.91c4.53-15.87,19.14-27.48,36.46-27.48Z"/><path class="cls-13" d="m1036.38,68.34c11.95,0,22.03,8.02,25.16,18.97h-50.32c3.13-10.95,13.21-18.97,25.16-18.97Z"/><path class="cls-13" d="m982.16,87.31c-4.9-16.94-24.3-29.6-47.5-29.6s-42.6,12.66-47.5,29.6h94.99Z"/><path class="cls-1" d="m2353.86,393.12c34.42,0,63.45,23.08,72.45,54.62h-144.89c9-31.53,38.03-54.62,72.45-54.62Z"/><path class="cls-1" d="m2000.75,367.28c50.7,0,93.46,34.01,106.72,80.45h-213.44c13.26-46.45,56.02-80.45,106.72-80.45Z"/><path class="cls-1" d="m2331.94,447.73c-16.36-56.62-81.21-98.92-158.73-98.92s-142.36,42.29-158.73,98.92h317.45Z"/><path class="cls-19" d="m2103.76,429.68c-25.53,0-47.05,17.12-53.73,40.5h107.45c-6.67-23.38-28.2-40.5-53.73-40.5Z"/><path class="cls-19" d="m2040.89,442.23c-17.62,0-32.47,11.81-37.08,27.95h74.15c-4.61-16.14-19.46-27.95-37.08-27.95Z"/><path class="cls-19" d="m2120.8,470.18c7.22-24.97,35.81-43.62,70-43.62s62.78,18.65,70,43.62h-139.99Z"/><rect class="cls-23" x="512.05" y="772.37" width="1406.5" height="30.02"/><path class="cls-24" d="m534.64,342.89l-99.93-39.73-18.32,7.89-292.98,126.26,91.77,212.94,178.16-76.78,133.13-57.37,39.75-99.93-31.58-73.28Zm-20.14,66.86c-6.86,2.96-14.82-.21-17.78-7.07-2.96-6.87.21-14.83,7.07-17.79s14.83.21,17.79,7.07c2.95,6.87-.21,14.83-7.08,17.79Z"/><path class="cls-4" d="m410.83,536.65c-5.2,12.82-11.06,25.11-17.49,36.82l-178.16,76.78-91.77-212.94,292.98-126.26c26.53,63.5,26.71,146.02-5.56,225.6Z"/><path class="cls-1" d="m357.77,517.57l6.18,14.34-15.21,6.55-5.96-13.83c-13.06,4.56-26.71,6-36.29,4l.11-22.42c10.14,1.91,22.85.72,33.11-3.7,10.39-4.48,13.17-9.2,11.27-13.59-6.18-14.34-52.1,17.86-66.58-15.74-6.13-14.22-1.29-30.55,18.12-41.98l-6.13-14.22,15.21-6.55,6.01,13.96c9.71-3.27,20.08-4.67,29.01-3.46l.46,22.33c-10.5-.99-19.86.28-27.59,3.62-10.52,4.53-12.76,9.79-10.81,14.31,5.96,13.83,51.81-18.19,66.18,15.15,5.9,13.7,1.4,29.74-17.09,41.23Z"/><path class="cls-15" d="m698.31,476.71s21.12-94.02,63.42-141.64c70.49-79.34,197.08-106.28,209.26-81.67,30.58,61.83-223.13,176.49-298.46,80.34-69.83-89.14-157.98-81.55-164.08,68.36"/><polygon class="cls-35" points="986.95 562.15 907.11 451.52 628.31 451.52 628.31 562.88 986.95 562.88 986.95 562.15"/><rect class="cls-11" x="628.31" y="562.88" width="358.64" height="209.7"/><polygon class="cls-21" points="708.15 772.59 548.47 772.59 548.47 562.15 628.31 451.52 708.15 562.15 708.15 772.59"/><rect class="cls-30" x="751.54" y="610.06" width="72.83" height="101.04"/><rect class="cls-28" x="759.69" y="618.57" width="24.51" height="38.47"/><rect class="cls-28" x="791.71" y="618.57" width="24.51" height="38.47"/><rect class="cls-28" x="759.69" y="664.12" width="24.51" height="38.47"/><rect class="cls-28" x="791.71" y="664.12" width="24.51" height="38.47"/><rect class="cls-30" x="605.04" y="523.32" width="44.74" height="62.08"/><rect class="cls-2" x="610.05" y="528.55" width="15.06" height="23.64"/><rect class="cls-2" x="629.72" y="528.55" width="15.06" height="23.64"/><rect class="cls-2" x="610.05" y="556.53" width="15.06" height="23.64"/><rect class="cls-2" x="629.72" y="556.53" width="15.06" height="23.64"/><rect class="cls-30" x="870.4" y="610.06" width="72.83" height="101.04"/><rect class="cls-28" x="878.56" y="618.57" width="24.51" height="38.47"/><rect class="cls-28" x="910.58" y="618.57" width="24.51" height="38.47"/><rect class="cls-28" x="878.56" y="664.12" width="24.51" height="38.47"/><rect class="cls-28" x="910.58" y="664.12" width="24.51" height="38.47"/><rect class="cls-30" x="558.44" y="758.22" width="139.12" height="14.36"/><rect class="cls-25" x="574.95" y="743.85" width="106.1" height="14.36"/><rect class="cls-1" x="585.44" y="606.05" width="85.12" height="137.81"/><rect class="cls-31" x="597.69" y="617.42" width="60.63" height="29.44"/><rect class="cls-31" x="597.69" y="705.51" width="60.63" height="29.44"/><rect class="cls-31" x="597.69" y="654.89" width="60.63" height="41.71"/><path class="cls-23" d="m663.83,679.4h-14.99c-1.01,0-1.83-.82-1.83-1.83h0c0-1.01.82-1.83,1.83-1.83h14.99c1.01,0,1.83.82,1.83,1.83h0c0,1.01-.82,1.83-1.83,1.83Z"/><g class="cls-26"><line class="cls-18" x1="901.94" y1="446.35" x2="993.77" y2="571.66"/><line class="cls-18" x1="882.13" y1="446.35" x2="973.95" y2="571.66"/><line class="cls-18" x1="862.31" y1="446.35" x2="954.14" y2="571.66"/><line class="cls-18" x1="842.5" y1="446.35" x2="934.32" y2="571.66"/><line class="cls-18" x1="822.69" y1="446.35" x2="914.51" y2="571.66"/><line class="cls-18" x1="802.87" y1="446.35" x2="894.7" y2="571.66"/><line class="cls-18" x1="783.06" y1="446.35" x2="874.88" y2="571.66"/><line class="cls-18" x1="763.24" y1="446.35" x2="855.07" y2="571.66"/><line class="cls-18" x1="743.43" y1="446.35" x2="835.25" y2="571.66"/><line class="cls-18" x1="723.62" y1="446.35" x2="815.44" y2="571.66"/><line class="cls-18" x1="703.8" y1="446.35" x2="795.63" y2="571.66"/><line class="cls-18" x1="683.99" y1="446.35" x2="775.81" y2="571.66"/><line class="cls-18" x1="664.17" y1="446.35" x2="756" y2="571.66"/><line class="cls-18" x1="644.36" y1="446.35" x2="736.18" y2="571.66"/><line class="cls-18" x1="624.55" y1="446.35" x2="716.37" y2="571.66"/></g><path class="cls-17" d="m557.9,461.06c-5.88,5-16.23,2.5-29.88-13.53-13.66-16.03-19.57-44.52-19.57-44.52,0,0,27.19,10.37,40.84,26.4,13.66,16.03,14.48,26.65,8.61,31.65Z"/><path class="cls-15" d="m462.51,479c-6.58-4.04-6.64-15.9,6.24-36.88,12.88-20.98,40.4-39.11,40.4-39.11,0,0-3.7,32.74-16.58,53.73-12.88,20.98-23.48,26.3-30.06,22.26Z"/><path class="cls-15" d="m508.76,404.16c3.85-7.61,13.39-10.65,21.9-10.17,8.51.48,16.62,3.66,25.01,5.2,16.44,3.01,34.01-.63,47.9-9.93"/><path class="cls-9" d="m1254.06,775.25c17.01-2.24,20.55-10.96,20.83-17.16.12-.41.22-.83.29-1.26.75-5.09-2.86-9.78-7.97-10.37l-142.47-16.18c-2.25-.26-4.29,1.32-4.62,3.55-.11.75-.01,1.48.24,2.14.98,5.22,4.75,9.56,9.93,11.18,26.93,8.46,101.66,31.01,123.78,28.1Z"/><path class="cls-9" d="m1135.67,738.49c-2.24-5.14-4.95-7.79-9.63-8.04-5.13-.27-9.47,3.77-9.56,8.91l-2.59,143.37c-.04,2.26,1.72,4.15,3.98,4.27,2.26.12,4.2-1.58,4.4-3.83l.53-6.17c13.14-97.53,19.43-119.96,12.87-138.51Z"/><path class="cls-24" d="m1256.32,742.59s-120.06-16.55-131.92-15.99c-11.86.56-10.78,17.67-11.41,25.15-.63,7.48-1.21,106.27-1.21,106.27l17.25-4.76s16.18-87.16,11.85-99.57c0,0,114.72,34.09,123.71,26.43l9.73-13.39-18-24.15Z"/><path class="cls-9" d="m1121.75,877.64s8,7.71,6.68,9.18c-1.32,1.48-38.52,24.86-42.17,24.78-3.66-.08,2.96-7.46,2.96-7.46,0,0,15.18-15.15,24.91-22.15,0,0,7.31-4.89,7.63-4.35Z"/><path class="cls-23" d="m1100.07,892.37c4.94-.52,12.15-3.13,19.58-7.36,2.38-1.35,4.59-2.78,6.61-4.21,2.41,3.08,4.87,6.88,3.34,8-2.69,1.97-43.43,26.88-44.77,25.09-2.65-3.52,6.41-13.49,15.24-21.52Z"/><path class="cls-9" d="m1200.8,865.07c-.26-5.6-1.84-9.05-6.12-10.95-4.7-2.09-10.19.14-12.12,4.91l-53.67,132.97c-.85,2.1.12,4.49,2.19,5.4,2.07.92,4.49.03,5.48-2l2.71-5.57c47.14-86.39,61.03-105.08,61.53-124.75Z"/><path class="cls-9" d="m1299.19,770.56c7.55-15.41,2.25-23.19-2.76-26.84-.27-.33-.56-.64-.89-.94-3.82-3.44-9.73-3.04-13.04.89l-92.36,109.68c-1.46,1.73-1.28,4.3.4,5.82.56.51,1.22.83,1.91.98,4.89,2.07,10.59,1.33,14.81-2.07,21.96-17.75,82.11-67.48,91.93-87.52Z"/><path class="cls-9" d="m1140.21,989.32s-2.87,10.73-4.81,10.29c-1.93-.44-40.38-21.7-42.08-24.93-1.7-3.24,7.97-1.02,7.97-1.02,0,0,20.6,5.96,31.43,11.09,0,0,7.82,4.04,7.49,4.57Z"/><path class="cls-23" d="m1116.83,977.47c2.84,4.07,8.61,9.12,15.91,13.57,2.33,1.42,4.65,2.68,6.88,3.75-1.53,3.6-3.67,7.59-5.38,6.79-3.03-1.4-44.52-25.02-43.61-27.05,1.8-4.02,14.91-.91,26.2,2.93Z"/><path class="cls-24" d="m1131.64,966.36l20.68,8.84s45.44-57.24,54.81-111.16c0,0,71.23-51.46,96.33-90.27,25.1-38.8-36.28-60.96-36.28-60.96l-13.74,63.85s-69.08,68.03-71.49,78.95c-2.42,10.92-50.31,110.75-50.31,110.75Z"/><path class="cls-32" d="m1262.91,591.1s-7.22,10.27-12.81,35.63c-5.59,25.37-3.41,78.44-10.96,95.93,0,0,9.11,6.06,19.03,8.25l11.23-86.73-6.48-53.09Z"/><path class="cls-32" d="m1275.83,604.56c7.03-9.49-1.79-14.43-1.98-14.67-2.16-2.81-9.05-2.22-12.25.67l-68.08,68.24c-1.2.99.4,3.01,1.35,4.24.32.41.73.71,1.17.9,3.05,2.01,7.87,1.72,11.15-.07,17.07-9.28,59.49-46.98,68.63-59.32Z"/><path class="cls-33" d="m1309.66,765.49c1.76.63,2.14-35.91-1.2-62.19,1.72-22.62-2.52-76.89-7.14-93.44-5.81-20.79-15.7-32.41-33.1-24.76-5.48,2.41-11.1,17.38-13.92,33.42-2.82,16.04-5.91,12.69,2.16,36.61,2.87,8.5-6.99,65.1-11.42,80-1.27,4.28-1.54,7.21-3.85,11.7,3.07,2.35,5.96,4.08,9.36,5.45,23.33,9.37,35.71,4.76,59.1,13.21Z"/><path class="cls-23" d="m1281.97,580.52s20.1-8.48,21.32-25.59c1.65-22.97-23.59-32.83-37.33-24.21-11.47,7.19-9.5,16.96-8.12,19.4,1.38,2.44,24.12,30.4,24.12,30.4Z"/><path class="cls-9" d="m1285.32,559.51l-17.43-1.83c-.25,2.39-2.24,25.11-1.41,33.69.62,2.64,4.96,3.89,9.69,2.77,4.25-1,7.35-3.56,7.48-5.99h.02c-.49-5.15.77-20.31,1.64-28.65Z"/><path class="cls-9" d="m1284.75,562.64c-2.83,13.76-14.71,22.94-23.12,21.21-8.41-1.73-10.16-13.72-7.33-27.48,2.83-13.76,11.09-19.36,19.5-17.63,8.41,1.73,13.78,10.14,10.95,23.9Z"/><path class="cls-23" d="m1263.6,537.17s3.27,18.52,20.35,24.97c8.8,3.32,11.81-10.58,11.81-10.58l-8.59-13.3s-7.06-5.69-12.49-5.17c-.46.04-11.08,4.07-11.08,4.07Z"/><path class="cls-23" d="m1257.22,547.71s15.44-5.42,17.77-10.77-5.58-4.75-5.58-4.75c0,0-10.23,3.65-12.19,15.51Z"/><path class="cls-23" d="m1300.09,544.55s-22.36-13.03-11.2-33.78c11.17-20.75,35.76-16.71,43.14-2.73,8.19,15.52,1.33,26.75-4.86,32.37-6.19,5.62-18.33,7.85-27.08,4.13Z"/><path class="cls-9" d="m1291.48,567.8c-1.41,3.19-6.39,5.87-8.7,4.85-2.31-1.02-1.74-3.86-.33-7.06s4.61-5.35,6.92-4.32c2.31,1.02,3.52,3.34,2.11,6.53Z"/><path class="cls-32" d="m1285.8,582.99s3.8,6.36-2.81,14.09-10.13,9.57-10.13,9.57c0,0,9.15,35.99,4.9,53.04-4.26,17.04-10.94,64.03-9.54,83.77,0,0,42.79,13.36,45.73,10.49,0,0-5.53-96.19-4.66-103.83.87-7.64-6.2-56.61-23.48-67.14Z"/><path class="cls-9" d="m1431.11,557.32c-2.04-2.71-2.68-6.21-1.76-9.47,2.37-8.36,7.38-23.98,12.24-26.23,6.68-3.09,3.11,24.68-9.33,37.24l-1.16-1.54Z"/><path class="cls-32" d="m1294.37,592.88c-10.77,1.11-9.08,10.94-9.14,11.24-.71,3.47,3.73,8.19,7.63,8.63l87.68,5.02c1.4.23,1.88-2.31,2.19-3.83.1-.51.08-1.01-.05-1.47-.37-3.6-3.4-6.98-6.56-8.22-16.49-6.47-67.74-12.81-81.74-11.37Z"/><path class="cls-32" d="m1428.4,550.9c-16.61,11.36-48.92,41.39-56.04,51.97-5.9,8.78-.49,12.23-.31,12.45,2.08,2.5,8.18,2.58,10.94-.12l51.99-57.28-6.58-7.02Z"/><path class="cls-9" d="m1214.32,580.83c1.98-2.75,2.56-6.26,1.57-9.5-2.54-8.31-7.85-23.83-12.75-25.98-6.74-2.96-2.63,24.74,10.05,37.05l1.13-1.56Z"/><path class="cls-32" d="m1207.6,579c-6.69,18.97-15.03,62.29-14.53,75.04.42,10.57,6.83,10.16,7.1,10.23,3.15.79,8.13-2.75,8.76-6.56l8.13-76.93-9.46-1.78Z"/><polygon class="cls-23" points="1840.9 61.18 1840.9 772.79 1484.74 772.79 1484.74 169.91 1840.9 61.18"/><rect class="cls-3" x="1632.94" y="582.91" width="185.13" height="148.28"/><rect class="cls-28" x="1660.53" y="573.61" width="129.93" height="166.87" transform="translate(2382.55 -1068.45) rotate(90)"/><rect class="cls-3" x="1638.89" y="617.26" width="174.65" height="8.03"/><rect class="cls-3" x="1696.89" y="585.64" width="5.52" height="37.14"/><rect class="cls-3" x="1748.59" y="585.64" width="5.52" height="37.14"/><rect class="cls-3" x="1524.45" y="401.11" width="80.32" height="148.07"/><rect class="cls-3" x="1632.94" y="400.88" width="185.13" height="148.28"/><rect class="cls-28" x="1660.53" y="391.59" width="129.93" height="166.87" transform="translate(2200.53 -1250.47) rotate(90)"/><rect class="cls-3" x="1638.89" y="435.24" width="174.65" height="8.03"/><rect class="cls-3" x="1696.89" y="403.62" width="5.52" height="37.14"/><rect class="cls-3" x="1748.59" y="403.62" width="5.52" height="37.14"/><rect class="cls-28" x="1534" y="410.15" width="61.23" height="28.61"/><rect class="cls-28" x="1534" y="447.79" width="61.23" height="92.18"/><rect class="cls-3" x="1524.45" y="218.5" width="80.32" height="148.07"/><rect class="cls-3" x="1632.94" y="218.27" width="185.13" height="148.28"/><rect class="cls-28" x="1660.53" y="208.98" width="129.93" height="166.87" transform="translate(2017.91 -1433.09) rotate(90)"/><rect class="cls-3" x="1638.89" y="252.63" width="174.65" height="8.03"/><rect class="cls-3" x="1696.89" y="221.01" width="5.52" height="37.14"/><rect class="cls-3" x="1748.59" y="221.01" width="5.52" height="37.14"/><rect class="cls-28" x="1534" y="227.53" width="61.23" height="28.61"/><rect class="cls-28" x="1534" y="265.17" width="61.23" height="92.18"/><rect class="cls-22" x="1495.04" y="758.43" width="139.12" height="14.36"/><rect class="cls-14" x="1511.55" y="744.07" width="106.1" height="14.36"/><rect class="cls-1" x="1522.05" y="606.26" width="85.12" height="137.81"/><rect class="cls-31" x="1534.29" y="617.63" width="60.63" height="29.44"/><rect class="cls-31" x="1534.29" y="705.72" width="60.63" height="29.44"/><rect class="cls-31" x="1534.29" y="655.1" width="60.63" height="41.71"/><path class="cls-23" d="m1600.44,679.61h-14.99c-1.01,0-1.83-.82-1.83-1.83h0c0-1.01.82-1.83,1.83-1.83h14.99c1.01,0,1.83.82,1.83,1.83h0c0,1.01-.82,1.83-1.83,1.83Z"/><circle class="cls-20" cx="1393.62" cy="192.23" r="185.47" transform="translate(272.25 1041.74) rotate(-45)"/><path class="cls-23" d="m1242.02,413.52c0,32.87-20.09,61.04-48.66,72.92-3.02,1.26-6.14,2.33-9.34,3.21-6.67,1.83-13.69,2.81-20.93,2.81-8.2,0-16.11-1.25-23.55-3.57-27.58-8.61-48.65-31.94-54.04-60.78-.88-4.73-1.34-9.6-1.34-14.58,0-43.6,35.34-78.94,78.94-78.94s78.94,35.34,78.94,78.94Z"/><path class="cls-23" d="m1170.73,464.38s2.12,32.5,47.09,41.47c0,0-32.5-13.46-32.39-43.43l-14.71,1.96Z"/><path class="cls-20" d="m1140.94,414.99c0-2.17,1.76-3.93,3.93-3.93s3.93,1.76,3.93,3.93-1.76,3.93-3.93,3.93-3.93-1.76-3.93-3.93Z"/><circle class="cls-20" cx="1163.08" cy="414.99" r="3.93"/><circle class="cls-20" cx="1181.29" cy="414.99" r="3.93"/><path class="cls-7" d="m1483.42,181.84c23.71-19.66,27-54.83,7.33-78.54-19.66-23.71-54.83-27-78.54-7.33-23.71,19.66-27,54.83-7.33,78.54,19.66,23.71,54.83,27,78.54,7.33Zm-18.46-71.72c4.77-3.95,11.84-3.29,15.79,1.47,3.95,4.77,3.29,11.84-1.47,15.79-4.77,3.95-11.84,3.29-15.79-1.47-3.95-4.77-3.29-11.84,1.47-15.79Z"/><rect class="cls-7" x="1391.05" y="154.62" width="26.49" height="40.73" rx="1.79" ry="1.79" transform="translate(211.61 936.68) rotate(-39.67)"/><path class="cls-7" d="m1291.85,285.57l14.18-11.76-1.86-2.24c-1.89-2.28-1.57-5.66.7-7.54,2.28-1.89,5.66-1.57,7.54.7l1.86,2.24,19.9-16.5-1.86-2.24c-1.89-2.28-1.57-5.66.7-7.54,2.28-1.89,5.66-1.57,7.54.7l1.86,2.24,6.84-5.67-1.86-2.24c-1.89-2.28-1.57-5.66.7-7.54,2.28-1.89,5.66-1.57,7.54.7l1.86,2.24,15.08-12.51-1.86-2.24c-1.89-2.28-1.57-5.66.7-7.54,2.28-1.89,5.66-1.57,7.54.7l1.86,2.24,42.17-34.97-17.04-20.55-131.17,108.77-12.74,17.89,29.78,2.66Z"/><path class="cls-29" d="m1264.44,283.12l118.46-98.23c1.61-1.34,4.02-1.11,5.36.5.67.81.96,1.82.86,2.78-.09.98-.55,1.91-1.36,2.58l-112.56,93.34-10.76-.97Z"/><path class="cls-1" d="m1267.82,156.26c16.53,0,29.93-13.4,29.93-29.93,0,16.53,13.4,29.93,29.93,29.93-16.53,0-29.93,13.4-29.93,29.93,0-16.53-13.4-29.93-29.93-29.93Z"/><path class="cls-1" d="m988.9,487.1c16.53,0,29.93-13.4,29.93-29.93,0,16.53,13.4,29.93,29.93,29.93-16.53,0-29.93,13.4-29.93,29.93,0-16.53-13.4-29.93-29.93-29.93Z"/><path class="cls-1" d="m1455.51,244.6c9.17,0,16.61-7.44,16.61-16.61,0,9.17,7.44,16.61,16.61,16.61-9.17,0-16.61,7.44-16.61,16.61,0-9.17-7.44-16.61-16.61-16.61Z"/><path class="cls-1" d="m383.07,401.11c9.17,0,16.61-7.44,16.61-16.61,0,9.17,7.44,16.61,16.61,16.61-9.17,0-16.61,7.44-16.61,16.61,0-9.17-7.44-16.61-16.61-16.61Z"/><path class="cls-1" d="m1666.92,681.12c9.17,0,16.61-7.44,16.61-16.61,0,9.17,7.44,16.61,16.61,16.61-9.17,0-16.61,7.44-16.61,16.61,0-9.17-7.44-16.61-16.61-16.61Z"/><path class="cls-1" d="m829.56,734.95c9.17,0,16.61-7.44,16.61-16.61,0,9.17,7.44,16.61,16.61,16.61-9.17,0-16.61,7.44-16.61,16.61,0-9.17-7.44-16.61-16.61-16.61Z"/></g></svg>