<?xml version="1.0" encoding="UTF-8"?><svg id="Layer_2" xmlns="http://www.w3.org/2000/svg" viewBox="0 0 115.37 140.78"><defs><style>.cls-1{fill:#fff;}.cls-2{fill:#000502;}.cls-3{fill:#00272e;}.cls-4{fill:#87be4b;}.cls-5{fill:#3b9d81;}.cls-6{fill:#16162b;}.cls-7{fill:#fab903;}</style></defs><g id="Layer_1-2"><rect class="cls-6" y="139.63" width="115.37" height="1.15"/><path d="m93.8,44.68c-1.3,4.38-.45,6.19-.41,6.27l.14-.07s-.85-1.83.42-6.15l-.15-.05Z"/><path d="m91.44,46.91l-.15-.04c-1.2,4.29.53,6.61.54,6.63l.13-.1s-1.69-2.27-.52-6.49Z"/><path d="m75.11,53.19l.1-.06c1.7,2.94.87,4.98.86,5l-.11-.05s.82-2-.85-4.89Z"/><path class="cls-4" d="m77.46,42.42h0s-.03,0-.05,0h.05Z"/><path class="cls-4" d="m82.66,44.45c-.89.16-1.76.57-2.37,1.25l-.11.18c.43-.33,1.02-.32,1.56-.35,1.26-.05,2.5-.38,3.62-.96-.89-.21-1.81-.29-2.71-.13Z"/><path class="cls-4" d="m80.1,46c.05-.01.1-.02.15-.03l-.06-.09s-.07.08-.09.12Z"/><path class="cls-4" d="m77.66,48.1c-.46.71-.86,1.47-1.42,2.11.63-.12,1.3-.26,1.8-.67.22-.18.4-.4.57-.62.51-.64,1.04-1.3,1.23-2.1.07-.28.1-.59.26-.82-.24.05-.48.15-.7.27-.74.42-1.28,1.11-1.75,1.82Z"/><path class="cls-3" d="m97,132.95h.08"/><path d="m98.51,133.23l.07.04"/><path d="m100.16,131h.08"/><path d="m99.29,132.01l.07-.03"/><path d="m98.52,133.27l.06-.05"/><path class="cls-4" d="m95,130.5l1.86,1.01"/><path class="cls-3" d="m96.86,131.48v.05s.2-.02.48-.11"/><path class="cls-3" d="m96.28,126.11c-.92.96-1.9,2.49-1.3,4.39l.05-.02c-.59-1.87.37-3.39,1.29-4.34"/><path d="m96.02,130.37h.05"/><path d="m96.41,129.06v.05"/><path d="m96.15,129.94l-.02.05"/><path d="m96.35,126.53h-.05"/><path d="m95.74,127.36c.04,1.54.5,2.04.52,2.06l.04-.04s-.46-.5-.51-2.02h-.05Z"/><path d="m95.21,128.32h-.05c.06,1.5.86,2.07.87,2.07l.03-.04s-.78-.55-.84-2.03Z"/><path d="m104.22,139.24l-1.2,1.31c-10.88-9.94-15.24-23.19-16.96-28.69l-.02-.08c-.74-2.36-.85-4.67-.97-6.91-.16-3.1-.32-6.3-2.1-9.94l1.6-.78c1.94,3.97,2.11,7.35,2.28,10.63.11,2.22.22,4.32.89,6.47l.02.08"/><path class="cls-4" d="m81.46,95.19l4.83-1.58s0,0,0,.01c.17.81-.29,1.62-1.07,1.87l-1.79.58c-.79.26-1.63-.13-1.97-.88h0Z"/><path class="cls-3" d="m79.67,93.84l7.28-2.37s.65,1.99.65,2c.09.28-1.47,1.03-3.47,1.68-2.01.66-3.71.96-3.8.69,0,0-.66-2-.66-2Z"/><path class="cls-7" d="m83.14,92.13c2.01-.65,3.71-.96,3.8-.69.09.28-1.47,1.03-3.48,1.69-2.01.65-3.71.96-3.8.69-.09-.28,1.47-1.03,3.47-1.69Z"/><path class="cls-4" d="m82.13,89.05l5.09-1.66s-1.05,1.31-1.14,3.78c0,.28-.2.52-.47.61l-4.68,1.53c-.28.09-.58-.01-.76-.24-1.52-1.91-3.13-2.35-3.13-2.35l5.09-1.66Z"/><path class="cls-7" d="m74.1,85.06l12.17-3.97s1.77,5.44,1.78,5.47c.24.75-2.28,2.25-5.64,3.35-3.36,1.1-6.28,1.37-6.53.62,0-.03-1.79-5.46-1.79-5.46Z"/><path d="m79.73,81.67c3.36-1.09,6.28-1.37,6.52-.62.25.75-2.28,2.25-5.64,3.35-3.36,1.1-6.28,1.37-6.52.62-.25-.75,2.28-2.25,5.64-3.35Z"/><path class="cls-4" d="m75.19,77.96c.44-.14.92.1,1.06.54l1.76,5.41-1.6.52-1.77-5.41c-.14-.44.1-.92.54-1.06Z"/><path class="cls-4" d="m80.81,76.12c.44-.14.92.1,1.06.54l1.77,5.41-1.6.52-1.77-5.41c-.14-.44.1-.92.54-1.06Z"/><path class="cls-1" d="m64.43,110.39c2.49-.54,11.56-2.56,12.25-3.44.41-.52,1.59-2.56,2.73-4.54.87-1.51,1.69-2.93,2.15-3.65.36-.57.82-.83,1.44-.83.76,0,1.67.4,2.55.78.63.28,1.28.56,1.89.7.7.16,1.48.18,2.17.2.93.02,1.81.04,1.87.42.03.22-.03.41-.19.6-.47.55-1.71.91-3.08.91-.71,0-1.4-.1-2-.28-.66-.2-1.21-.3-1.64-.3-.47,0-.81.12-1,.36-.22.27-.17.56-.16.59l.05.26.26-.02s.38-.03.92-.03c1.27,0,4.24.2,4.42,2.05v.12s.1.08.1.08c.06.05,1.56,1.35.9,2.82-.06.14-.02.23.17.64.35.76,1.28,2.77.81,3.87-.14.32-.39.54-.77.67-.14.05-.36.14-.62.25-.75.32-1.88.81-2.61.81-.15,0-.34-.02-.43-.13-.07-.08-.1-.23-.08-.43.06-.62,1.01-1.07,1.7-1.41.54-.26.86-.41.94-.68l.04-.12-.08-.19c-.09-.14-.15-.34-.2-.49-.09-.27-.17-.52-.44-.52h-.14l-.15.15c-3.24,4.14-6.04,6.24-8.31,6.24-.34,0-.67-.05-.99-.15l-.12-.04-.11.06c-5.63,3.16-10.39,5.39-11.65,5.96l-2.59-11.28Z"/><path d="m83,98.22c.7,0,1.58.38,2.43.76.64.28,1.31.57,1.94.72.73.17,1.52.19,2.22.21.54.01,1.44.03,1.59.18.01.09.01.21-.12.37-.41.48-1.59.81-2.86.81-.68,0-1.34-.09-1.92-.27-.7-.21-1.26-.31-1.72-.31-.56,0-.97.16-1.23.47-.23.28-.26.61-.22.83l.1.51.52-.05s.37-.03.9-.03c1.19,0,3.98.17,4.13,1.79l.02.23.18.15c.06.05,1.39,1.21.83,2.48-.11.26-.03.44.17.87.33.72,1.23,2.65.81,3.63-.11.25-.29.41-.59.51-.15.05-.37.14-.64.26-.68.29-1.83.79-2.49.79-.15,0-.21-.03-.22-.03h0s-.03-.07-.01-.21c.05-.46.98-.91,1.54-1.18.59-.28.97-.47,1.09-.86.06-.19.03-.38-.07-.55-.07-.11-.13-.29-.17-.43-.09-.27-.23-.72-.71-.72-.12,0-.33.03-.51.26-3.97,5.06-6.58,6.12-8.08,6.12-.31,0-.62-.05-.9-.14l-.24-.08-.22.12c-5.22,2.93-9.69,5.06-11.3,5.8l-2.45-10.65c4.48-.97,11.44-2.61,12.13-3.48.42-.53,1.55-2.5,2.75-4.58.87-1.5,1.69-2.92,2.14-3.64.31-.48.68-.7,1.2-.7h0Zm0-.58c-.65,0-1.23.25-1.68.96-1.08,1.68-4.17,7.29-4.86,8.17-.69.88-12.37,3.39-12.37,3.39l2.74,11.91s5.36-2.39,11.99-6.12c.33.1.69.16,1.08.16,1.99,0,4.76-1.54,8.53-6.35.02-.03.04-.04.06-.04.12,0,.17.52.39.87.25.42-2.5.93-2.64,2.22-.07.65.28.88.8.88,1.04,0,2.77-.89,3.32-1.08,2.51-.85-.1-5.19-.04-5.33.75-1.69-.98-3.16-.98-3.16-.19-2.04-3.14-2.31-4.7-2.31-.57,0-.95.04-.95.04,0,0-.12-.61.88-.61.36,0,.86.08,1.56.29.65.2,1.38.29,2.08.29,1.93,0,3.73-.7,3.55-1.85-.16-1-2.49-.44-4.25-.86-1.43-.34-3.12-1.49-4.5-1.49h0Z"/><path d="m88.62,106.51c-1.09.28-2.57.95-2.63.98-.12.05-.17.19-.12.31.04.09.12.14.21.14.03,0,.07,0,.1-.02.01,0,1.51-.68,2.56-.95.89-.23,1.36.45,1.38.48.07.11.21.14.32.07.11-.07.14-.21.07-.32-.22-.34-.91-.93-1.89-.67Z"/><path d="m89.46,104.03s-1.21-.46-2.35-.17c-1.08.28-2.03.54-2.03.54-.12.04-.2.16-.16.29.03.1.12.17.22.17.02,0,.04,0,.06,0,0,0,.94-.26,2.02-.54.99-.26,2.06.14,2.07.15.12.05.25-.01.3-.14.05-.12-.01-.26-.13-.3Z"/><path d="m34.76,53.97c-9.01-2.12-11.32,4.42-11.32,4.42-5.6-4.08-8.03,15.75-3.14,20.64,7.92,7.92,15.45,2.03,19.66-1.14,4.2-3.16.18-5.59.23-7.84.05-2.25,6.03-2.94,6.3-7.8.27-4.86-.99-7.29-.99-7.29,0,0-4.23.53-10.74-1Z"/><path d="m45.47,54.74s-.72.09-1.98.09c-1.86,0-4.88-.19-8.67-1.08-1.21-.28-2.37-.43-3.45-.43-5.44,0-7.55,3.68-8.03,4.73-1.7-1.06-3.33-.12-4.45,2.59-2,4.83-2.24,15.08,1.25,18.57,2.67,2.67,5.56,4.02,8.59,4.02,4.55,0,8.54-3,11.17-4.99l.19-.14c3.04-2.29,1.95-4.31,1.08-5.94-.4-.74-.77-1.43-.76-2.08.02-.79.99-1.43,2.12-2.17,1.79-1.17,4.01-2.63,4.18-5.62.27-4.87-.97-7.31-1.02-7.41-.05-.09-.14-.13-.24-.12Zm.79,7.51c-.15,2.76-2.27,4.15-3.97,5.26-1.24.81-2.31,1.51-2.33,2.55-.02.77.39,1.52.81,2.31.87,1.62,1.77,3.3-.95,5.34l-.19.15c-2.59,1.95-6.5,4.9-10.89,4.9-2.91,0-5.69-1.31-8.26-3.89-3.09-3.09-3.27-12.95-1.15-18.06.52-1.25,1.4-2.73,2.66-2.73.42,0,.87.17,1.33.5.06.04.13.06.21.03.07-.02.13-.08.15-.14.07-.19,1.74-4.69,7.71-4.69,1.04,0,2.16.14,3.34.42,5.77,1.36,9.79,1.1,10.65,1.02.25.58,1.13,2.94.9,7.03Z"/><path class="cls-1" d="m35.82,88.96c-1.85-.16-9.72-.83-12.93-.88.14-1.52.69-7.97.62-10.41l11.87,4.36c-.05.84-.16,3.95.45,6.93Z"/><path d="m23.8,78.08l11.27,4.14c-.05,1.03-.11,3.71.39,6.42-2.3-.2-9.05-.77-12.26-.84.16-1.83.61-7.16.6-9.72h0Zm-.61-.84c.2,2.17-.62,11.12-.62,11.12,3.37,0,13.61.92,13.61.92-.81-3.58-.51-7.45-.51-7.45l-12.48-4.59h0Z"/><path class="cls-5" d="m46.78,125.16c.24-11.47-4.5-27.07-6.38-31.76-2.92-7.28-20.27-8.04-20.27-8.04,0,0-8.14,12.53-11.36,21.97-3.27,9.57-5.26,32.37-5.26,32.37h43.52s-.49-3.08-.25-14.54Z"/><path d="m47.02,139.95H3.23s.02-.27.02-.27c.02-.23,2.03-22.94,5.27-32.43,3.2-9.36,11.31-21.9,11.39-22.03l.08-.12h.14c.72.04,17.55.85,20.5,8.2,2.1,5.25,6.63,20.57,6.39,31.85-.24,11.29.24,14.47.24,14.5l.04.29h-.29Zm-43.25-.5h42.96c-.11-.99-.41-4.69-.21-14.3h0c.24-11.43-4.58-27.21-6.36-31.66-2.68-6.71-18.25-7.78-19.91-7.88-.84,1.32-8.25,12.99-11.26,21.8-3.03,8.87-4.98,29.43-5.22,32.04Z"/><path class="cls-1" d="m32.97,85.51c-6.78,0-8.59-4.76-8.59-7.57v-.36l-.35.08c-.22.05-.44.07-.65.07-1.71,0-3.09-1.41-3.09-3.14s1.39-3.14,3.09-3.14h.3l.03-.29c-.03-1.25.03-2.49.08-3.48.03-.59.05-1.09.05-1.47,0-2.26,1.15-4.54,3.72-4.54,1.03,0,1.83.62,2.76,1.34,1.11.86,2.37,1.83,4.37,2.09.55.07,1.1.1,1.64.1.98,0,1.77-.11,2.39-.2.38-.06.72-.1.97-.1.4,0,.71,0,.71,1.39,0,.8-.04,1.34-.08,1.74-.07.91-.1,1.25.52,2.3,1.17,1.99,1.77,7.02-.2,10.92-1.25,2.47-3.34,3.91-6.03,4.18-.56.06-1.11.08-1.63.08h0Z"/><path d="m27.55,61.95c.93,0,1.66.57,2.59,1.28,1.08.84,2.43,1.88,4.51,2.14.56.07,1.12.11,1.68.11,1,0,1.8-.11,2.44-.21.37-.05.7-.1.93-.1.27,0,.42,0,.42,1.1,0,.79-.04,1.3-.07,1.72-.08,1-.07,1.4.56,2.47,1.16,1.97,1.64,6.98-.21,10.64-1.22,2.41-3.17,3.76-5.8,4.03-.55.06-1.09.08-1.6.08-6.55,0-8.3-4.58-8.3-7.28v-.72l-.7.15c-.2.04-.39.06-.59.06-1.55,0-2.8-1.28-2.8-2.85s1.26-2.85,2.81-2.85h0l.62.03v-.62c-.04-1.24.02-2.48.06-3.46.03-.59.05-1.1.05-1.48,0-1.58.72-4.25,3.43-4.25h0Zm0-.58c-2.8,0-4.01,2.53-4.01,4.83,0,1.01-.18,2.96-.13,4.96-.01,0-.02,0-.04,0-1.87,0-3.38,1.54-3.38,3.43s1.51,3.43,3.38,3.43c.24,0,.48-.03.71-.08,0,3.16,2.06,7.86,8.88,7.86.53,0,1.08-.03,1.66-.09,8.35-.84,8.55-11.98,6.46-15.54-.84-1.42-.4-1.35-.4-3.9,0-1.35-.29-1.68-1-1.68s-1.77.31-3.36.31c-.49,0-1.02-.03-1.61-.1-3.62-.46-4.77-3.43-7.16-3.43h0Z"/><path d="m37.22,66.75c-.13.02-.21.14-.19.27.02.13.14.21.27.19.01,0,1.28-.19,2.45.62.04.03.09.04.13.04.07,0,.15-.04.19-.1.07-.11.05-.25-.06-.32-1.32-.91-2.72-.7-2.78-.69Z"/><path d="m32.82,66.31c-.08,0-2.05-.1-4.2,2.02-.09.09-.09.24,0,.33.04.05.11.07.17.07s.12-.02.16-.07c1.99-1.96,3.83-1.89,3.84-1.88.12,0,.24-.09.25-.22,0-.13-.09-.24-.22-.25Z"/><path d="m31.44,70.35c-.31,0-.55.25-.55.56s.25.56.55.56.55-.25.55-.56-.25-.56-.55-.56Z"/><path d="m38.98,69.4c-.31,0-.55.25-.55.56s.25.56.55.56.55-.25.55-.56-.25-.56-.55-.56Z"/><path d="m36.47,72.38c-.13-.03-.25.05-.28.17-.03.13.05.25.17.28.17.04.38.12.43.27.06.19-.13.48-.21.56-.08.1-.07.25.03.33.04.04.1.06.15.06.07,0,.13-.03.18-.08.05-.05.45-.54.29-1.01-.09-.28-.35-.48-.77-.58Z"/><path class="cls-5" d="m31.26,121.81c5.21,5.77,10.97,11.98,11.93,12.32,1.81.64,27.3-4.96,27.3-4.96,3.07-7.86-1.79-21.19-1.79-21.19-7.62,1.92-19.04,4.35-19.04,4.35,0,0-3.27-9.57-9.19-17.77-1.63-2.26-16.54,19.14-9.21,27.26Z"/><path d="m43.66,134.42c-.25,0-.44-.02-.55-.06-.31-.11-1.24-.44-12.03-12.38l.37-.34c9.31,10.31,11.41,12.1,11.83,12.25,1.28.44,16.81-2.7,27.03-4.94,2.7-7.16-1.17-18.95-1.76-20.68-7.54,1.89-18.72,4.27-18.83,4.3l-.22.05-.07-.21c-.03-.1-3.32-9.63-9.16-17.7l.41-.29c5.39,7.47,8.63,16.17,9.15,17.63,1.61-.34,11.86-2.55,18.82-4.3l.22-.06.08.21c.2.55,4.86,13.51,1.79,21.37l-.05.12-.13.03c-2.46.54-22.92,5.01-26.89,5.01Z"/><path d="m34.17,77.5l.37-.28s-.74-.97-1.98-1.06c-1.01-.07-2.05.42-3.1,1.47l.33.33c.95-.95,1.87-1.4,2.73-1.34,1.03.07,1.64.86,1.64.87Z"/><rect class="cls-3" x="75.91" y="43.04" width="19.85" height="20.54" rx="1.69" ry="1.69"/><path class="cls-3" d="m75.77,44.74v17.16c0,1.01.82,1.83,1.83,1.83h16.46c1.01,0,1.83-.82,1.83-1.83v-17.16c0-1.01-.82-1.83-1.83-1.83h-16.46c-1.01,0-1.83.82-1.83,1.83Zm.29,0c0-.85.7-1.55,1.55-1.55h16.46c.85,0,1.55.69,1.55,1.55v17.16c0,.85-.69,1.55-1.55,1.55h-16.46c-.85,0-1.55-.69-1.55-1.55v-17.16Z"/><rect class="cls-7" x="75.2" y="43.04" width="19.85" height="20.54" rx="1.69" ry="1.69"/><path class="cls-2" d="m75.06,44.74v17.16c0,1.01.82,1.83,1.83,1.83h16.46c1.01,0,1.83-.82,1.83-1.83v-17.16c0-1.01-.82-1.83-1.83-1.83h-16.46c-1.01,0-1.83.82-1.83,1.83Zm.29,0c0-.85.7-1.55,1.55-1.55h16.46c.85,0,1.55.69,1.55,1.55v17.16c0,.85-.7,1.55-1.55,1.55h-16.46c-.85,0-1.55-.69-1.55-1.55v-17.16Z"/><path class="cls-4" d="m80.34,49.96h9.58c1.57,0,2.84,1.27,2.84,2.84v1.02c0,1.57-1.27,2.84-2.84,2.84h-9.58c-1.57,0-2.84-1.27-2.84-2.84v-1.02c0-1.57,1.27-2.84,2.84-2.84Z"/><path class="cls-3" d="m77.35,52.81v1.02c0,1.65,1.34,2.98,2.98,2.98h9.58c1.65,0,2.98-1.34,2.98-2.98v-1.02c0-1.65-1.34-2.98-2.98-2.98h-9.58c-1.65,0-2.98,1.34-2.98,2.98Zm.29,0c0-1.49,1.21-2.7,2.7-2.7h9.58c1.49,0,2.7,1.21,2.7,2.7v1.02c0,1.49-1.21,2.7-2.7,2.7h-9.58c-1.49,0-2.7-1.21-2.7-2.7v-1.02Z"/><path class="cls-3" d="m88.2,52.28c.54,0,.98.44.98.98s-.44.98-.98.98-.98-.44-.98-.98.44-.98.98-.98Z"/><path class="cls-3" d="m87.08,53.25c0,.62.5,1.12,1.12,1.12s1.12-.5,1.12-1.12-.5-1.12-1.12-1.12-1.12.5-1.12,1.12Zm.29,0c0-.46.37-.83.83-.83s.84.37.84.83-.37.84-.84.84-.83-.37-.83-.84Z"/><path class="cls-3" d="m82.05,52.28c.54,0,.98.44.98.98s-.44.98-.98.98-.98-.44-.98-.98.44-.98.98-.98Z"/><path class="cls-3" d="m80.93,53.25c0,.62.5,1.12,1.12,1.12s1.12-.5,1.12-1.12-.5-1.12-1.12-1.12-1.12.5-1.12,1.12Zm.29,0c0-.46.37-.83.83-.83s.84.37.84.83-.37.84-.84.84-.83-.37-.83-.84Z"/><path class="cls-5" d="m25.35,37.54l-.8-1.1,5.39-3.94.8,1.1-5.39,3.94Zm10.24-3.39c.69,1.74.46,3.7-1.63,5.23-2.53,1.85-5.28.91-7.38-1.96-2.26-3.1-1.97-6.05.41-7.79,2.19-1.6,4.29-1.02,5.39.18l-1.85,1.35c-.76-.56-1.56-.66-2.53.05-1.47,1.08-.97,2.73.53,4.77,1.46,1.99,2.94,2.83,4.3,1.84.88-.64,1.16-1.31.9-2.29l1.87-1.37Zm-8.88,5.25l-.8-1.09,5.39-3.94.8,1.09-5.39,3.94Z"/><path class="cls-5" d="m43.23,34.85l.2-.81,4.03.98-.2.81-4.03-.98Zm.34-1.39l.2-.82,4.03.98-.2.82-4.03-.98Zm5.71,3.5c-.55,1.03-1.57,1.7-3.13,1.33-1.89-.46-2.55-2.14-2.03-4.29.56-2.32,2.08-3.36,3.86-2.93,1.64.4,2.21,1.62,2.08,2.62l-1.39-.33c-.04-.59-.31-1.01-1.04-1.18-1.1-.27-1.68.64-2.05,2.16-.36,1.49-.16,2.53.86,2.78.65.16,1.09.02,1.45-.49l1.4.34Z"/><path class="cls-5" d="m26.57,13.48l.5-1.69,8.37,2.5-.5,1.69-8.37-2.5Zm.86-2.89l.51-1.71,8.37,2.5-.51,1.71-8.37-2.5Zm11.63,7.99c-1.27,2.1-3.5,3.41-6.74,2.44-3.93-1.17-5.13-4.78-3.79-9.25,1.43-4.81,4.75-6.84,8.44-5.74,3.4,1.01,4.46,3.66,4.08,5.75l-2.87-.86c-.02-1.24-.55-2.15-2.06-2.6-2.29-.68-3.61,1.15-4.56,4.32-.92,3.09-.62,5.31,1.49,5.94,1.36.41,2.28.17,3.1-.88l2.91.87Z"/></g></svg>