<?xml version="1.0" encoding="UTF-8"?><svg id="Layer_2" xmlns="http://www.w3.org/2000/svg" viewBox="0 0 441.04 445.39"><defs><style>.cls-1{fill:#fff;}.cls-2{fill:none;stroke:#ea0001;stroke-miterlimit:10;stroke-width:17.52px;}.cls-3{fill:#ea0001;}</style></defs><g id="Layer_1-2"><path class="cls-3" d="m290.17,150.83v83.27c-15.85,5.58-36.39,9.6-58.49,9.6-51.79,0-80.82-30.36-80.82-81.71s27.91-83.5,87.51-83.5c16.74,0,29.69,2.23,44.65,7.37v35.27c-14.06-5.58-27.01-8.48-43.98-8.48-32.59,0-47.11,18.75-47.11,48.45s13.4,48.67,43.76,48.67c5.8,0,11.61-.67,17.41-1.79v-25.67h-26.34v-31.48h63.4Z"/><rect class="cls-2" x="8.76" y="8.76" width="423.52" height="427.88" rx="29.66" ry="29.66"/><path class="cls-3" d="m8.76,300.97h423.52v111.24c0,13.48-10.94,24.43-24.43,24.43H33.18c-13.48,0-24.43-10.94-24.43-24.43v-111.24h0Z"/><path class="cls-1" d="m82.54,388.89v13.86h-47.59v-67.85h47.01v13.86h-29.55v12.7h27.25v13.86h-27.25v13.57h30.13Z"/><path class="cls-1" d="m152.1,334.9v67.85h-15.16l-26.77-39.26c.1,2.71.1,5.53.1,8.34v30.92h-16.21v-67.85h15.16l26.77,39.26c-.1-2.91-.1-5.82-.1-8.82v-30.44h16.21Z"/><path class="cls-1" d="m213.89,388.89v13.86h-47.59v-67.85h47.01v13.86h-29.55v12.7h27.25v13.86h-27.25v13.57h30.13Z"/><path class="cls-1" d="m283.16,402.75h-19.48l-8.06-16.48c-1.44-3-3.55-5.14-7.87-5.14h-4.89v21.61h-17.46v-67.85h27.06c17.27,0,27.53,7.66,27.53,23.07,0,9.4-4.7,15.8-11.51,19.48,2.11,1.26,3.55,3.49,4.8,5.72l9.88,19.58Zm-31.37-35.77c6.62,0,10.75-2.91,10.75-8.92s-3.74-8.43-10.75-8.43h-8.92v17.35h8.92Z"/><path class="cls-1" d="m348.11,364.37v36.15c-6.81,2.42-15.64,4.17-25.14,4.17-22.26,0-34.73-13.18-34.73-35.47s11.99-36.25,37.61-36.25c7.2,0,12.76.97,19.19,3.2v15.31c-6.04-2.42-11.61-3.68-18.9-3.68-14.01,0-20.24,8.14-20.24,21.03s5.76,21.13,18.8,21.13c2.49,0,4.99-.29,7.48-.78v-11.15h-11.32v-13.67h27.25Z"/><path class="cls-1" d="m394.07,379.1v23.65h-17.46v-23.26l-24.66-44.59h21.11l7.2,15.7c1.82,3.97,3.93,8.82,5.37,12.6,1.44-3.78,3.65-8.72,5.47-12.7l7.1-15.61h20.63l-24.75,44.2Z"/></g></svg>