<?xml version="1.0" encoding="UTF-8"?><svg id="Layer_2" xmlns="http://www.w3.org/2000/svg" viewBox="0 0 322.33 331.57"><defs><style>.cls-1{fill:#a5b4fc;}</style></defs><g id="Layer_1-2"><path class="cls-1" d="m.21,147.23c-.08-.97-.18-1.68-.18-2.39,0-9.83-.02-19.67.07-29.5,0-.7.71-1.61,1.34-2.07,5.69-4.13,11.43-8.18,17.15-12.26,20.58-14.64,41.15-29.28,61.73-43.93,23.42-16.66,46.84-33.33,70.26-50,2.8-1.99,5.58-4,8.38-6,2.07-1.48,2.07-1.45,4.11,0,13.95,9.94,27.9,19.85,41.85,29.79,13.38,9.54,26.74,19.11,40.14,28.63,14.3,10.16,28.65,20.25,42.96,30.4,10.99,7.79,21.95,15.63,32.94,23.43.87.62,1.36,1.25,1.36,2.44-.03,52.28-.02,104.57-.02,156.85,0,1.27-.03,2.54-.02,3.81.01.98-.39,1.5-1.42,1.41-.31-.03-.63,0-.95,0-69.58,0-139.16,0-208.74,0-3.63,0-3.66,0-3.67-3.57-.02-6.74,0-13.47,0-20.41,0-1.57,1.25-2.87,2.82-2.92.15,0,.29,0,.44,0,21.47-.02,42.93-.02,64.4-.02,27.49,0,54.99.02,82.48.03,12,0,24-.05,36,0,1.45,0,1.78-.51,1.77-1.84-.06-19.56-.09-39.12-.09-58.68,0-20.14.02-40.28.06-60.43,0-1.29-.39-2.11-1.47-2.88-18.91-13.44-37.78-26.94-56.69-40.38-18.69-13.29-37.41-26.54-56.12-39.81-6.04-4.28-12.1-8.51-18.1-12.85-1.44-1.04-2.53-1.01-3.95.02-10.09,7.24-20.22,14.42-30.34,21.61-12.71,9.02-25.43,18.03-38.12,27.07-15.23,10.85-30.43,21.76-45.66,32.6-14.12,10.05-28.27,20.05-42.41,30.08-.68.48-1.33,1.02-2.3,1.77Z"/><path class="cls-1" d="m.03,255.88c0-24.42,0-48.84-.01-73.27,0-1.5.25-2.6,1.66-3.59,14.78-10.39,29.51-20.85,44.23-31.33,17.43-12.41,34.83-24.87,52.25-37.29,15.66-11.17,31.32-22.32,46.99-33.47,4.99-3.55,9.99-7.09,15.04-10.55.43-.3,1.45-.26,1.89.05,8.65,6.07,17.26,12.2,25.87,18.32,13.39,9.52,26.78,19.05,40.17,28.58,12.7,9.04,25.38,18.1,38.12,27.08,1.63,1.15,2.23,2.32,2.23,4.37-.1,23.42-.06,46.83-.06,70.25,0,2.43-.09,4.87,0,7.29.04,1.24-.51,1.59-1.58,1.59-7.98,0-15.96,0-23.95.01-.83,0-1.36-.12-1.35-1.22.08-7.55.11-15.1.12-22.65.02-14,0-28,.03-42,0-1.48-.42-2.47-1.73-3.41-17.39-12.28-34.73-24.65-52.09-36.98-8.36-5.94-16.74-11.84-25.07-17.81-1.28-.92-2.22-.92-3.51,0-16.28,11.66-32.59,23.28-48.9,34.88-15.93,11.33-31.88,22.64-47.82,33.96-11.54,8.2-23.1,16.38-34.61,24.62-.55.4-.96,1.37-.98,2.08-.09,6.24-.1,12.47-.1,18.71,0,36.42,0,72.84,0,109.26,0,1.25-.05,2.5-.07,3.74-.04,2.42-2.06,4.38-4.48,4.37-5.89-.02-11.77,0-17.66,0-1,0-2.01-.04-3.01.03-1.21.08-1.63-.32-1.63-1.62.05-17.02.04-34.04.05-51.06,0-7.66,0-15.33,0-22.99h-.02Z"/><path class="cls-1" d="m56.54,331.54c-1.6,0-2.91-1.31-2.91-2.91,0-36.77,0-73.17,0-109.58,0-3.33-.08-6.66-.04-9.99,0-.53.33-1.27.75-1.56,8.31-5.91,16.65-11.77,24.99-17.64.29-.2.62-.33,1.18-.62v112.56c0,1.6,1.3,2.91,2.91,2.91,1.05,0,2.07,0,3.09,0,42.61-.02,85.22-.06,127.82-.07,35.1,0,70.21,0,105.31.03,2.74,0,2.62-.61,2.64,2.63.03,7.45-.02,14.91.05,22.36.01,1.45-.36,1.9-1.85,1.9-20.41-.05-40.81-.03-61.22-.03-67.56,0-135.13.01-202.69.02,0,0-.02,0-.03,0Z"/></g></svg>