<?xml version="1.0" encoding="UTF-8"?><svg id="Layer_2" xmlns="http://www.w3.org/2000/svg" viewBox="0 0 2671.6 1717.3"><defs><style>.cls-1,.cls-2{fill:#ebf2ff;}.cls-3{fill:#fff;}.cls-4{letter-spacing:0em;}.cls-5{fill:#d1fae5;}.cls-6{fill:#94b5ff;}.cls-7{fill:#5c7de5;}.cls-8,.cls-9{opacity:.5;}.cls-10,.cls-2{opacity:.9;}.cls-11,.cls-12{fill:#f99746;}.cls-13{fill:#eab308;}.cls-14{fill:#a8d29f;}.cls-15{fill:#1a3054;}.cls-16{fill:#ca8a04;}.cls-17{fill:#818cf8;}.cls-12{opacity:.3;}.cls-18{letter-spacing:0em;}.cls-19{fill:#2c3a64;}.cls-20{fill:#f9f9f9;font-family:AcuminConcept-ExtraCondensedBlack, 'Acumin Variable Concept';font-size:143.91px;font-variation-settings:'wght' 800, 'wdth' 50, 'slnt' 0;font-weight:800;}.cls-21{fill:#ed985f;}.cls-9{fill:#739af0;}.cls-22{fill:#dfebfd;}.cls-23{fill:#e8945b;}.cls-24{fill:#ffb27d;}.cls-25{fill:#cddff9;}.cls-26{fill:#233862;}.cls-27{letter-spacing:0em;}.cls-28{letter-spacing:.01em;}.cls-29{fill:#163560;}.cls-30{fill:#2b478b;}.cls-31{fill:#10b981;}</style></defs><g id="_ëîé_1"><path class="cls-5" d="m2477.79,1713.51c-147.77,0-2300.45.56-2301.69-3.53l-.21-.52s-.21-.51-.21-.76c-.82-2.05-331.68-577.09,182.68-977.4,201.25-156.63-12.59-260.03,147.44-434.4,183.92-200.38,384.64,21.29,589.15-69.57,36.14-16.04,72.4-41.86,108.69-81.47,20.43-22.28,42.82-41.76,66.8-58.58,3.67-2.59,7.39-5.12,11.14-7.57,14.35-9.4,29.24-17.91,44.57-25.55,10.3-5.13,20.79-9.87,31.47-14.23h0c16.96-6.92,34.37-12.9,52.16-17.94,25.26-7.18,51.28-12.51,77.8-16.12,11.57-1.59,23.24-2.83,34.99-3.77,228.52-18.15,485.68,83.93,618.4,233.12,26.72,30.04,148.22,185.49,52.44,399.15-60.47,134.9,192.86,263.74,282.88,417.78,228.87,391.65,3.57,656.27,1.49,661.38Z"/><path class="cls-9" d="m1354.28,269.26l27.43,2.72c2.28.25,4.23,1.75,5.05,3.9,1.03,2.74,2.19,5.45,3.47,8.14,2.37,5,5.05,9.72,8.07,14.12,1.41,2.06,1.45,4.74.06,6.8l-15.9,24.03c-1.72,2.55-1.17,6.02,1.28,7.95l20.63,16.38c2.34,1.85,5.67,1.64,7.77-.46l18.64-18.88c1.77-1.88,4.59-2.32,6.97-1.11,10,5.07,20.8,8.54,31.98,10.26,2.7.42,4.8,2.68,5.06,5.39l1.5,16.07c.31,3.05,2.85,5.44,5.94,5.5l26.15.3c.54.01,1.05-.03,1.55-.17,2.39-.57,4.24-2.64,4.46-5.18l2.06-20.49.49-5c4.67-1.45,9.34-3.27,13.88-5.42,6.11-2.9,11.85-6.33,17.09-10.15,2.01-1.45,4.69-1.56,6.75-.17l19.34,12.83c2.66,1.74,6.19,1.19,8.14-1.3l12.52-15.77,3.58-4.53c1.96-2.46,1.76-6.03-.48-8.23l-15.76-15.59c-1.85-1.79-2.36-4.54-1.23-6.81,3.25-6.84,5.77-14,7.48-21.34.2-.63.32-1.22.45-1.85.03-.21.1-.41.17-.62.73-2.31,2.8-3.93,5.22-4.15l26.09-2.5c.3,0,.59-.08.86-.14,2.62-.65,4.56-3.03,4.61-5.79l.34-26.07c.04-3.15-2.32-5.79-5.47-6.13l-28.62-2.83c-2.43-.21-4.44-1.92-5.12-4.26-1.54-5.13-3.49-10.23-5.88-15.26-1.26-2.66-2.62-5.25-4.08-7.75-1.17-2.04-1.1-4.57.2-6.52l15.27-23.1c1.69-2.54,1.16-5.98-1.25-7.9l-20.43-16.17c-2.46-1.96-6.01-1.78-8.26.49l-14.75,14.93c-1.98,2.01-5.03,2.39-7.43.97-9.4-5.69-19.63-9.86-30.31-12.42-2.53-.56-4.43-2.73-4.67-5.34l-2.24-23.51c-.3-3.15-2.94-5.56-6.1-5.63l-25.98-.35c-3.12-.05-5.75,2.33-6.03,5.39l-.13,1.19-2.38,23.81c-.25,2.55-2.03,4.63-4.51,5.3h-.03c-5.93,1.63-11.8,3.78-17.56,6.52-3.07,1.46-6.01,3.05-8.9,4.76-1.99,1.21-4.48,1.16-6.42-.12l-19.64-13.02c-2.68-1.79-6.3-1.2-8.28,1.3l-16.12,20.34c-.46.58-.78,1.24-1.01,1.88-.69,2.13-.16,4.57,1.49,6.22l12.62,12.42c1.53,1.54,2.13,3.78,1.6,5.83-.15.54-.36,1.07-.65,1.57-7.24,12.1-11.97,25.5-13.96,39.47-.3,2.38-2.07,4.28-4.33,4.92-.32.09-.66.15-1.01.18l-21.13,2.01c-3.06.29-5.41,2.84-5.48,5.93v.61s-.37,25.41-.37,25.41c-.01,3.2,2.38,5.86,5.57,6.18Zm187.69-39.34c.71,4.16,1.06,8.55.98,13.15-.17,8.77-4.72,21.69-10.17,28.58-.58.74-1.17,1.46-1.77,2.17-36.64,43.04-103.27,18.64-102.82-38.69.07-7.49,3.23-17.75,7.51-25.21,1.02-1.71,2.06-3.31,3.13-4.62,5-6.24,10.59-11.16,16.56-14.86,34.03-21.05,79.27-2.08,86.58,39.47Z"/><path class="cls-22" d="m1667.77,201.91l17.48,4.28c1.45.37,2.57,1.52,2.91,2.98.42,1.87.92,3.73,1.49,5.58,1.08,3.45,2.37,6.75,3.92,9.87.72,1.46.5,3.2-.58,4.4l-12.48,14.08c-1.35,1.49-1.31,3.78.1,5.26l11.83,12.48c1.34,1.41,3.52,1.58,5.07.42l13.78-10.49c1.32-1.05,3.18-1.07,4.61-.08,6,4.2,12.66,7.43,19.73,9.57,1.71.52,2.86,2.17,2.77,3.95l-.5,10.53c-.08,2,1.34,3.78,3.34,4.1l16.88,2.6c.35.06.68.08,1.02.03,1.6-.15,2.98-1.32,3.36-2.94l3.21-13.06.78-3.18c3.15-.51,6.34-1.26,9.47-2.23,4.22-1.32,8.24-3,11.98-4.99,1.43-.75,3.17-.58,4.38.51l11.33,10.07c1.56,1.37,3.89,1.34,5.38-.09l9.54-9.04,2.73-2.6c1.49-1.41,1.7-3.74.45-5.36l-8.76-11.53c-1.03-1.33-1.11-3.15-.17-4.51,2.73-4.12,5.02-8.52,6.8-13.11.19-.39.32-.76.46-1.15.04-.14.1-.26.17-.38.69-1.43,2.17-2.28,3.76-2.2l17.09.78c.19.02.39,0,.57-.01,1.75-.18,3.22-1.54,3.51-3.32l2.62-16.82c.31-2.03-.97-3.96-2.98-4.46l-18.24-4.46c-1.55-.36-2.7-1.65-2.92-3.23-.52-3.46-1.32-6.93-2.4-10.4-.57-1.84-1.21-3.63-1.93-5.39-.57-1.43-.29-3.06.73-4.2l11.99-13.53c1.33-1.48,1.3-3.76-.08-5.22l-11.72-12.33c-1.41-1.49-3.72-1.7-5.38-.44l-10.91,8.3c-1.46,1.11-3.47,1.08-4.89-.06-5.55-4.54-11.79-8.18-18.45-10.81-1.58-.6-2.61-2.17-2.53-3.88l.71-15.41c.1-2.07-1.39-3.87-3.43-4.2l-16.76-2.61c-2.01-.32-3.93.98-4.39,2.93l-.2.76-3.73,15.17c-.4,1.63-1.74,2.81-3.4,3.02h-.02c-3.98.51-7.97,1.36-11.95,2.6-2.12.66-4.17,1.42-6.19,2.26-1.4.6-3,.34-4.14-.66l-11.5-10.22c-1.57-1.4-3.96-1.36-5.47.08l-12.29,11.67c-.35.34-.62.73-.82,1.12-.64,1.31-.52,2.94.39,4.16l7.02,9.19c.85,1.13,1.03,2.64.5,3.92-.14.33-.33.66-.57.96-5.79,7.16-10.08,15.38-12.65,24.23-.41,1.51-1.73,2.58-3.25,2.78-.22.03-.44.03-.67.02l-13.84-.64c-2-.1-3.76,1.34-4.08,3.33l-.06.39-2.56,16.39c-.3,2.07,1,4.01,3.03,4.51Zm124.94-8.19c.08,2.75-.1,5.63-.57,8.59-.91,5.65-5.04,13.59-9.2,17.54-.44.43-.89.83-1.34,1.24-27.64,24.46-68.47,2.56-62.92-34.45.73-4.84,3.72-11.18,7.17-15.61.82-1.02,1.63-1.95,2.45-2.7,3.8-3.57,7.87-6.24,12.07-8.08,23.93-10.48,51.43,5.94,52.34,33.47Z"/><path class="cls-25" d="m1533.06,568.11l43.25,5.02c3.6.45,6.63,2.88,7.87,6.29,1.56,4.35,3.32,8.67,5.26,12.95,3.62,7.96,7.72,15.49,12.37,22.5,2.17,3.29,2.17,7.52-.08,10.73l-25.73,37.53c-2.78,3.98-2.01,9.47,1.81,12.59l32.15,26.4c3.65,2.98,8.91,2.73,12.29-.52l29.93-29.32c2.85-2.91,7.32-3.54,11.03-1.57,15.66,8.27,32.62,14.02,50.22,17.03,4.25.73,7.51,4.36,7.84,8.64l1.95,25.41c.42,4.82,4.36,8.66,9.24,8.84l41.28,1.16c.85.03,1.66-.02,2.45-.23,3.79-.84,6.76-4.07,7.19-8.07l3.79-32.3.91-7.88c7.42-2.17,14.83-4.92,22.05-8.2,9.73-4.42,18.87-9.68,27.26-15.57,3.21-2.24,7.44-2.34,10.65-.1l30.21,20.76c4.15,2.81,9.75,2.04,12.89-1.84l20.19-24.57,5.77-7.06c3.16-3.84,2.95-9.48-.54-13.01l-24.48-25.03c-2.87-2.87-3.6-7.23-1.77-10.78,5.31-10.71,9.49-21.95,12.38-33.49.33-.99.54-1.91.77-2.91.06-.34.17-.65.29-.97,1.22-3.63,4.52-6.13,8.36-6.41l41.26-3.26c.47,0,.94-.11,1.37-.2,4.16-.95,7.27-4.66,7.43-9.02l1.22-41.15c.14-4.97-3.51-9.21-8.48-9.82l-45.11-5.22c-3.83-.4-6.96-3.15-7.97-6.86-2.29-8.14-5.25-16.24-8.88-24.24-1.93-4.24-4.01-8.35-6.24-12.35-1.79-3.25-1.62-7.25.49-10.29l24.72-36.08c2.74-3.96,1.98-9.41-1.77-12.5l-31.84-26.07c-3.84-3.16-9.44-2.96-13.05.56l-23.69,23.19c-3.18,3.11-8,3.64-11.76,1.33-14.69-9.24-30.74-16.08-47.53-20.4-3.98-.96-6.92-4.42-7.23-8.56l-2.92-37.18c-.39-4.99-4.5-8.86-9.49-9.05l-41-1.24c-4.93-.16-9.14,3.53-9.66,8.36l-.24,1.88-4.38,37.53c-.47,4.02-3.33,7.25-7.26,8.26l-.04.02c-9.4,2.39-18.72,5.64-27.89,9.81-4.89,2.22-9.57,4.66-14.17,7.28-3.17,1.86-7.1,1.71-10.13-.35l-30.66-21.07c-4.19-2.9-9.92-2.07-13.1,1.83l-25.98,31.69c-.74.91-1.26,1.93-1.64,2.94-1.14,3.34-.37,7.21,2.19,9.86l19.61,19.94c2.38,2.47,3.26,6.03,2.38,9.25-.24.84-.59,1.68-1.07,2.47-11.75,18.91-19.57,39.94-23.08,61.95-.54,3.74-3.37,6.7-6.96,7.65-.51.13-1.05.22-1.6.26l-33.41,2.61c-4.84.37-8.62,4.34-8.8,9.22l-.04.96-1.23,40.11c-.1,5.06,3.61,9.32,8.63,9.91Zm297.38-57.19c1.01,6.59,1.46,13.53,1.21,20.79-.49,13.84-8.02,34.12-16.82,44.85-.94,1.16-1.89,2.27-2.85,3.38-58.98,67-163.55,26.72-161.34-63.79.31-11.83,5.56-27.94,12.52-39.61,1.65-2.68,3.34-5.17,5.07-7.21,8.06-9.72,17.01-17.34,26.53-23.02,54.28-32.35,125.22-1.2,135.67,64.6Z"/><path class="cls-25" d="m1050.65,654.22s20.96-219.19-133-296.3c0,0-30.12-14.52-52.32,16.54-22.21,31.06,40.2,52.5,74.1,79.53,33.9,27.02,103.93,116.58,111.22,200.24Z"/><path class="cls-25" d="m1064.04,570.71s53.54-156-45.15-239.05c0,0-19.4-15.84-41,2.91-21.6,18.75,20.11,45.26,40.09,70.87,19.98,25.6,55.35,103.07,46.05,165.27Z"/><path class="cls-22" d="m2270.91,1548.99c72.95-90.14-66.14-222.93-66.14-222.93,0,0-233.95,10.62-259.6-16.92-25.65-27.55,198.2-48.16,198.2-48.16-36.71-62.76-216.53-160.36-216.53-160.36,0,0-178.38,143.28-196.47,110.27-18.09-33.01,164.43-118.79,164.43-118.79-58.02-44.48-162.45-49.67-162.45-49.67-155.58,11.6-132.42,210.87-132.42,210.87,0,0-62.89,48.32-165.31,61.83h0s-20.09.86-49.81,8.46l11.18,15.48c5.06-1.73,10.07-3.23,15.03-4.47.03-.02.06-.03.09-.02.07-.02.14-.03.22-.05,3.15-.67,7.65-1.6,13.17-2.69,0,0,.01,0,.02,0,0,0,.02,0,.03,0,12.66-1.95,21.8-3.69,28.19-5.23.02,0,.04,0,.06-.02,39.26-6.8,91.81-13.71,109.58-5.82,0,0,1.17-3.45,4.7-8.44-1.5,2.69-3.06,5.49-4.7,8.44-37.56,67.46,48.69,206.74,117.13,269.62s65.99,15.69,71.02-48.43c5.03-64.12-64.02-140.95-68.56-175.11-4.54-34.16,34.66-7.76,66.43,44.17,31.77,51.93.4,112.03,50.26,196.97,49.86,84.94,242.91,37.62,242.91,37.62-56.66-42.59-97.51-162.83-81.34-180.27,16.16-17.44,119.54,129.63,141.62,148.24,22.08,18.61,96.14,25.58,169.09-64.56Z"/><path class="cls-22" d="m601.75,1521.65c-47.44-58.62,43.01-144.98,43.01-144.98,0,0,152.15,6.91,168.83-11,16.68-17.91-128.9-31.32-128.9-31.32,23.88-40.81,140.82-104.29,140.82-104.29,0,0,116.01,93.18,127.77,71.71,11.77-21.47-106.93-77.26-106.93-77.26,37.73-28.93,105.65-32.3,105.65-32.3,101.18,7.55,86.12,137.14,86.12,137.14,0,0,40.9,31.42,107.51,40.21h0s13.06.56,32.39,5.5l-7.27,10.07c-3.29-1.13-6.55-2.1-9.78-2.91-.02-.01-.04-.02-.06-.01-.05-.01-.09-.02-.14-.03-2.05-.43-4.98-1.04-8.56-1.75,0,0,0,0-.01,0,0,0-.01,0-.02,0-8.23-1.27-14.18-2.4-18.33-3.4-.01,0-.03,0-.04-.01-25.53-4.42-59.71-8.91-71.26-3.79,0,0-.76-2.24-3.05-5.49.97,1.75,1.99,3.57,3.05,5.49,24.43,43.87-31.67,134.45-76.17,175.34-44.51,40.89-42.91,10.2-46.19-31.5-3.27-41.7,41.63-91.67,44.59-113.88,2.95-22.21-22.54-5.05-43.2,28.72-20.66,33.77-.26,72.86-32.69,128.1-32.43,55.24-157.98,24.46-157.98,24.46,36.85-27.7,63.41-105.9,52.9-117.24-10.51-11.34-77.74,84.3-92.1,96.41-14.36,12.1-62.53,16.63-109.96-41.99Z"/><path class="cls-25" d="m552.67,506.23c29.13-69.56,148.05-30.86,148.05-30.86,0,0,66.05,137.24,89.73,143.43s-33.53-128.34-33.53-128.34c47.25,1.67,158.58,74.55,158.58,74.55,0,0-27.04,146.32-2.56,146.5,24.48.18,17.33-130.78,17.33-130.78,43.36,19.51,78.53,77.71,78.53,77.71,41.32,92.66-79.92,140.84-79.92,140.84,0,0-8.28,50.91,15.56,113.72,0,0,0,0,0,0,0,0,5.7,11.77,10.51,31.13l-12.31-1.63c-.57-3.43-1.25-6.76-2.08-9.99,0-.02,0-.04-.02-.06-.01-.05-.02-.09-.04-.14-.59-2.01-1.45-4.88-2.52-8.37,0,0,0,0,0-.01,0,0,0,0,0-.02-2.79-7.85-4.61-13.62-5.69-17.75,0-.01,0-.03,0-.04-8.21-24.57-20.46-56.8-30.45-64.54,0,0,1.62-1.73,3.38-5.29-1.08,1.69-2.2,3.45-3.38,5.29-27.05,42.3-133.4,35.86-190.5,16.06-57.1-19.8-29.33-32.95,5.83-55.6,35.16-22.65,100.45-6.8,121.41-14.73,20.96-7.93-6.24-22.24-45.77-24.42-39.53-2.18-64.27,34.31-128.28,31.95-64.01-2.36-96.44-127.5-96.44-127.5,41.85,19.31,123.3,5.63,128.3-9,5-14.63-111.09-28.48-128.55-35.39-17.46-6.9-44.29-47.17-15.16-116.73Z"/><path class="cls-26" d="m1913.71,1714.06s0-15.32,2.18-20.41c2.18-5.09,10.19-25.83,10.19-25.83h31.29s5.82,18.92,6.19,25.1c.36,6.19,0,21.14,0,21.14h-49.84Z"/><path class="cls-26" d="m2112.38,1714.06s0-15.32-2.18-20.41c-2.18-5.09-10.19-25.83-10.19-25.83h-31.29s-5.82,18.92-6.18,25.1c-.36,6.19,0,21.14,0,21.14h49.84Z"/><path class="cls-24" d="m1987.03,854.3s-1.1,34.11-5.47,49.39l-34.55,24.1,130.07,19.46-31.02-42.86s-9.37-45.73-4.45-62.65c4.91-16.92-54.57,12.55-54.57,12.55Z"/><path class="cls-21" d="m1986.84,859.01s10.28,24.76,29.66,24.21c19.37-.55,23.78-22.45,23.78-22.45l-53.44-1.76Z"/><path class="cls-19" d="m1975.27,838.96s-6.26-31.23-10.62-40.69c-4.37-9.46-8-51.66,40.38-53.85,0,0,18.55,2.18,28.74-4,0,0,0,6.19-2.55,8.37,0,0,16.74-4,29.83,10.55,13.1,14.55-8.73,65.49-7.64,77.5l-78.15,2.13Z"/><path class="cls-24" d="m2014.28,873.65c-14.04-.25-39.88-18.94-39.88-42.09v-36.12c0-8.45,5.89-15.37,13.1-15.37h53.56c7.2,0,13.1,6.92,13.1,15.37v34.08c0,24.27-23.78,44.42-39.88,44.13Z"/><path class="cls-19" d="m1974.4,814.73s.07-21.7,17.26-25.04c17.19-3.34,55.67,10.58,61.12-5.25,5.46-15.83-74.37-15.55-78.39-5.46-4.02,10.1,0,35.75,0,35.75Z"/><path class="cls-17" d="m1917.64,1183.58s5.47,167.17-2.71,262.55c-8.19,95.38.06,228.12.06,228.12,0,0,26.18,14.43,54.56,0,0,0,31.12-184.27,30.93-228.12-.21-46.7,33.87-255.26,33.87-255.26l-116.71-7.29Z"/><path class="cls-17" d="m2111.25,1674.24s-26.17,14.44-54.55,0c0,0-31.12-184.27-30.92-228.12.09-19.72-5.94-68.33-12.93-117.88-9.57-67.79-20.95-137.38-20.95-137.38l121.23-7.58s-10,167.46-1.81,262.83c8.19,95.38-.06,228.12-.06,228.12Z"/><path class="cls-13" d="m2111.67,1211.39s-51.68,10.01-98.83,10.01c-20.56,0-42.91-2.26-60.7-4.64-19.67-2.61-33.77-5.37-33.77-5.37,0,0-10.48.92-4.29-50.74,4.7-39.31,3.23-74.81,2.18-111.33-.12-4.06-.03-8.86.22-14.21,2.01-42.58,14.89-119.23,24.7-123.35,0,0,14.59-5.42,40.37-8.07,0,.5,14.96,22.38,32.72,24.83,11.03-4.37,19.7-8.09,31.77-24.12,15.29,1.78,31.97,4.81,49.8,9.61,0,0,1.86,8.12,8.86,149.01,2.78,55.81,21.83,148.56,6.95,148.38Z"/><path class="cls-7" d="m2025.77,1446.12c.09-19.72-5.94-68.33-12.93-117.88,7.26-29.6,24.94-58.09,24.94-58.09,22.38,62.76-12.01,175.97-12.01,175.97Z"/><path class="cls-13" d="m1867.43,1073.92c-2.35,7.33,4.14,17.22,10.47,31.1,13.03,28.52,34.68,70.64,34.68,70.64-3.13,11.89-6.57,19.23-6.57,19.23-36.41-28.61-59.89-52.95-74.88-71.61-21.07-26.25-22.8-52.76-18.9-64.24,46.8-137.61,131.65-148.18,131.65-148.18l-6.74,109.07s-64.87,38.87-69.71,53.99Z"/><path class="cls-24" d="m1908.26,1177.74s19.65-18.19,27.65-8c8,10.19,9.46,26.2,3.27,25.1-6.18-1.09-18.92-6.91-20.74-4-1.82,2.91-9.97,8.47-12.44,4.05-2.47-4.42,2.26-17.15,2.26-17.15Z"/><path class="cls-24" d="m1912.58,1175.66c-3.13,11.89-6.57,19.23-6.57,19.23-36.41-28.61-59.89-52.95-74.88-71.61,11.3-.84,27.79-4.88,46.77-18.26,13.03,28.52,34.68,70.64,34.68,70.64Z"/><path class="cls-13" d="m2222.75,1070.1c.34,8.57-1.36,26.93-22.43,53.18-14.99,18.66-38.46,43-74.88,71.61,0,0-3.44-7.35-6.57-19.23,0,0,21.64-42.12,34.68-70.64,6.33-13.88,10.86-20.35,9.4-25.56-4.66-16.61-43.79-39.75-60.23-52.22-5.42-4.11-8.4-7.31-8.4-7.31l1.54-105.93s21.55,5.31,34.84,18.61c54.04,54.06,90.45,97.48,92.06,137.5Z"/><path class="cls-24" d="m2123.19,1177.74s-19.65-18.19-27.65-8c-8,10.19-9.46,26.2-3.27,25.1,6.18-1.09,18.92-6.91,20.74-4,1.82,2.91,9.97,8.47,12.44,4.05,2.47-4.42-2.26-17.15-2.26-17.15Z"/><path class="cls-24" d="m2118.87,1175.66c3.13,11.89,6.57,19.23,6.57,19.23,36.41-28.61,59.89-52.95,74.88-71.61-11.3-.84-27.79-4.88-46.77-18.26-13.03,28.52-34.68,70.64-34.68,70.64Z"/><path class="cls-30" d="m1983.37,895.37s-5.78,2.41-7.41,8.95c0,0,23.17,23.83,38.33,24.19l-30.91-33.15Z"/><path class="cls-30" d="m2014.28,928.52l29.9-34.35s6.17,4.06,6.08,10.75c0,0-23.13,24.51-35.99,23.6Z"/><path class="cls-30" d="m2008.89,925.99s-22.82,197.02-14.88,221.03c4.09,12.36,9.57,23.06,13.92,30.52,3.13,5.37,10.9,5.36,14-.03,6.06-10.52,13.98-25.75,13.98-33.48,0-12.52-17.32-218.22-17.32-218.22l-9.71.17Z"/><path class="cls-30" d="m2002.92,916.7s13.79-2.01,22.19-.77c1.66.25,2.59,2.9,1.78,5.03-2.35,6.17-7.16,16.87-12.18,16.87-7.06,0-18.05-20.42-11.79-21.13Z"/><path class="cls-3" d="m2003.09,850.39s4.37,5.91,12.01,5.7c7.64-.21,11.23-5.7,11.23-5.7,0,0-12.89-2.11-23.24,0Z"/><path class="cls-29" d="m576.07,974.53c-2.21-6.65,30.13,13.74,68.67.83,33.21-11.13,3.26-32.82,11.73-60.32,6.03-19.58,4.12-72.2-47.21-74.31,0,0-12.34-7.47-30.17-1.55-40.55,13.46-124.88,144.95-3.01,135.35Z"/><path class="cls-17" d="m632.32,1095.09s4.88,9.66,13.72,20.76c10.66,13.36,66.63-18.35,61.81-20.76-4.82-2.41-32.08-79.78-43.61-93.49-10.69-12.7-25.55-15.59-25.55-15.59l-6.37,109.08Z"/><path class="cls-15" d="m443.45,1641.56s-15.45,14.1-12.43,24.11c3.01,10.02,16.95,16.69,18.84,28.94,1.88,12.24,9.42,18.92,16.2,18.92h32.33s4.99-8.62-7.06-11.21c-12.06-2.6-16.6-16.98-15.85-30.34.75-13.36-1.13-31.16-1.13-31.16l-25.62-5.94-5.27,6.68Z"/><path class="cls-15" d="m574.2,1647.55s-5.56,59.72,1.22,63.06l86.79-.18s0-10.02-13.94-12.24-38.43-10.39-42.57-28.57c-4.14-18.18-31.5-22.07-31.5-22.07Z"/><path class="cls-17" d="m507.43,1054.81s-1.29,18.24,0,40.12c.86,14.5,15.53,33.93,17.61,38.74,5.22,12.05,11.11,14.01,11.11,14.01l45.57,11.17,16.02,3.92,50.53-15.09s23.01-64.24,13.77-100.4c-9.24-36.16-23.36-61.27-23.36-61.27,0,0-34.34-7.72-94.92-3.42l-36.34,72.22Z"/><path class="cls-7" d="m503.09,1095.43c.86,14.5,19.87,33.42,21.95,38.23,5.22,12.05,11.11,14.01,11.11,14.01l45.57,11.17,12.16-17.14s-73.77-20.52-59.8-85.56l-30.99,39.29Z"/><path class="cls-16" d="m645.07,1157.43s25.02,77.89,26.63,104.4c1.61,26.52-47.83,376.71-49.82,388.93-1.87,11.52-16.18,18.86-16.18,18.86,0,0-6.58,3.88-15.97,1.23-13.03-3.68-17.14-8.08-17.14-8.08,0,0-19.48-249.75-7.42-338.97,12.05-89.22,12.19-166.37,12.19-166.37h67.71Z"/><path class="cls-13" d="m539.05,1155.11s-38.17,51.21-41.73,85.83c-3.56,34.62-5.58,156.23-13.16,189.98-7.58,33.75-35.43,98.7-35.43,203.97,0,0,2.89,6.03,11.83,9.25,2.86,1.03,6.69,2.02,10.41,2.88,7.37,1.69,14.94-1.91,18.3-8.69,18.83-37.91,78.81-160.2,81.89-185.58,2.18-17.96,21.12-136.85,62.43-206.62,9.92-16.75-6.09-83.35-6.09-83.35l-88.45-7.66Z"/><path class="cls-7" d="m649.06,1145.41s-10.05,7.95-30,8.35c-23.84.48-82.9-6.08-82.9-6.08,0,0-2.62,7.33-2.52,15.08,0,0,72.14,18.2,113.93,2.66,0,0,5.39-10.14,1.49-20Z"/><path class="cls-3" d="m613.9,1161.98c0-6.79,4.88-12.31,10.88-12.31s10.88,5.52,10.88,12.31-4.88,12.31-10.88,12.31-10.88-5.52-10.88-12.31Zm3.6,0c0,4.8,3.26,8.71,7.27,8.71s7.27-3.9,7.27-8.71-3.26-8.71-7.27-8.71-7.27,3.91-7.27,8.71Z"/><polygon class="cls-29" points="572.67 1196.69 681.09 1197.7 734.44 1072.32 626.02 1071.31 572.67 1196.69"/><path class="cls-24" d="m586.85,1140.03l7.95-9.77s5.38-4.8,9.28-5.61c3.9-.81,12.14-5.57,12.94-4.23.8,1.34-6.33,10.89-6.33,10.89l-.36.05c8.19,6.16,28.85.72,31.4,3.23,3.09,3.04-4.26,9.62-8.2,13.32s-15.21,9.86-24,7.12c-6.42-2-16.54-4.03-16.54-4.03l-6.14-10.98Z"/><path class="cls-24" d="m726.29,1094.38s-6.81-7.74-11.15-4.03c-4.34,3.72,1.14,21.99,5.27,20.13,4.13-1.86,8.26-13.83,5.88-16.11Z"/><path class="cls-17" d="m543.78,982.59s-36.15,2.54-50.01,36.22c-13.86,33.69-39.34,89.14-33.86,112.37,2.18,9.26,28.52,41.34,138.37,20.96,0,0-.9-11.49-8.32-16.88,0,0-77.39-24.85-77.26-29.79.25-9.35,10.46-17.43,53.69-60.67,11.75-11.76-22.61-62.21-22.61-62.21Z"/><path class="cls-24" d="m567.66,984.23c-1.07-1.43.31-5.99,2.01-14.48,1.54-7.69,4.16-19.59,4.11-32.97l2.29.38,38.47,6.47s-.88,10.29-.9,19.98c0,.08,0,.16,0,.24-.05,8.42,2.27,21.13-.57,22.79-14.58,8.54-41.3,3.1-45.41-2.41Z"/><path class="cls-23" d="m614.54,943.63s-.77,14.5-.79,24.19c-21.53-.51-33.01-21.42-37.68-30.66l38.47,6.47Z"/><path class="cls-24" d="m616.86,960.92s-50.43-7.18-45.47-38.52c4.96-31.34,1.79-53.37,34.19-50.11,32.41,3.26,36.76,16.21,37.65,27.07.89,10.86-13.12,62.62-26.37,61.56Z"/><path class="cls-29" d="m628.61,875.18s-19.63,34.56-41.63,36.63c-22,2.07-30.27-5.05-30.27-5.05,0,0,18.26-10.3,25.21-32.24,0,0,39.08-18.49,46.68.66Z"/><path class="cls-29" d="m624.72,877.62s9.6,5.44,12.62,13.56c2.95,7.94,4.91,18.14,2.22,29.85,0,0,14.35-23.33,4.95-39.32-9.98-16.96-19.78-4.09-19.78-4.09Z"/><rect class="cls-31" x="860.66" y="477.52" width="918.54" height="1234.05"/><rect class="cls-2" x="894.51" y="506.68" width="850.82" height="1175.73"/><path class="cls-16" d="m1125.65,457.8c-9.55,0-17.29,7.74-17.29,17.29v33.44c0,28.02,24.37,50.73,54.43,50.73h292.35c30.06,0,54.43-22.71,54.43-50.73v-35.18c0-8.59-6.96-15.55-15.55-15.55h-368.36Z"/><path class="cls-6" d="m1137.83,1351.23h-171.81v-171.81h171.81v171.81Zm-163.72-8.09h155.63v-155.63h-155.63v155.63Z"/><path class="cls-13" d="m1056.19,1316.7c-3.6,0-7.04-1.6-9.35-4.4l-53.02-64.14c-4.27-5.17-3.55-12.82,1.62-17.09,5.17-4.27,12.82-3.55,17.09,1.62l42.05,50.86,76.06-127.67c3.43-5.76,10.88-7.64,16.64-4.21,5.76,3.43,7.65,10.88,4.21,16.64l-84.88,142.46c-2.02,3.39-5.56,5.59-9.5,5.89-.31.02-.62.04-.93.04Z"/><rect class="cls-6" x="1207.02" y="1270.97" width="418.15" height="14.11"/><rect class="cls-6" x="1207.02" y="1333.98" width="418.15" height="14.11"/><rect class="cls-6" x="1508.71" y="1302.48" width="116.46" height="14.11"/><rect class="cls-6" x="1207.02" y="1302.48" width="258.78" height="14.11"/><rect class="cls-6" x="1207.02" y="1497.3" width="418.15" height="14.11"/><rect class="cls-6" x="1207.02" y="1560.31" width="418.15" height="14.11"/><rect class="cls-6" x="1508.71" y="1528.81" width="116.46" height="14.11"/><rect class="cls-6" x="1207.02" y="1528.81" width="258.78" height="14.11"/><rect class="cls-6" x="1358.32" y="817.54" width="323.3" height="14.11"/><rect class="cls-6" x="1358.32" y="880.55" width="323.3" height="14.11"/><rect class="cls-6" x="1597.17" y="849.04" width="90.04" height="14.11"/><rect class="cls-6" x="1358.32" y="849.04" width="200.08" height="14.11"/><rect class="cls-6" x="1358.32" y="640.11" width="323.3" height="14.11"/><rect class="cls-6" x="1358.32" y="703.12" width="323.3" height="14.11"/><rect class="cls-6" x="1597.17" y="671.62" width="90.04" height="14.11"/><rect class="cls-6" x="1358.32" y="671.62" width="200.08" height="14.11"/><rect class="cls-12" x="1358.32" y="966.03" width="328.89" height="152.77" rx="22.03" ry="22.03"/><g class="cls-8"><rect class="cls-11" x="1384.79" y="1003.86" width="271.25" height="14.11"/><rect class="cls-11" x="1384.79" y="1066.87" width="271.25" height="14.11"/><rect class="cls-11" x="1585.19" y="1035.36" width="75.55" height="14.11"/><rect class="cls-11" x="1384.79" y="1035.36" width="167.87" height="14.11"/></g><path class="cls-6" d="m1137.83,1630.11h-171.81v-171.81h171.81v171.81Zm-163.72-8.09h155.63v-155.63h-155.63v155.63Z"/><path class="cls-13" d="m1056.19,1595.58c-3.6,0-7.04-1.6-9.35-4.4l-53.02-64.14c-4.27-5.17-3.55-12.82,1.62-17.09,5.17-4.27,12.82-3.55,17.09,1.62l42.05,50.86,76.06-127.67c3.43-5.76,10.88-7.64,16.64-4.21,5.76,3.43,7.65,10.88,4.21,16.64l-84.88,142.46c-2.02,3.39-5.56,5.59-9.5,5.89-.31.02-.62.04-.93.04Z"/><path class="cls-17" d="m1042.66,869.29s-197.63,72.67-293.61,266.26l65.27-11.19,27.62,46.46s76.4-174.17,233.56-226.37l-32.84-75.15Z"/><path class="cls-17" d="m977.11,879.64s203.7,53.31,317.86,236.77l-66.04-4.86-23.02,48.9s-92.81-166.01-254.26-202.85l25.46-77.96Z"/><circle class="cls-13" cx="1031.48" cy="824.33" r="252.91" transform="translate(-280.78 970.81) rotate(-45)"/><g class="cls-10"><path class="cls-1" d="m1031.47,1051.26c-125.12,0-226.92-101.8-226.92-226.92s101.8-226.92,226.92-226.92,226.93,101.8,226.93,226.92-101.8,226.92-226.93,226.92Zm0-446.92c-121.31,0-219.99,98.69-219.99,219.99s98.69,219.99,219.99,219.99,220-98.69,220-219.99-98.69-219.99-220-219.99Z"/></g><g class="cls-10"><path class="cls-1" d="m931.43,704.38h19.04v86.56h-19.04v-86.56Z"/><path class="cls-1" d="m966.18,778.33l11.25-13.48c7.79,6.43,15.95,10.51,25.84,10.51,7.79,0,12.49-3.09,12.49-8.41,0-4.82-2.97-7.3-17.44-11.01-17.44-4.45-28.69-9.27-28.69-26.71,0-15.7,12.61-26.09,30.3-26.09,12.61,0,23.37,3.96,32.15,11.01l-9.89,14.34c-7.67-5.32-15.21-8.53-22.51-8.53s-11.13,3.34-11.13,7.79c0,5.69,3.71,7.54,18.67,11.38,17.56,4.58,27.45,10.88,27.45,26.22,0,17.19-13.11,26.83-31.78,26.83-13.11,0-26.34-4.58-36.73-13.85Z"/><path class="cls-1" d="m1047.43,747.67c0-24.61,19.41-44.77,46.12-44.77s45.88,19.91,45.88,44.77-19.41,44.76-46.12,44.76-45.88-19.91-45.88-44.76Zm72.09,0c0-14.84-10.88-27.21-26.22-27.21s-25.97,12.12-25.97,27.21,10.88,27.21,26.22,27.21,25.97-12.12,25.97-27.21Z"/><text class="cls-20" transform="translate(848.79 916.46)"><tspan class="cls-18" x="0" y="0">E</tspan><tspan x="48.21" y="0">N </tspan><tspan class="cls-27" x="127.93" y="0">1</tspan><tspan class="cls-28" x="161.75" y="0">9</tspan><tspan class="cls-4" x="217.59" y="0">7</tspan><tspan x="264.5" y="0">90</tspan></text></g><path class="cls-14" d="m239.91,1711.31h111.42c5.97-5.06-4.13-16.57-14.69-17.34-4.58-.35-10.38.61-17.01,2.01-1.53-20.36-10.29-111.91-43.29-108.23-37.1,4.12,0,40.31,10.49,61.75,7.77,15.87,15.97,38.63,19.71,49.38-3.01.65-6.13,1.29-9.32,1.88-4.92-15.1-23.22-65.89-46.48-62.93-27.32,3.46-16.34,23.83,3.03,35.92,14.21,8.89,31.65,21.52,39.94,27.63-7.02,1.15-14.35,1.92-21.79,1.75-19.08-.45-28.4,5.17-32.01,8.2Z"/><path class="cls-14" d="m2389.19,1710.3h-111.42c-5.97-5.06,4.13-16.57,14.69-17.34,4.58-.35,10.38.61,17.01,2.01,1.53-20.36,10.29-111.91,43.29-108.23,37.1,4.12,0,40.31-10.49,61.74-7.77,15.87-15.96,38.64-19.71,49.38,3.01.65,6.13,1.29,9.32,1.88,4.92-15.1,23.22-65.89,46.49-62.93,27.32,3.47,16.34,23.83-3.03,35.92-14.21,8.89-31.65,21.52-39.94,27.63,7.02,1.15,14.35,1.92,21.79,1.75,19.08-.45,28.4,5.17,32.01,8.2Z"/><rect class="cls-26" y="1709.72" width="2671.6" height="7.59" rx="3.13" ry="3.13"/></g></svg>