<?xml version="1.0" encoding="UTF-8"?><svg id="Layer_2" xmlns="http://www.w3.org/2000/svg" viewBox="0 0 358.12 90.44"><defs><style>.cls-1{fill:#a5b4fc;}</style></defs><g id="Layer_1-2"><path class="cls-1" d="m.05,34.79c-.02-.23-.04-.4-.04-.57,0-2.32,0-4.65.02-6.97,0-.17.17-.38.32-.49,1.34-.98,2.7-1.93,4.05-2.9,4.86-3.46,9.73-6.92,14.59-10.38,5.53-3.94,11.07-7.88,16.6-11.81.66-.47,1.32-.95,1.98-1.42.49-.35.49-.34.97,0,3.3,2.35,6.59,4.69,9.89,7.04,3.16,2.25,6.32,4.52,9.49,6.76,3.38,2.4,6.77,4.79,10.15,7.18,2.6,1.84,5.19,3.69,7.78,5.54.21.15.32.29.32.58,0,12.36,0,24.71,0,37.07,0,.3,0,.6,0,.9,0,.23-.09.35-.34.33-.07,0-.15,0-.22,0-16.44,0-32.89,0-49.33,0-.86,0-.86,0-.87-.84,0-1.59,0-3.18,0-4.82,0-.37.3-.68.67-.69.03,0,.07,0,.1,0,5.07,0,10.15,0,15.22,0,6.5,0,12.99,0,19.49,0,2.84,0,5.67-.01,8.51,0,.34,0,.42-.12.42-.44-.01-4.62-.02-9.24-.02-13.87,0-4.76,0-9.52.02-14.28,0-.31-.09-.5-.35-.68-4.47-3.18-8.93-6.37-13.4-9.54-4.42-3.14-8.84-6.27-13.26-9.41-1.43-1.01-2.86-2.01-4.28-3.04-.34-.25-.6-.24-.93,0-2.38,1.71-4.78,3.41-7.17,5.11-3,2.13-6.01,4.26-9.01,6.4-3.6,2.56-7.19,5.14-10.79,7.7-3.34,2.38-6.68,4.74-10.02,7.11-.16.11-.31.24-.54.42Z"/><path class="cls-1" d="m0,60.47c0-5.77,0-11.54,0-17.31,0-.35.06-.61.39-.85,3.49-2.45,6.97-4.93,10.45-7.4,4.12-2.93,8.23-5.88,12.35-8.81,3.7-2.64,7.4-5.27,11.11-7.91,1.18-.84,2.36-1.68,3.55-2.49.1-.07.34-.06.45.01,2.04,1.43,4.08,2.88,6.11,4.33,3.16,2.25,6.33,4.5,9.49,6.75,3,2.14,6,4.28,9.01,6.4.38.27.53.55.53,1.03-.02,5.53-.01,11.07-.01,16.6,0,.57-.02,1.15,0,1.72.01.29-.12.38-.37.38-1.89,0-3.77,0-5.66,0-.2,0-.32-.03-.32-.29.02-1.78.03-3.57.03-5.35,0-3.31,0-6.62,0-9.93,0-.35-.1-.58-.41-.8-4.11-2.9-8.21-5.82-12.31-8.74-1.97-1.4-3.96-2.8-5.92-4.21-.3-.22-.52-.22-.83,0-3.85,2.76-7.7,5.5-11.56,8.24-3.76,2.68-7.53,5.35-11.3,8.03-2.73,1.94-5.46,3.87-8.18,5.82-.13.09-.23.32-.23.49-.02,1.47-.02,2.95-.02,4.42,0,8.61,0,17.21,0,25.82,0,.29-.01.59-.02.88,0,.57-.49,1.04-1.06,1.03-1.39,0-2.78,0-4.17,0-.24,0-.48,0-.71,0-.29.02-.39-.08-.38-.38.01-4.02.01-8.04.01-12.07,0-1.81,0-3.62,0-5.43h0Z"/><path class="cls-1" d="m13.36,78.35c-.38,0-.69-.31-.69-.69,0-8.69,0-17.29,0-25.89,0-.79-.02-1.57,0-2.36,0-.13.08-.3.18-.37,1.96-1.4,3.93-2.78,5.91-4.17.07-.05.15-.08.28-.15v26.6c0,.38.31.69.69.69.25,0,.49,0,.73,0,10.07,0,20.14-.01,30.21-.02,8.3,0,16.59,0,24.89,0,.65,0,.62-.14.62.62,0,1.76,0,3.52.01,5.28,0,.34-.08.45-.44.45-4.82-.01-9.64,0-14.47,0-15.97,0-31.93,0-47.9,0,0,0,0,0,0,0Z"/><path class="cls-1" d="m92.3,77.72V27.16h33.66c2.55,0,4.87.53,6.98,1.58,2.11,1.05,3.8,2.51,5.07,4.37,1.27,1.86,1.91,4.02,1.91,6.47s-.39,4.46-1.18,6.03c-.78,1.57-1.81,2.81-3.09,3.71-1.27.91-2.67,1.58-4.19,2.02v.29c1.76.39,3.37,1.06,4.81,2.02,1.44.96,2.61,2.29,3.49,4.01.88,1.72,1.32,3.92,1.32,6.61s-.66,5.05-1.98,7.05c-1.32,2.01-3.09,3.58-5.29,4.7-2.2,1.13-4.68,1.69-7.42,1.69h-34.1Zm16.24-30.87h11.17c.78,0,1.44-.18,1.98-.55.54-.37.97-.89,1.29-1.58.32-.69.48-1.54.48-2.57s-.37-2-1.1-2.76c-.74-.76-1.62-1.14-2.65-1.14h-11.17v8.6Zm0,19.11h12.35c1.13,0,2.03-.39,2.72-1.18.69-.78,1.03-1.96,1.03-3.53,0-.73-.16-1.41-.48-2.02-.32-.61-.76-1.09-1.32-1.43-.56-.34-1.21-.52-1.95-.52h-12.35v8.67Z"/><path class="cls-1" d="m146.03,77.72V27.16h43.73v12.13h-27.49v6.98h23.52v11.61h-23.52v7.72h28v12.13h-44.24Z"/><path class="cls-1" d="m195.19,77.72V27.16h31.68c3.77,0,6.92.76,9.44,2.28,2.52,1.52,4.42,3.5,5.7,5.95,1.27,2.45,1.91,5.1,1.91,7.94,0,3.23-.76,6.11-2.28,8.64-1.52,2.52-3.58,4.55-6.17,6.06l9.92,19.7h-18.22l-7.72-16.98h-8.01v16.98h-16.24Zm16.24-28.22h11.39c1.28,0,2.35-.5,3.23-1.51.88-1,1.32-2.34,1.32-4,0-1.03-.2-1.94-.59-2.72s-.93-1.41-1.62-1.87c-.69-.47-1.47-.7-2.35-.7h-11.39v10.8Z"/><path class="cls-1" d="m252.29,90.44l9.04-51.37h4.12l-.37,5.66h.52c1.71-2.2,3.62-3.85,5.73-4.92,2.11-1.08,4.36-1.62,6.76-1.62,2.74,0,5.07.49,6.98,1.47,1.91.98,3.36,2.5,4.34,4.56.98,2.06,1.47,4.68,1.47,7.86,0,1.08-.04,2.22-.11,3.42-.07,1.2-.23,2.49-.48,3.86-.78,4.41-2.02,8.04-3.71,10.88-1.69,2.84-3.74,4.95-6.14,6.32-2.4,1.37-5.07,2.06-8.01,2.06-1.67,0-3.22-.2-4.67-.59-1.45-.39-2.73-1.03-3.86-1.91s-2.03-2.01-2.72-3.38h-.44l-3.16,17.71h-5.29Zm18.89-16.46c2.4,0,4.49-.49,6.28-1.47,1.79-.98,3.28-2.54,4.48-4.67,1.2-2.13,2.09-4.86,2.68-8.19.24-1.32.43-2.44.55-3.34.12-.91.2-1.69.22-2.35.02-.66.04-1.26.04-1.8,0-2.25-.34-4.05-1.03-5.4-.69-1.35-1.64-2.34-2.87-2.98-1.22-.64-2.72-.95-4.48-.95-2.4,0-4.53.56-6.39,1.69-1.86,1.13-3.42,2.77-4.67,4.92-1.25,2.16-2.14,4.83-2.68,8.01-.15,1.08-.28,2.01-.4,2.79-.12.78-.21,1.47-.26,2.06-.05.59-.07,1.15-.07,1.69,0,2.7.43,4.77,1.29,6.21.86,1.45,1.93,2.44,3.23,2.98,1.3.54,2.66.81,4.08.81Z"/><path class="cls-1" d="m297.2,77.72l6.83-38.66h3.97l-.51,6.32h.37c.59-1.03,1.32-2.09,2.21-3.2.88-1.1,1.97-2.05,3.27-2.83,1.3-.78,2.85-1.18,4.67-1.18.78,0,1.47.06,2.06.18.59.12,1,.23,1.25.33l-.81,4.85h-2.42c-1.62,0-3.09.32-4.41.96-1.32.64-2.47,1.52-3.45,2.65s-1.8,2.44-2.46,3.93c-.66,1.5-1.14,3.12-1.43,4.89l-3.82,21.75h-5.29Z"/><path class="cls-1" d="m337.32,78.6c-3.23,0-5.97-.51-8.19-1.54s-3.92-2.61-5.07-4.74c-1.15-2.13-1.73-4.84-1.73-8.12,0-.98.06-2,.18-3.05.12-1.05.28-2.17.48-3.34.78-4.56,2.06-8.28,3.82-11.17,1.76-2.89,4.02-5.02,6.76-6.39,2.74-1.37,5.93-2.06,9.55-2.06,3.28,0,6.04.51,8.27,1.54s3.91,2.62,5.03,4.78c1.13,2.16,1.69,4.9,1.69,8.23,0,.93-.04,1.91-.11,2.94-.07,1.03-.23,2.13-.48,3.31-.78,4.51-2.07,8.21-3.86,11.1-1.79,2.89-4.04,5.03-6.76,6.43-2.72,1.4-5.92,2.09-9.59,2.09Zm.15-4.48c2.55,0,4.79-.51,6.72-1.54s3.55-2.63,4.85-4.81c1.3-2.18,2.22-5.01,2.76-8.49.25-1.18.42-2.18.51-3.01.1-.83.17-1.54.22-2.13.05-.59.07-1.13.07-1.62,0-2.25-.38-4.1-1.14-5.55-.76-1.44-1.85-2.52-3.27-3.23-1.42-.71-3.16-1.07-5.22-1.07-2.55,0-4.78.53-6.69,1.58-1.91,1.05-3.5,2.66-4.78,4.81-1.28,2.16-2.23,4.97-2.87,8.45-.2,1.18-.36,2.19-.48,3.05s-.21,1.57-.26,2.13c-.05.56-.07,1.11-.07,1.65,0,2.25.37,4.09,1.1,5.51.73,1.42,1.82,2.49,3.27,3.2,1.44.71,3.2,1.07,5.25,1.07Z"/></g></svg>