<?xml version="1.0" encoding="UTF-8"?><svg id="Layer_2" xmlns="http://www.w3.org/2000/svg" xmlns:xlink="http://www.w3.org/1999/xlink" viewBox="0 0 207.77 152.85"><defs><style>.cls-1{fill:url(#linear-gradient);}</style><linearGradient id="linear-gradient" x1="0" y1="76.42" x2="207.77" y2="76.42" gradientUnits="userSpaceOnUse"><stop offset="0" stop-color="#fff"/><stop offset=".51" stop-color="#e6e6e6"/><stop offset="1" stop-color="#fff"/></linearGradient></defs><g id="Layer_1-2"><path class="cls-1" d="m122.81,8.3c.67,0,1.18,0,1.69,0,4.63,0,9.27.09,13.89-.03,3.3-.09,5.86,1,8.14,3.42,4.99,5.32,10.19,10.46,15.28,15.7,5.57,5.73,11.1,11.5,16.67,17.23,4.78,4.93,9.6,9.83,14.38,14.76,3.52,3.62,7.03,7.26,10.51,10.92,2.19,2.3,2.39,4.91.65,7.12-.99,1.25-2.4,1.72-3.89,1.75-3.55.06-7.1,0-10.65,0-1.59,0-1.7.11-1.7,1.69,0,2.37-.04,4.75.03,7.12.03,1.05-.36,1.34-1.36,1.32-1.34-.04-2.69.02-4.02.15-1.06.11-1.36-.26-1.34-1.29.06-2.41.02-4.83.02-7.25,0-1.68-.05-1.74-1.76-1.74-12.08,0-24.15,0-36.23,0-1.77,0-3.55.02-5.32-.05-1.12-.05-1.54.32-1.5,1.48.08,2.5,0,5.01.05,7.51.02.92-.34,1.19-1.22,1.18-1.43-.01-2.86.05-4.28.16-.89.07-1.24-.16-1.22-1.12.07-2.59-.02-5.18.07-7.77.04-1.12-.39-1.42-1.43-1.4-1.51.03-3.03-.03-4.54-.1-1.66-.08-2.93-.99-4.03-2.11-6.62-6.76-13.21-13.54-19.81-20.31-4.58-4.7-9.16-9.4-13.73-14.12-3.57-3.69-7.14-7.38-10.65-11.13-.82-.88-1.33-.8-2.09-.02-3.73,3.91-7.46,7.81-11.23,11.68-3.13,3.22-6.33,6.38-9.47,9.6-5.8,5.93-11.58,11.88-17.36,17.83-1.32,1.36-2.57,2.8-3.92,4.14-1.08,1.07-1.34,2.37-1.34,3.78,0,3.15-.01,6.3.05,9.45.02,1.05-.31,1.46-1.41,1.43-1.38-.04-2.77.06-4.14.18-.88.08-1.25-.14-1.22-1.11.07-2.54-.01-5.09.08-7.64.04-1.16-.26-1.59-1.5-1.58-5.28.06-10.56.05-15.84,0-1.02-.01-2.08-.2-3.03-.54-3.28-1.19-3.9-5.28-2.01-7.21,3.66-3.72,7.19-7.57,10.83-11.32,7.19-7.41,14.42-14.78,21.61-22.19,8.94-9.2,17.87-18.41,26.77-27.64,1.33-1.38,2.86-1.94,4.74-1.93,8.18.03,16.36-.02,24.54.04,1.33,0,1.76-.39,1.67-1.69-.08-1.15-.02-2.34.18-3.47.34-1.98,1.67-3.12,3.7-3.13,7.79-.04,15.58-.07,23.38.01,3.21.03,4.27,1.27,4.31,4.52.02,1.16,0,2.32,0,3.73Zm66.35,61.32c-2.71-2.9-5.2-5.63-7.77-8.29-9.63-9.97-19.26-19.93-28.93-29.86-4.04-4.15-8.19-8.18-12.26-12.31-.98-1-2.06-1.43-3.46-1.42-4.07.03-8.14-.02-12.2-.03-1.6,0-1.72.11-1.72,1.67-.01,4.7,0,9.4-.04,14.11-.02,2.34-1.25,3.64-3.57,3.68-3.63.06-7.27-.02-10.9.07-1.65.04-2.95-.52-4.07-1.63-3.53-3.49-7-7.05-10.61-10.46-1.75-1.65-2.53-3.56-2.4-5.88.06-1.12-.35-1.53-1.49-1.52-3.59.05-7.18.04-10.78.02-.87,0-1.75-.12-2.62-.19-.09.11-.17.22-.26.32.83,1.01,1.59,2.08,2.5,3.01,4.92,5.1,9.88,10.16,14.81,15.24,5.51,5.67,11,11.35,16.5,17.02,4.9,5.05,9.83,10.08,14.69,15.17.98,1.03,2.05,1.37,3.44,1.37,19.87-.03,39.73-.02,59.6-.03.42,0,.85-.04,1.52-.07Zm-173.28.04c.52.11.72.19.92.18,2.51-.04,5.02-.18,7.52-.1,1.71.05,2.93-.57,4.09-1.78,8.22-8.57,16.49-17.1,24.76-25.63,5.11-5.27,10.23-10.53,15.37-15.77.75-.76.92-1.3.08-2.13-1.1-1.09-2.05-2.33-3.08-3.49-1.21-1.37-1.39-1.36-2.54.02-.3.37-.61.73-.94,1.07-6.6,6.9-13.16,13.83-19.81,20.67-8.31,8.55-16.7,17.02-25.06,25.53-.39.39-.75.81-1.31,1.42ZM110.32,18.4h.04c0,3.45-.02,6.89,0,10.34.01,1.56.25,1.76,1.84,1.8.99.02,1.99-.02,2.98.02.94.04,1.17-.39,1.13-1.26-.08-1.42-.04-2.84-.04-4.26,0-5.69,0-11.37.01-17.06,0-.94-.43-1.32-1.34-1.31-1.08,0-2.16.02-3.24-.05-1.08-.07-1.42.38-1.41,1.44.05,3.45.02,6.89.02,10.34Zm-6.94,6.86c.1-.38.28-.76.28-1.15.02-5.43,0-10.87.02-16.3,0-.77-.31-1.12-1.06-1.13-1.17-.01-2.34,0-3.5-.06-.95-.04-1.3.35-1.28,1.3.04,3.41.04,6.81.02,10.22,0,1.12.42,1.96,1.22,2.73,1.42,1.37,2.77,2.81,4.31,4.38Zm-.65,75.66c31.56,0,63.11,0,94.67,0,1.08,0,2.17.03,3.24-.07,1.75-.17,3.17-1.51,3.19-2.87.03-1.92-.97-3.13-2.96-3.48-.8-.14-1.63-.23-2.45-.23-64.24,0-128.47,0-192.71,0-.39,0-.78-.02-1.17.02-1.53.15-3.11,1.68-3.21,3.11-.11,1.53.86,2.78,2.61,3.21.83.2,1.71.28,2.56.28,32.07.01,64.15.01,96.22.01v.03Zm-28.82-26.34c-2.81,0-5.62-.03-8.43,0-2.34.03-3.82,1.44-3.86,3.78-.07,3.36-.01,6.72-.03,10.08,0,.7.21,1.02.98.97,1.47-.1,2.94-.15,4.4-.15.97,0,1.28-.43,1.25-1.35-.05-1.81.02-3.62-.05-5.43-.04-1,.29-1.39,1.33-1.36,2.81.06,5.62.03,8.43.05,1.57.01,1.74.24,1.69,1.85-.05,1.77-.04,3.53-.09,5.3-.03.85.31,1.16,1.15,1.12,1.55-.09,3.11-.13,4.66-.16.64-.01,1.07-.11,1.06-.91-.03-3.32.07-6.64-.05-9.95-.1-2.7-1.41-3.84-4.15-3.89-2.77-.04-5.53,0-8.3,0v.06ZM2.2,152.38v-34.11h14.79c2.6,0,4.78.35,6.55,1.05,1.77.7,3.11,1.69,4.01,2.96s1.36,2.78,1.36,4.51c0,1.25-.27,2.4-.82,3.43-.55,1.03-1.32,1.9-2.31,2.59-.99.69-2.14,1.17-3.46,1.44v.33c1.47.06,2.8.42,4,1.11s2.15,1.62,2.86,2.81,1.07,2.6,1.07,4.21c0,1.87-.49,3.53-1.46,4.98-.97,1.46-2.35,2.6-4.14,3.43s-3.92,1.25-6.39,1.25H2.2Zm9.26-20.32h3.8c.81,0,1.53-.13,2.15-.38s1.11-.62,1.46-1.11c.35-.48.52-1.07.52-1.77,0-1.05-.38-1.86-1.13-2.42-.76-.56-1.71-.84-2.86-.84h-3.93v6.53Zm0,12.92h4.33c1.55,0,2.72-.29,3.5-.87.78-.58,1.17-1.45,1.17-2.59,0-.8-.18-1.48-.55-2.03-.37-.56-.89-.98-1.56-1.27s-1.48-.43-2.42-.43h-4.46v7.19Zm22.05,7.39v-34.11h24.58v7.46h-15.32v5.86h14.06v7.46h-14.06v5.86h15.25v7.46h-24.51Zm29.18,0v-34.11h14.72c2.53,0,4.75.46,6.65,1.38,1.9.92,3.37,2.25,4.43,3.98,1.05,1.73,1.58,3.81,1.58,6.23s-.54,4.5-1.62,6.18-2.6,2.94-4.55,3.8c-1.95.86-4.22,1.28-6.82,1.28h-8.79v-7.19h6.93c1.09,0,2.02-.14,2.79-.41.77-.27,1.37-.71,1.78-1.31.42-.6.62-1.38.62-2.35s-.21-1.77-.62-2.39c-.42-.62-1.01-1.07-1.78-1.37-.77-.29-1.7-.44-2.79-.44h-3.26v26.71h-9.26Zm19.98-15.65l8.53,15.65h-10.06l-8.33-15.65h9.86Zm18.45,5.93c-1.34,0-2.57-.33-3.68-.99-1.11-.66-2-1.55-2.66-2.66-.66-1.11-.99-2.34-.99-3.68s.33-2.58.99-3.69c.66-1.1,1.55-1.99,2.66-2.65s2.34-.99,3.68-.99,2.58.33,3.69.99,1.99,1.54,2.65,2.65c.66,1.11.99,2.33.99,3.69s-.33,2.57-.99,3.68c-.66,1.11-1.54,2-2.65,2.66-1.1.66-2.33.99-3.69.99Zm11.52,9.73v-34.11h14.72c2.53,0,4.75.5,6.64,1.5s3.38,2.4,4.43,4.21,1.58,3.92,1.58,6.35-.54,4.56-1.62,6.34c-1.08,1.79-2.6,3.16-4.55,4.13-1.95.97-4.22,1.45-6.82,1.45h-8.79v-7.19h6.93c1.09,0,2.02-.19,2.79-.58.77-.38,1.37-.93,1.78-1.64.42-.71.62-1.55.62-2.51s-.21-1.81-.62-2.51c-.42-.69-1.01-1.23-1.78-1.6s-1.7-.56-2.79-.56h-3.26v26.71h-9.26Zm30.78,0v-34.11h14.72c2.53,0,4.75.46,6.64,1.38,1.9.92,3.38,2.25,4.43,3.98,1.05,1.73,1.58,3.81,1.58,6.23s-.54,4.5-1.62,6.18c-1.08,1.68-2.6,2.94-4.55,3.8-1.95.86-4.22,1.28-6.82,1.28h-8.79v-7.19h6.93c1.09,0,2.02-.14,2.79-.41.77-.27,1.37-.71,1.78-1.31.42-.6.62-1.38.62-2.35s-.21-1.77-.62-2.39-1.01-1.07-1.78-1.37c-.77-.29-1.7-.44-2.79-.44h-3.26v26.71h-9.26Zm19.98-15.65l8.53,15.65h-10.06l-8.33-15.65h9.86Zm44.36-1.4c0,3.8-.74,7-2.21,9.6-1.48,2.6-3.47,4.57-5.98,5.91-2.51,1.34-5.31,2.01-8.39,2.01s-5.92-.67-8.42-2.02c-2.5-1.35-4.49-3.33-5.96-5.93s-2.21-5.79-2.21-9.57.74-7,2.21-9.6c1.47-2.6,3.46-4.57,5.96-5.91,2.5-1.34,5.31-2.01,8.42-2.01s5.88.67,8.39,2.01c2.51,1.34,4.5,3.31,5.98,5.91,1.48,2.6,2.21,5.8,2.21,9.6Zm-9.53,0c0-2.04-.27-3.77-.81-5.17-.54-1.4-1.33-2.47-2.38-3.2-1.05-.73-2.34-1.09-3.87-1.09s-2.82.36-3.87,1.09c-1.05.73-1.84,1.79-2.38,3.2-.54,1.41-.81,3.13-.81,5.17s.27,3.77.81,5.17c.54,1.4,1.33,2.47,2.38,3.2,1.05.73,2.34,1.09,3.87,1.09s2.82-.36,3.87-1.09c1.05-.73,1.84-1.79,2.38-3.2.54-1.41.81-3.13.81-5.17Z"/></g></svg>