<?xml version="1.0" encoding="UTF-8"?><svg id="Layer_2" xmlns="http://www.w3.org/2000/svg" xmlns:xlink="http://www.w3.org/1999/xlink" viewBox="0 0 500 500"><defs><style>.cls-1{fill:#262626;}.cls-2{fill:url(#linear-gradient);}</style><linearGradient id="linear-gradient" x1="45.13" y1="250" x2="454.87" y2="250" gradientUnits="userSpaceOnUse"><stop offset="0" stop-color="#fff"/><stop offset=".51" stop-color="#e6e6e6"/><stop offset="1" stop-color="#fff"/></linearGradient></defs><g id="Layer_1-2"><rect class="cls-1" width="500" height="500"/><path class="cls-2" d="m287.32,115.66c1.33,0,2.33,0,3.33,0,9.13,0,18.27.18,27.4-.06,6.5-.18,11.56,1.96,16.05,6.75,9.85,10.5,20.09,20.63,30.13,30.96,10.98,11.3,21.89,22.67,32.87,33.98,9.43,9.72,18.93,19.38,28.36,29.1,6.94,7.15,13.87,14.31,20.72,21.54,4.31,4.54,4.71,9.68,1.28,14.04-1.95,2.47-4.73,3.39-7.67,3.44-7,.12-14,0-21-.02-3.13,0-3.35.22-3.36,3.34-.01,4.68-.08,9.36.05,14.04.06,2.06-.71,2.65-2.68,2.6-2.64-.07-5.3.03-7.92.3-2.08.21-2.69-.51-2.64-2.54.12-4.76.04-9.53.04-14.3,0-3.32-.11-3.43-3.47-3.43-23.82,0-47.64.02-71.46.02-3.5,0-7,.05-10.5-.11-2.21-.1-3.04.64-2.97,2.91.15,4.93,0,9.87.1,14.8.03,1.81-.67,2.35-2.41,2.34-2.81-.02-5.63.1-8.43.32-1.75.14-2.45-.32-2.4-2.21.13-5.1-.03-10.21.13-15.31.07-2.2-.77-2.81-2.82-2.77-2.98.06-5.97-.06-8.95-.2-3.27-.15-5.78-1.94-7.95-4.16-13.05-13.33-26.05-26.7-39.06-40.06-9.03-9.28-18.07-18.55-27.07-27.85-7.04-7.28-14.09-14.55-21-21.94-1.62-1.73-2.63-1.59-4.11-.03-7.35,7.71-14.72,15.4-22.14,23.03-6.18,6.35-12.48,12.59-18.67,18.93-11.43,11.7-22.84,23.43-34.23,35.16-2.61,2.69-5.07,5.52-7.73,8.16-2.14,2.11-2.64,4.68-2.64,7.46,0,6.21-.02,12.42.09,18.63.04,2.07-.62,2.88-2.78,2.82-2.72-.07-5.46.12-8.17.36-1.74.15-2.46-.28-2.4-2.18.14-5.02-.03-10.04.15-15.06.08-2.29-.52-3.14-2.96-3.11-10.41.11-20.83.09-31.24-.02-2-.02-4.1-.39-5.98-1.07-6.47-2.34-7.69-10.42-3.96-14.21,7.22-7.34,14.19-14.93,21.36-22.33,14.17-14.62,28.43-29.16,42.62-43.76,17.63-18.14,35.24-36.3,52.8-54.51,2.62-2.72,5.65-3.83,9.36-3.81,16.13.06,32.27-.03,48.4.08,2.62.02,3.47-.76,3.29-3.34-.15-2.27-.03-4.61.36-6.85.68-3.9,3.3-6.15,7.3-6.17,15.37-.07,30.73-.13,46.1.03,6.33.06,8.42,2.51,8.5,8.91.03,2.29,0,4.58,0,7.36Zm130.86,120.94c-5.35-5.72-10.26-11.11-15.32-16.35-18.98-19.66-37.98-39.31-57.05-58.88-7.97-8.18-16.15-16.14-24.17-24.27-1.93-1.96-4.07-2.82-6.83-2.8-8.02.07-16.05-.04-24.07-.07-3.15-.01-3.39.21-3.4,3.28-.03,9.27-.01,18.55-.07,27.82-.03,4.62-2.47,7.19-7.05,7.26-7.17.12-14.34-.04-21.5.14-3.25.08-5.81-1.03-8.02-3.22-6.96-6.89-13.8-13.9-20.92-20.63-3.45-3.26-4.99-7.01-4.73-11.59.13-2.2-.68-3.02-2.93-2.99-7.08.11-14.17.08-21.25.04-1.72,0-3.44-.24-5.16-.37-.17.21-.34.43-.5.64,1.63,1.99,3.14,4.1,4.92,5.94,9.7,10.05,19.48,20.03,29.21,30.05,10.86,11.18,21.69,22.39,32.54,33.57,9.66,9.96,19.38,19.88,28.98,29.91,1.94,2.03,4.04,2.7,6.79,2.7,39.18-.07,78.36-.05,117.53-.06.84,0,1.67-.07,3-.14Zm-341.73.07c1.03.21,1.42.37,1.82.36,4.94-.07,9.89-.35,14.83-.19,3.38.11,5.77-1.12,8.06-3.51,16.22-16.9,32.52-33.72,48.82-50.55,10.08-10.4,20.17-20.78,30.32-31.1,1.47-1.5,1.81-2.56.16-4.2-2.17-2.15-4.05-4.6-6.08-6.89-2.38-2.7-2.74-2.68-5.01.05-.6.72-1.2,1.44-1.85,2.12-13.01,13.6-25.95,27.27-39.08,40.77-16.39,16.86-32.94,33.57-49.42,50.35-.76.78-1.47,1.6-2.58,2.8Zm186.25-101.09h.08c0,6.8-.04,13.59.02,20.39.03,3.08.49,3.47,3.63,3.54,1.96.04,3.92-.05,5.88.04,1.86.08,2.31-.76,2.22-2.49-.15-2.79-.09-5.59-.09-8.39,0-11.21,0-22.42.03-33.64,0-1.85-.85-2.6-2.64-2.59-2.13.02-4.27.04-6.39-.09-2.13-.13-2.81.75-2.77,2.84.1,6.79.04,13.59.04,20.39Zm-13.68,13.53c.19-.75.55-1.51.55-2.27.04-10.72,0-21.44.04-32.15,0-1.52-.61-2.2-2.09-2.22-2.3-.03-4.61-.02-6.91-.11-1.87-.08-2.55.69-2.53,2.57.09,6.72.08,13.44.04,20.16-.01,2.21.82,3.87,2.4,5.39,2.8,2.7,5.46,5.54,8.5,8.64Zm-1.27,149.21c62.23,0,124.46,0,186.69,0,2.13,0,4.28.07,6.4-.14,3.45-.34,6.25-2.97,6.29-5.66.06-3.79-1.91-6.17-5.84-6.85-1.59-.28-3.21-.45-4.82-.45-126.68-.02-253.37,0-380.05,0-.77,0-1.54-.04-2.3.04-3.01.29-6.12,3.32-6.33,6.13-.22,3.01,1.69,5.49,5.14,6.32,1.63.4,3.36.55,5.05.56,63.26.03,126.51.02,189.77.02v.05Zm-56.83-51.95c-5.54,0-11.08-.05-16.62.02-4.62.06-7.53,2.83-7.62,7.46-.13,6.63-.02,13.26-.05,19.89,0,1.38.42,2.01,1.94,1.91,2.89-.2,5.79-.3,8.69-.3,1.91,0,2.52-.85,2.47-2.66-.1-3.57.03-7.14-.1-10.71-.07-1.98.57-2.73,2.62-2.69,5.54.12,11.08.05,16.62.1,3.09.03,3.42.48,3.33,3.64-.1,3.48-.07,6.97-.19,10.45-.05,1.67.61,2.29,2.27,2.2,3.06-.17,6.13-.26,9.19-.32,1.27-.02,2.11-.22,2.1-1.8-.06-6.54.14-13.09-.1-19.63-.2-5.32-2.77-7.58-8.18-7.66-5.45-.08-10.91-.02-16.37-.02v.12ZM49.46,399.8v-67.26h29.17c5.12,0,9.43.69,12.92,2.07,3.49,1.38,6.13,3.33,7.92,5.85s2.68,5.49,2.68,8.9c0,2.47-.54,4.73-1.63,6.77-1.08,2.04-2.6,3.74-4.55,5.11-1.95,1.37-4.23,2.31-6.83,2.84v.66c2.89.11,5.52.84,7.88,2.18s4.25,3.2,5.65,5.55,2.1,5.12,2.1,8.29c0,3.68-.96,6.95-2.87,9.82-1.92,2.87-4.64,5.12-8.16,6.77s-7.73,2.46-12.61,2.46h-31.66Zm18.26-40.07h7.49c1.6,0,3.01-.25,4.24-.75s2.18-1.23,2.87-2.18c.69-.95,1.03-2.12,1.03-3.5,0-2.08-.74-3.67-2.23-4.78-1.49-1.11-3.37-1.66-5.65-1.66h-7.75v12.87Zm0,25.49h8.54c3.07,0,5.36-.57,6.9-1.72,1.53-1.15,2.3-2.85,2.3-5.11,0-1.58-.36-2.91-1.08-4.01-.72-1.1-1.75-1.93-3.07-2.5s-2.92-.86-4.78-.86h-8.8v14.19Zm43.48,14.58v-67.26h48.48v14.71h-30.22v11.56h27.72v14.71h-27.72v11.56h30.08v14.71h-48.35Zm57.54,0v-67.26h29.03c4.99,0,9.36.91,13.1,2.73,3.74,1.82,6.66,4.44,8.74,7.85,2.08,3.42,3.12,7.51,3.12,12.28s-1.07,8.88-3.2,12.19-5.12,5.8-8.97,7.49c-3.84,1.69-8.33,2.53-13.45,2.53h-17.34v-14.19h13.66c2.15,0,3.98-.27,5.5-.81,1.52-.54,2.69-1.4,3.51-2.58.82-1.18,1.23-2.73,1.23-4.63s-.41-3.5-1.23-4.71c-.82-1.22-1.99-2.11-3.51-2.69-1.52-.58-3.36-.87-5.5-.87h-6.44v52.68h-18.26Zm39.41-30.87l16.81,30.87h-19.84l-16.42-30.87h19.44Zm36.39,11.69c-2.65,0-5.07-.65-7.26-1.95-2.19-1.3-3.94-3.05-5.24-5.24-1.3-2.19-1.95-4.61-1.95-7.26s.65-5.1,1.95-7.28c1.3-2.18,3.05-3.92,5.24-5.22s4.61-1.95,7.26-1.95,5.1.65,7.27,1.95,3.92,3.04,5.22,5.22c1.3,2.18,1.95,4.6,1.95,7.28s-.65,5.07-1.95,7.26c-1.3,2.19-3.04,3.94-5.22,5.24-2.18,1.3-4.6,1.95-7.27,1.95Zm22.73,19.18v-67.26h29.03c4.99,0,9.36.99,13.1,2.96s6.66,4.74,8.74,8.31,3.12,7.74,3.12,12.51-1.07,8.99-3.2,12.51c-2.14,3.52-5.12,6.24-8.97,8.14-3.84,1.9-8.33,2.86-13.45,2.86h-17.34v-14.19h13.66c2.15,0,3.98-.38,5.5-1.13,1.52-.75,2.69-1.83,3.51-3.23.82-1.4,1.23-3.05,1.23-4.96s-.41-3.57-1.23-4.94c-.82-1.37-1.99-2.42-3.51-3.15s-3.35-1.1-5.5-1.1h-6.44v52.68h-18.26Zm60.7,0v-67.26h29.03c4.99,0,9.36.91,13.1,2.73,3.74,1.82,6.66,4.44,8.74,7.85,2.08,3.42,3.12,7.51,3.12,12.28s-1.07,8.88-3.2,12.19c-2.14,3.31-5.12,5.8-8.97,7.49-3.84,1.69-8.33,2.53-13.45,2.53h-17.34v-14.19h13.66c2.15,0,3.98-.27,5.5-.81,1.52-.54,2.69-1.4,3.51-2.58.82-1.18,1.23-2.73,1.23-4.63s-.41-3.5-1.23-4.71-1.99-2.11-3.51-2.69c-1.52-.58-3.35-.87-5.5-.87h-6.44v52.68h-18.26Zm39.41-30.87l16.82,30.87h-19.84l-16.42-30.87h19.44Zm87.49-2.76c0,7.49-1.46,13.8-4.37,18.93-2.91,5.13-6.84,9.02-11.79,11.66-4.95,2.64-10.47,3.96-16.55,3.96s-11.67-1.33-16.6-3.99c-4.94-2.66-8.86-6.56-11.76-11.69s-4.35-11.42-4.35-18.87,1.45-13.8,4.35-18.94c2.9-5.13,6.82-9.02,11.76-11.66,4.94-2.64,10.47-3.96,16.6-3.96s11.6,1.32,16.55,3.96c4.95,2.64,8.88,6.53,11.79,11.66,2.91,5.14,4.37,11.45,4.37,18.94Zm-18.79,0c0-4.03-.53-7.43-1.59-10.2-1.06-2.77-2.63-4.87-4.7-6.31-2.07-1.43-4.61-2.15-7.63-2.15s-5.57.72-7.64,2.15c-2.07,1.43-3.64,3.54-4.7,6.31-1.06,2.77-1.59,6.17-1.59,10.2s.53,7.43,1.59,10.2c1.06,2.77,2.63,4.87,4.7,6.31,2.07,1.43,4.61,2.15,7.64,2.15s5.57-.72,7.63-2.15c2.07-1.43,3.64-3.54,4.7-6.31,1.06-2.77,1.59-6.17,1.59-10.2Z"/></g></svg>