<?xml version="1.0" encoding="UTF-8"?><svg id="Layer_2" xmlns="http://www.w3.org/2000/svg" viewBox="0 0 1994.45 1359.71"><defs><style>.cls-1{fill:#fff;}.cls-2{fill:#2da029;}.cls-3{fill:#e88520;}.cls-4{fill:#f8ea26;}.cls-5{fill:#ea0001;}.cls-6{fill:#a8d714;}.cls-7{fill:#f3c002;}.cls-8{fill:#057b2f;}</style></defs><g id="Layer_1-2"><path class="cls-8" d="m689.56.14c-25.56,1.35-49.69,12.6-67.15,31.41L16.33,581.45c-.33.3-.64.59-.96.9-2.57,2.49-4.73,5.05-6.61,7.83-10.56,15.52-11.64,35.51-2.82,52.19,8.8,16.63,25.97,26.97,44.81,26.97h137.05v606.52c0,46.31,37.54,83.85,83.85,83.85h417.91V.14Z"/><polygon class="cls-8" points="1023.84 170.35 720.97 170.35 720.97 0 1023.84 0 1210.55 85.18 1023.84 170.35"/><polygon class="cls-2" points="1154.49 368.58 720.97 368.58 720.97 198.23 1154.49 198.23 1341.2 283.4 1154.49 368.58"/><polygon class="cls-6" points="1285.14 566.8 720.97 566.8 720.97 396.45 1285.14 396.45 1471.85 481.63 1285.14 566.8"/><polygon class="cls-4" points="1415.79 765.03 720.97 765.03 720.97 594.68 1415.79 594.68 1602.5 679.86 1415.79 765.03"/><polygon class="cls-7" points="1546.44 963.26 720.97 963.26 720.97 792.91 1546.44 792.91 1733.15 878.08 1546.44 963.26"/><polygon class="cls-3" points="1677.09 1161.48 720.97 1161.48 720.97 991.13 1677.09 991.13 1863.8 1076.31 1677.09 1161.48"/><polygon class="cls-5" points="1807.74 1359.71 720.97 1359.71 720.97 1189.36 1807.74 1189.36 1994.45 1274.54 1807.74 1359.71"/><path class="cls-1" d="m972.97,116.52h-37.26l-6.13,18.71h-30.19l42.29-110.06h26.1l42.29,110.06h-30.82l-6.29-18.71Zm-6.76-20.75l-11.95-35.53-11.63,35.53h23.58Z"/><path class="cls-1" d="m1125.24,301.74c0,22.17-15.41,33.8-40.56,33.8h-48.74v-110.06h53.14c21.07,0,33.02,11.16,33.02,29.09,0,10.69-5.03,17.45-11.32,21.54,8.65,4.25,14.46,12.26,14.46,25.63Zm-60.69-56.13v23.9h16.51c10.38,0,14.62-4.72,14.62-11.95s-3.46-11.95-14.78-11.95h-16.35Zm32.7,56.29c0-8.33-5.03-12.26-14.94-12.26h-17.77v25.79h16.51c10.53,0,16.19-4.56,16.19-13.52Z"/><path class="cls-1" d="m1155.98,484.38c0-38.21,22.17-59.59,58.49-59.59,11.79,0,20.75,1.42,27.51,4.25v24.53c-5.97-2.99-13.84-4.72-24.06-4.72-21.38,0-33.02,11.48-33.02,34.75s11.01,33.17,32.55,33.17c10.85,0,18.55-2.36,25.31-5.97v24.37c-7.39,3.77-18.24,5.97-29.56,5.97-36.63,0-57.23-20.44-57.23-56.76Z"/><path class="cls-1" d="m1393.33,679.97c0,35.22-19.34,55.03-55.97,55.03h-44.18v-110.06h44.18c36.63,0,55.97,19.81,55.97,55.03Zm-28.93,0c0-20.6-9.28-30.82-28.46-30.82h-14.15v61.63h14.15c19.18,0,28.46-10.22,28.46-30.82Z"/><path class="cls-1" d="m1491.03,911.28v22.48h-77.98v-110.06h77.04v22.48h-48.43v20.6h44.65v22.48h-44.65v22.01h49.37Z"/><path class="cls-1" d="m1573.77,1049.47v24.06h41.19v24.68h-41.19v36.63h-28.62v-110.06h76.73v24.68h-48.11Z"/><path class="cls-1" d="m1754.95,1266.68v58.65c-11.16,3.93-25.63,6.76-41.19,6.76-36.48,0-56.92-21.38-56.92-57.55s19.65-58.8,61.63-58.8c11.79,0,20.91,1.57,31.45,5.19v24.84c-9.91-3.93-19.02-5.97-30.97-5.97-22.96,0-33.17,13.21-33.17,34.12s9.43,34.28,30.82,34.28c4.09,0,8.18-.47,12.26-1.26v-18.08h-18.55v-22.17h44.65Z"/></g></svg>