<?xml version="1.0" encoding="UTF-8"?><svg id="Layer_2" xmlns="http://www.w3.org/2000/svg" viewBox="0 0 140.55 154.01"><defs><style>.cls-1{fill:#fff;}.cls-2{fill:#101c2f;}.cls-3{fill:#00272e;}.cls-4{fill:#87be4b;}.cls-5{fill:#3b9d81;}.cls-6{fill:#16162b;}.cls-7{fill:#fab903;}</style></defs><g id="Layer_1-2"><path class="cls-1" d="m135.72,53.31c-2.96-1.93-5.72-2.96-6.15-2.3,0,.01,0,.03-.01.04h0s-3.13,4.8-3.14,4.82c-.43.66,1.62,2.77,4.59,4.7,2.96,1.93,5.72,2.96,6.15,2.3.02-.02,3.15-4.82,3.15-4.82h-.01s.02-.03.03-.04c.43-.66-1.62-2.77-4.59-4.7Z"/><path class="cls-3" d="m135.82,53.15c-1.72-1.12-3.41-1.97-4.65-2.34-.94-.28-1.53-.25-1.76.1,0,0,0,.01,0,.02,0,0,0,.01-.01.02,0,0-3.11,4.77-3.14,4.82-.27.41.08,1.13,1.04,2.11.88.9,2.15,1.91,3.6,2.85,1.72,1.12,3.42,1.97,4.66,2.34.94.28,1.54.25,1.76-.1.03-.05,3.15-4.82,3.15-4.82,0-.01.02-.03.02-.04.57-.9-1.9-3.17-4.64-4.96Zm4.3,4.77s-.03.05-.03.08c-.46.7-3.1,4.74-3.11,4.76-.09.14-.49.19-1.34-.06-1.19-.35-2.89-1.21-4.55-2.29-1.42-.93-2.68-1.92-3.54-2.8-.98-1-1.08-1.5-1-1.64.01-.02,2.92-4.48,3.13-4.81.01-.02.03-.04.04-.05.09-.14.49-.19,1.33.06,1.19.35,2.89,1.21,4.55,2.29,3.23,2.1,4.81,4,4.55,4.41,0,0-.03.03-.04.04Z"/><path class="cls-5" d="m133.86,56.04c-4.24-2.76-8.17-4.23-8.79-3.28-.01.02-17.02,25.55-17.04,25.58-.62.95,2.32,3.96,6.55,6.72,4.24,2.76,8.17,4.23,8.79,3.28.02-.03,17.03-25.56,17.04-25.58.62-.95-2.32-3.96-6.55-6.72Z"/><path class="cls-3" d="m131.97,58.86c-3.9-2.54-7.52-3.89-8.09-3.02,0,.02-13.42,20.18-13.45,20.21-.57.87,2.13,3.64,6.03,6.18,3.9,2.54,7.52,3.89,8.09,3.02.02-.03,13.44-20.2,13.45-20.21.57-.87-2.13-3.64-6.03-6.18Z"/><path class="cls-3" d="m136.79,62.44c-1.15-1.18-2.83-2.51-4.72-3.74-2.25-1.47-4.48-2.59-6.1-3.07-1.21-.36-1.97-.32-2.25.1l-2.87,4.32c-5.34,8.03-10.56,15.87-10.57,15.9-.34.52.12,1.43,1.36,2.7,1.15,1.18,2.83,2.51,4.72,3.74,2.25,1.47,4.48,2.59,6.11,3.07h0c1.21.36,1.97.32,2.25-.1.03-.05,6.57-9.87,10.51-15.8,1.71-2.57,2.93-4.41,2.94-4.41.34-.52-.12-1.43-1.36-2.7Zm1.05,2.49l-2.93,4.41c-5.31,7.98-10.5,15.78-10.51,15.8-.06.1-.38.38-1.82-.05h0c-1.57-.46-3.81-1.6-6.01-3.02-1.87-1.22-3.53-2.53-4.66-3.69-1.22-1.25-1.48-1.97-1.32-2.23.03-.05,6.63-9.97,10.57-15.89,1.68-2.52,2.87-4.31,2.87-4.32.06-.1.38-.38,1.82.05,1.57.47,3.82,1.6,6.01,3.02,1.88,1.22,3.53,2.53,4.66,3.69,1.22,1.25,1.48,1.97,1.32,2.23Z"/><path class="cls-4" d="m119.09,78.15c-3.74-2.44-6.33-5.09-5.78-5.93,0-.01.02-.05.02-.05,0,0-2.09,3.13-2.1,3.15-.54.84,2.04,3.49,5.79,5.93,3.74,2.44,7.22,3.73,7.76,2.9,0-.01.83-1.25,2.02-3.04-.69.7-4.06-.59-7.7-2.96Z"/><path class="cls-3" d="m126.92,80.95c-.08-.06-.19-.05-.25.02-.08.08-.42.29-1.71-.09-1.52-.45-3.62-1.51-5.75-2.89-1.8-1.17-3.38-2.43-4.47-3.54-1.17-1.2-1.42-1.89-1.26-2.13.02-.03.03-.07.04-.1.03-.09-.02-.19-.1-.23-.08-.04-.19-.01-.24.07,0,0-2.07,3.11-2.1,3.15-.71,1.09,2.48,4,5.84,6.19,2.16,1.41,4.3,2.48,5.86,2.95h0c1.17.35,1.89.31,2.17-.1.02-.03.84-1.26,2.02-3.04.05-.08.04-.19-.04-.25Zm-2.3,3.08c-.06.09-.36.36-1.74-.05-1.5-.45-3.66-1.53-5.76-2.9-4.1-2.67-6.1-5.1-5.73-5.66,0-.01,1.12-1.68,1.72-2.58.16.49.61,1.11,1.35,1.87,1.1,1.13,2.71,2.4,4.53,3.59,2.16,1.41,4.29,2.48,5.85,2.94.62.18,1.11.26,1.48.23-1.01,1.53-1.69,2.55-1.7,2.56Z"/><path class="cls-4" d="m121.09,75.18c-3.73-2.45-6.42-4.96-5.99-5.62,0-.01.01-.04.01-.04,0,0-1.96,2.93-1.96,2.94-.42.65,2.26,3.17,5.99,5.62,3.73,2.45,7.1,3.9,7.52,3.25,0-.01.98-1.47,1.9-2.86-.57.52-3.84-.91-7.47-3.29Z"/><path class="cls-3" d="m128.68,78.33c-.07-.06-.18-.06-.25,0-.03.03-.23.15-1.07-.1-1.42-.42-3.79-1.65-6.17-3.22-4.33-2.84-6.17-5-5.94-5.36.01-.02.04-.08.04-.1.02-.09-.03-.18-.11-.21-.09-.03-.18,0-.23.07,0,0-1.96,2.93-1.96,2.95-.64.99,3.27,4.06,6.05,5.88,2.42,1.58,4.82,2.84,6.28,3.27h0c.83.25,1.31.22,1.51-.08,0-.01.12-.18.29-.45l1.6-2.41c.05-.08.04-.19-.03-.25Zm-1.88,2.45c-.19.28-.3.45-.3.45,0,0-.14.2-1.08-.08-1.43-.42-3.79-1.66-6.18-3.22-4.33-2.84-6.17-5-5.94-5.35.02-.03,1.11-1.66,1.66-2.48.57,1.32,3.7,3.72,6.03,5.25,3.01,1.97,5.98,3.4,7.15,3.43l-1.33,2.01Z"/><path class="cls-4" d="m131.66,59.32c-3.74-2.44-7.22-3.73-7.76-2.9,0,.01-.83,1.25-2.02,3.04.69-.7,4.06.59,7.7,2.96,3.74,2.44,6.33,5.09,5.78,5.93,0,.02-.02.05-.02.05,0,0,2.09-3.13,2.1-3.15.55-.84-2.04-3.49-5.79-5.93Z"/><path class="cls-3" d="m136.3,62.75c-1.1-1.13-2.71-2.4-4.53-3.59-2.16-1.41-4.3-2.48-5.86-2.95-1.17-.35-1.89-.31-2.17.1-.01.02-.4.61-1.03,1.55l-.99,1.49c-.05.08-.04.19.04.25.08.06.19.05.25-.01.08-.08.42-.3,1.71.09,1.53.45,3.62,1.51,5.75,2.89,1.8,1.17,3.38,2.43,4.47,3.54,1.17,1.2,1.42,1.89,1.26,2.13-.02.03-.04.07-.04.1-.03.09.02.19.1.23,0,0,.02,0,.03,0,.08.02.16,0,.21-.08,0,0,2.09-3.13,2.1-3.15.33-.5-.11-1.38-1.31-2.6Zm.99,2.39s-1.12,1.68-1.72,2.58c-.16-.49-.61-1.11-1.35-1.87-1.1-1.13-2.71-2.4-4.53-3.59-2.16-1.41-4.29-2.48-5.85-2.94-.62-.18-1.11-.26-1.48-.23l.67-1.01c.63-.95,1.03-1.54,1.03-1.55.06-.09.36-.36,1.74.05,1.5.45,3.66,1.53,5.76,2.9,1.8,1.17,3.39,2.43,4.47,3.54,1.17,1.2,1.42,1.89,1.26,2.13Z"/><path class="cls-4" d="m129.54,62.48c-3.73-2.45-7.1-3.9-7.52-3.25,0,.01-.98,1.47-1.9,2.86.57-.52,3.85.91,7.47,3.29,3.73,2.45,6.42,4.96,5.99,5.62,0,.01-.01.04-.01.04,0,0,1.96-2.93,1.96-2.94.42-.65-2.26-3.17-6-5.62Z"/><path class="cls-3" d="m129.64,62.32c-2.41-1.58-4.82-2.84-6.28-3.27-.83-.25-1.31-.22-1.51.08-.07.11-1.01,1.51-1.9,2.85-.05.08-.04.19.04.25.07.06.18.06.25,0,.03-.03.23-.16,1.07.09,1.42.42,3.79,1.66,6.17,3.22,4.33,2.84,6.17,5,5.94,5.36-.01.02-.04.08-.04.1-.02.09.03.18.11.21,0,0,.01,0,.02,0,.08.02.16,0,.21-.08,0,0,1.96-2.93,1.96-2.95.63-.99-3.27-4.06-6.05-5.88Zm4.08,8.16c-.57-1.32-3.7-3.72-6.03-5.25-2.41-1.58-4.81-2.83-6.27-3.26-.36-.11-.65-.16-.88-.17.8-1.21,1.57-2.35,1.64-2.46,0,0,.14-.2,1.08.08,1.43.42,3.79,1.66,6.18,3.22,4.33,2.84,6.17,5,5.94,5.35-.02.03-1.11,1.66-1.66,2.48Z"/><path class="cls-4" d="m127.56,65.43c-3.73-2.45-6.96-4.11-7.39-3.46,0,.01-.98,1.47-1.9,2.86.57-.52,3.71,1.12,7.33,3.5,3.73,2.45,6.55,4.76,6.13,5.41,0,.01-.01.04-.01.04,0,0,1.96-2.93,1.96-2.94.42-.65-2.4-2.96-6.13-5.41Z"/><path class="cls-3" d="m127.66,65.27c-2.83-1.85-5.17-3.13-6.44-3.51-.41-.12-.99-.24-1.22.11-.08.13-1.01,1.52-1.89,2.85-.05.08-.04.19.03.25.07.06.18.06.25,0,.02-.02.17-.12.78.06,1.21.36,3.52,1.62,6.32,3.46,4.81,3.16,6.28,4.83,6.08,5.15-.01.02-.04.08-.04.11-.02.09.03.18.11.21,0,0,.01,0,.02,0,.08.02.16,0,.21-.08,0,0,1.96-2.93,1.96-2.95.64-.99-3.6-3.98-6.19-5.67Zm4.2,7.97c-.62-1.3-3.97-3.64-6.15-5.07-2.87-1.88-5.15-3.13-6.42-3.51-.24-.07-.43-.11-.6-.12.8-1.2,1.56-2.35,1.64-2.47.04-.06.24-.11.79.05,1.23.36,3.54,1.63,6.34,3.46,4.81,3.16,6.28,4.84,6.08,5.15-.02.03-1.13,1.69-1.67,2.5Z"/><path class="cls-4" d="m118.59,64.34l-1.9,2.86s3.14,1.96,6.77,4.34c3.73,2.45,6.69,4.57,6.69,4.57l1.95-2.9s-2.96-2.13-6.7-4.57c-3.73-2.45-6.82-4.29-6.82-4.29Z"/><path class="cls-3" d="m132.22,73.05s-3.01-2.16-6.7-4.58c-3.69-2.42-6.8-4.28-6.83-4.3-.09-.05-.2-.03-.26.06l-1.9,2.86s-.04.09-.03.14c.01.05.04.09.09.12.03.02,3.18,1.98,6.77,4.34,3.69,2.42,6.66,4.55,6.69,4.57.02.01.04.02.06.03.03,0,.06,0,.09,0,.05-.01.1-.04.12-.08l1.95-2.9c.06-.09.04-.2-.05-.26Zm-2.11,2.79c-.67-.47-3.33-2.36-6.54-4.46-3.12-2.05-5.91-3.8-6.61-4.24l1.69-2.55c.67.41,3.44,2.09,6.66,4.2,3.22,2.11,5.89,4,6.54,4.46l-1.74,2.59Z"/><path class="cls-4" d="m116.6,67.3l-1.95,2.9s2.96,2.13,6.7,4.57c3.73,2.45,6.82,4.29,6.82,4.29l1.9-2.86s-3.14-1.96-6.77-4.34c-3.73-2.45-6.7-4.57-6.7-4.57Z"/><path class="cls-3" d="m130.17,76.05s-3.18-1.98-6.77-4.34c-3.69-2.42-6.66-4.55-6.69-4.57-.04-.03-.09-.04-.15-.03-.05,0-.09.04-.12.08l-1.95,2.9c-.06.08-.04.2.05.26.03.02,3.01,2.16,6.7,4.58,3.69,2.42,6.8,4.28,6.83,4.3.01,0,.03.01.04.02.08.02.16,0,.21-.08l1.9-2.86s.04-.1.03-.15c-.01-.05-.04-.09-.09-.12Zm-2.06,2.76c-.67-.4-3.44-2.08-6.66-4.2-3.22-2.11-5.89-4-6.54-4.46l1.74-2.59c.66.47,3.33,2.36,6.54,4.46,3.12,2.05,5.92,3.8,6.61,4.24l-1.69,2.55Z"/><polygon class="cls-7" points="120.99 76.76 119.68 75.89 118.78 77.23 117.44 76.33 116.56 77.63 117.91 78.54 117 79.88 118.3 80.76 119.21 79.41 120.55 80.32 121.43 79.01 120.08 78.11 120.99 76.76"/><path class="cls-3" d="m121.25,76.71l-1.62-1.09-.9,1.34-1.34-.9-1.09,1.62,1.35.9-.9,1.34,1.62,1.09.9-1.35,1.35.9,1.09-1.62-1.35-.9.9-1.34Zm-.08,2.35l-.66.99-1.34-.9-.9,1.35-.99-.66.9-1.35-1.35-.9.67-.99,1.34.9.9-1.34.99.66-.9,1.34,1.35.9Z"/><rect class="cls-7" x="127.35" y="61.51" width="4.81" height="1.57" transform="translate(5.74 135.35) rotate(-56.15)"/><path class="cls-3" d="m127.5,63.91l1.62,1.09,2.89-4.31-1.62-1.09-2.89,4.31Zm3.98-3.12l-2.47,3.68-.99-.66,2.47-3.68.99.66Z"/><path class="cls-6" d="m84.86,54.11s-.73-6.06-11.29-3.61c-7.64,1.77-9.01,1.17-9.01,1.17,0,0,.85,2.76,4.03,3.5,0,0-5.52-.69-5.2,4.93.32,5.62,3.77,6.42,3.82,9.01.05,2.6-4.67,5.41.26,9.07,4.93,3.66,15.95,10.25,23.23-.53,7.05-10.45.74-28.26-5.83-23.54Z"/><path class="cls-6" d="m87.07,53.11c-.69,0-1.39.21-2.06.64-.29-1.03-1.58-4.05-6.89-4.05-1.36,0-2.91.2-4.6.59-4.49,1.04-6.8,1.26-7.95,1.26-.69,0-.92-.08-.92-.08-.08-.04-.17-.02-.24.04-.06.06-.09.15-.06.23.03.1.69,2.16,2.96,3.22-.92.1-2.12.42-3,1.35-.84.89-1.22,2.17-1.13,3.81.19,3.38,1.49,5.05,2.53,6.39.71.91,1.26,1.62,1.28,2.62.02.76-.43,1.57-.89,2.43-1.02,1.87-2.28,4.19,1.25,6.81,4.84,3.59,9.3,5.41,13.27,5.41h0c4.13,0,7.58-2.02,10.27-6,4.21-6.24,3.79-15.49.95-20.83-1.32-2.48-3.01-3.84-4.76-3.84Zm3.45,24.42c-2.6,3.85-5.93,5.8-9.9,5.8h0c-3.82,0-8.31-1.84-13.01-5.32-3.22-2.39-2.16-4.35-1.12-6.24.5-.91.97-1.77.95-2.65-.02-1.14-.65-1.95-1.38-2.88-1.01-1.29-2.26-2.9-2.44-6.14-.08-1.51.25-2.68,1.01-3.48,1.03-1.09,2.58-1.25,3.41-1.25.32,0,.52.02.53.03.12.01.23-.06.25-.18.02-.12-.05-.23-.17-.25-2.34-.55-3.37-2.24-3.72-2.99.84.09,3.11.06,8.71-1.24,1.66-.39,3.17-.58,4.5-.58,5.96,0,6.51,3.83,6.53,4,0,.08.06.14.13.18.07.03.15.02.22-.02,2.24-1.61,4.67-.48,6.45,2.87,2.78,5.23,3.19,14.27-.93,20.37Z"/><path class="cls-1" d="m89.7,67.91l.99,7.23s2.53-1.83,1.83-5.54c-.4-2.13-2.82-1.68-2.82-1.68Z"/><path class="cls-6" d="m89.66,67.69c-.12.02-.2.14-.18.26.02.12.14.2.26.18.09-.02,2.21-.39,2.56,1.51.66,3.52-1.65,5.25-1.74,5.32-.1.07-.12.21-.05.31.04.06.11.09.18.09.04,0,.09-.01.13-.04.03-.02,2.63-1.96,1.92-5.77-.35-1.86-2.17-2.03-3.08-1.86Z"/><path class="cls-7" d="m90.4,90.74c-3.2-1.52-12.63-1.3-17.78,1.07-5.15,2.38-4.03,7.48-2.47,13.96,1.59,6.63,8.83,16.34,9.11,29.21.28,12.87-.42,18.8-.42,18.8h24.5s3.08-35.09-6.56-54.87c-1.92-3.94-4.54-7.31-6.38-8.18Z"/><path class="cls-2" d="m90.5,90.54c-1.32-.62-3.72-.98-6.58-.98-4.27,0-8.64.79-11.39,2.06-5.4,2.49-4.1,7.92-2.6,14.21.54,2.25,1.7,4.81,3.05,7.77,2.62,5.75,5.87,12.89,6.05,21.4.27,12.71-.41,18.71-.41,18.77,0,.06.01.12.05.17.04.05.1.07.17.07h24.5c.12,0,.21-.09.22-.2.03-.35,2.98-35.38-6.58-54.99-1.95-3.99-4.61-7.4-6.49-8.29Zm12.64,63.03h-24.05c.12-1.25.63-7.28.39-18.59-.18-8.59-3.46-15.79-6.09-21.57-1.34-2.94-2.5-5.48-3.02-7.69-1.46-6.1-2.72-11.37,2.35-13.71,2.7-1.24,6.99-2.02,11.2-2.02,2.8,0,5.12.34,6.39.94,1.79.85,4.37,4.17,6.28,8.08,9.12,18.72,6.78,51.65,6.55,54.55Z"/><path class="cls-1" d="m67.83,72.93c.14,3.77,3.01,5.01,3.01,5.01l-.62-7.27s-2.46.09-2.38,2.26Z"/><path class="cls-6" d="m70.93,77.73c-.11-.05-2.74-1.23-2.87-4.81-.07-1.92,2.08-2.03,2.17-2.03.12,0,.22-.11.21-.23,0-.12-.09-.22-.23-.21-.93.03-2.67.6-2.6,2.49.14,3.87,3.11,5.19,3.14,5.2.03.01.06.02.09.02.09,0,.17-.05.2-.13.05-.11,0-.24-.11-.29Z"/><path class="cls-1" d="m87.01,84.13l-10.69,1.36s.16,2.38-.49,5.19c0,0,4.71,1.66,7.53,1.36,1.12-.12,2.54-.55,4.05-1.96,0,0-.57-4.26-.4-5.96Z"/><path class="cls-6" d="m87.23,84.15c0-.07-.02-.13-.07-.18-.05-.05-.12-.07-.18-.06l-10.69,1.36c-.12.01-.2.12-.19.24,0,.02.15,2.39-.48,5.13-.03.11.04.22.14.26.16.06,4.03,1.41,6.87,1.41.27,0,.52-.01.75-.04,1.52-.16,2.89-.82,4.18-2.02.05-.05.08-.12.07-.19,0-.04-.56-4.25-.4-5.91Zm-3.89,7.67c-.22.02-.46.04-.71.04-2.42,0-5.72-1.05-6.54-1.32.5-2.28.48-4.22.46-4.85l10.22-1.3c-.08,1.68.32,4.95.41,5.62-1.19,1.08-2.44,1.68-3.84,1.82Z"/><path class="cls-1" d="m89.3,63.42c-1.44-6.7-7.71-4.93-7.71-4.93-6.64-1.71-11.14,2.72-11.43,5-.29,2.28-.23,8.79.33,11.63.6,3.07.71,8.32,3.86,11.17,1.62,1.47,4.96-.39,6.02,2.44,3.82-.18,7.21-1.18,9.7-4.09,1.84-2.16,1.17-6.53.95-9.52-.21-3-1.09-8.81-1.71-11.7Z"/><path class="cls-6" d="m91.22,75.1c-.22-3.11-1.12-8.96-1.71-11.73-.99-4.62-4.27-5.31-6.13-5.31-.91,0-1.6.16-1.8.21-.99-.25-1.98-.38-2.94-.38-5.25,0-8.46,3.63-8.71,5.57-.29,2.27-.24,8.78.33,11.7.12.59.21,1.27.32,1.98.45,3.1,1.01,6.96,3.61,9.31.74.67,1.77.71,2.77.74,1.35.05,2.62.1,3.19,1.61.03.09.12.14.21.14h0c4.47-.21,7.6-1.53,9.85-4.17,1.67-1.95,1.36-5.56,1.1-8.46-.04-.42-.07-.83-.1-1.22Zm-1.34,9.39c-2.14,2.5-5.12,3.78-9.38,4-.7-1.64-2.2-1.7-3.53-1.75-.96-.04-1.87-.07-2.49-.63-2.48-2.25-3.03-6.02-3.47-9.05-.1-.72-.2-1.41-.32-2.01-.55-2.83-.61-9.37-.33-11.56.23-1.76,3.35-5.19,8.27-5.19.94,0,1.91.13,2.88.38.04.01.08,0,.12,0,0,0,.74-.21,1.74-.21,2.11,0,4.81.86,5.7,4.96.59,2.76,1.48,8.58,1.7,11.67.03.39.06.8.1,1.23.24,2.82.55,6.33-1,8.14Z"/><path class="cls-6" d="m90.86,73.7c-.92.59-2.07.94-3.44.94-1.7,0-2.66-.72-3.97-.93-1.74-.27-3.43.18-4.56.99-1.43,1.03-2.73,2.06-5.04,2.06-1.27,0-2.34-.3-3.22-.8.5,3.12.83,7.72,3.71,10.33,1.63,1.47,4.96-.39,6.02,2.44,3.82-.18,7.21-1.18,9.7-4.09,1.84-2.16,1.17-6.53.95-9.52-.03-.39-.08-.87-.14-1.42Zm-5.25,4.31c-.86.54-1.78,1.02-2.76,1.33-.97.31-2,.42-3.01.4-.75-.02-1.31-.6-1.34-1.34-.03-.71.64-1.36,1.34-1.34.24,0,.49,0,.73,0,.11,0,.22-.01.33-.02.03,0,.1-.01.16-.02.06,0,.16-.02.19-.03.1-.02.2-.04.3-.06.2-.05.4-.1.59-.16.19-.06.38-.14.57-.21.03-.01.06-.03.09-.04.1-.04.19-.09.29-.14.4-.2.79-.43,1.17-.67.64-.4,1.45-.11,1.83.48.4.62.11,1.46-.48,1.83Z"/><path class="cls-6" d="m84.15,75.51c-.43.27-.8.48-1.16.66-.09.05-.19.09-.28.14l-.29.11c-.11.04-.22.09-.34.12-.19.06-.38.11-.57.16-.1.02-.19.04-.29.06l-.14.02.03.22-.1-.21h-.12c-.11.02-.21.03-.32.03-.24.01-.48.01-.71,0h-.03c-.4,0-.81.18-1.11.49-.29.3-.45.7-.43,1.08.04.88.69,1.53,1.56,1.55.09,0,.19,0,.28,0,1.01,0,1.95-.14,2.81-.41.9-.29,1.82-.73,2.81-1.35.37-.23.64-.61.73-1.05.09-.39.02-.78-.18-1.1-.46-.71-1.45-.98-2.14-.55Zm1.89,1.55c-.07.31-.27.6-.54.77-.96.6-1.84,1.03-2.71,1.3-.89.28-1.89.41-2.94.39-.62-.02-1.09-.49-1.12-1.13-.01-.26.1-.54.3-.75.22-.23.5-.36.79-.36v-.22l.02.22c.25,0,.5,0,.75,0,.11,0,.22-.01.34-.02h.13s.08-.03.09-.03l.15-.02c.1-.02.21-.04.31-.06.21-.05.41-.1.61-.17.12-.04.24-.08.37-.13l.31-.12c.1-.05.2-.09.29-.14.37-.18.75-.4,1.19-.68.49-.31,1.2-.1,1.53.41.14.22.18.49.12.76Z"/><path class="cls-6" d="m91.22,75.1c-.03-.39-.08-.88-.14-1.43,0-.08-.06-.14-.12-.17-.07-.03-.15-.03-.21.01-.95.6-2.07.91-3.32.91-.99,0-1.73-.26-2.44-.51-.47-.16-.96-.33-1.49-.42-1.67-.26-3.48.14-4.72,1.03l-.22.16c-1.32.96-2.57,1.86-4.69,1.86-1.16,0-2.21-.26-3.11-.77-.07-.04-.17-.04-.24.01-.07.05-.11.13-.09.22.06.36.11.75.17,1.15.45,3.1,1.01,6.96,3.61,9.31.74.67,1.77.71,2.77.74,1.35.05,2.62.1,3.19,1.61.03.09.12.14.21.14h0c4.47-.21,7.6-1.53,9.85-4.17,1.67-1.95,1.36-5.56,1.1-8.46-.04-.42-.07-.83-.1-1.22Zm-1.34,9.39c-2.14,2.5-5.12,3.78-9.38,4-.7-1.64-2.2-1.7-3.53-1.75-.96-.04-1.87-.07-2.49-.63-2.48-2.25-3.03-6.02-3.47-9.05-.04-.25-.07-.49-.1-.72.87.42,1.86.63,2.93.63,2.26,0,3.57-.94,4.95-1.94l.22-.16c1.15-.83,2.83-1.2,4.4-.95.49.08.94.23,1.41.4.75.26,1.52.53,2.59.53,1.21,0,2.31-.27,3.26-.8.05.4.08.76.1,1.07.03.39.06.8.1,1.23.24,2.82.55,6.33-1,8.14Z"/><path class="cls-6" d="m84.51,75.81c-1.77,2.04-4.27,2.16-4.29,2.16-.12,0-.22.11-.21.23,0,.12.1.21.22.21h0c.11,0,2.71-.13,4.61-2.32.08-.09.07-.23-.02-.31-.09-.08-.23-.07-.31.02Z"/><path class="cls-6" d="m86.28,63.69c-2.74-.91-4.31-.35-4.37-.32-.11.04-.17.17-.13.29.04.11.17.17.29.13.02,0,1.5-.53,4.08.33.02,0,.05.01.07.01.09,0,.18-.06.21-.15.04-.12-.02-.24-.14-.28Z"/><path class="cls-6" d="m76.97,62.75c-.07,0-1.72-.21-4.19,1.3-.1.06-.14.2-.07.31.04.07.11.11.19.11.04,0,.08-.01.12-.03,2.32-1.42,3.88-1.24,3.9-1.24.12.01.23-.07.25-.19.02-.12-.07-.23-.19-.25Z"/><path class="cls-6" d="m75.25,68.64c-.36,0-.65.29-.65.65s.29.65.65.65.65-.29.65-.65-.29-.65-.65-.65Z"/><path class="cls-6" d="m75.25,68.42c-.48,0-.87.39-.87.87s.39.87.87.87.87-.39.87-.87-.39-.87-.87-.87Zm0,1.3c-.24,0-.43-.19-.43-.43s.19-.43.43-.43.43.19.43.43-.19.43-.43.43Z"/><path class="cls-6" d="m84.87,67.52c-.36,0-.65.29-.65.65s.29.65.65.65.65-.29.65-.65-.29-.65-.65-.65Z"/><path class="cls-6" d="m84.87,67.29c-.48,0-.87.39-.87.87s.39.87.87.87.87-.39.87-.87-.39-.87-.87-.87Zm0,1.3c-.24,0-.43-.19-.43-.43s.19-.43.43-.43.43.19.43.43-.19.43-.43.43Z"/><path class="cls-1" d="m72.88,91.51s-5.97,1.4-11.12,3.78c-5.15,2.38-9.98,4-8.43,10.49,1.59,6.63,8.83,16.34,9.11,29.21.28,12.87-.42,18.8-.42,18.8h24.5s-.6-34.42-10.24-54.2c-1.92-3.95-3.41-8.09-3.41-8.09Z"/><path class="cls-6" d="m73.09,91.43c-.04-.11-.15-.17-.26-.14-.06.01-6.05,1.44-11.16,3.8-.37.17-.74.34-1.11.51-4.79,2.17-8.92,4.04-7.44,10.23.54,2.25,1.7,4.81,3.05,7.77,2.62,5.75,5.87,12.89,6.05,21.4.27,12.71-.41,18.71-.41,18.77,0,.06.01.12.05.17.04.05.1.07.17.07h24.5c.06,0,.12-.02.16-.07.04-.04.06-.1.06-.16,0-.34-.72-34.7-10.26-54.29-1.9-3.89-3.38-8.02-3.4-8.06Zm-10.81,62.14c.12-1.25.63-7.28.39-18.59-.18-8.59-3.46-15.79-6.09-21.57-1.34-2.94-2.5-5.48-3.03-7.69-1.4-5.83,2.39-7.55,7.19-9.72.37-.17.74-.34,1.11-.51,4.56-2.1,9.82-3.46,10.88-3.72.31.85,1.67,4.48,3.35,7.92,9.1,18.67,10.13,50.86,10.21,53.88h-24.03Z"/><path class="cls-1" d="m98.46,90.79l5.09,30.5c1.32,2.02,5.48,9.36,7.26,12.44,3.81,6.6,17.29,6.91,19.05-1.37,1.67-7.91-9.97-24.15-15.79-31.41-7.04-8.78-15.61-10.16-15.61-10.16Z"/><path class="cls-6" d="m98.5,90.57c-.12-.02-.24.06-.25.18-.02.12.06.24.18.25.08.01,8.57,1.47,15.48,10.09,2.95,3.68,17.59,22.5,15.74,31.22-.67,3.18-3.22,5.35-6.98,5.94-4.69.75-9.7-1.25-11.65-4.64-.37-.65-.85-1.48-1.39-2.41-2.04-3.56-4.84-8.43-5.88-10.04-.07-.1-.21-.13-.31-.07-.1.07-.13.2-.07.31,1.04,1.59,3.83,6.46,5.87,10.02.54.93,1.01,1.76,1.38,2.41,1.99,3.44,6.23,5.01,10.06,5.01.7,0,1.4-.05,2.05-.16,3.96-.63,6.63-2.92,7.35-6.29,1.89-8.91-12.86-27.88-15.83-31.59-7.01-8.75-15.67-10.23-15.75-10.25Z"/><path class="cls-1" d="m89.6,90.27s7.89,15.5,7.89,42.79c0,13.14.44,20.73.44,20.73h16.03s-2.05-44.1-5.78-54.85c-3.67-10.6-18.59-8.68-18.59-8.68Z"/><path class="cls-6" d="m108.4,98.87c-2.7-7.8-11.26-8.96-16.13-8.96-1.61,0-2.66.13-2.7.14-.07,0-.13.05-.17.12-.03.06-.03.14,0,.21.08.15,7.87,15.77,7.87,42.69,0,13,.44,20.67.44,20.74,0,.12.1.21.22.21h16.04c.12,0,.22-.1.22-.22,0-.03,0-.05-.01-.08-.09-1.99-2.16-44.39-5.79-54.84Zm-10.26,54.7c-.07-1.31-.43-8.71-.43-20.51,0-25.04-6.72-40.35-7.78-42.61.42-.04,1.25-.1,2.34-.1,4.74,0,13.09,1.13,15.71,8.66,3.53,10.19,5.58,51.08,5.75,54.55h-15.59Z"/><path class="cls-6" d="m79.58,72.74c-.15-.2-.03-.61.02-.74l-.41-.17c-.03.07-.3.73.02,1.17.17.23.45.35.84.35.06,0,.12,0,.19,0l-.04-.44c-.22.02-.51,0-.63-.16Z"/><path class="cls-1" d="m52.92,99.65c1.4-2.14,2.12-3.48,3.73-5.8,2.46-3.55-3.5-7.93-3.5-7.93,0,0-1.53-13.15-2.13-14.4-.37-.76-2.08-1.07-2.54.46-.3.99.15,10.44.39,12.18,0,0-2.88-3.32-5.12.48,0,0-2.25.16-2.15,2.25,0,0-1.64.43-2.15,2.43-.66,2.61,1.36,4.27,1.36,4.27,0,0-1.02,3.33.42,5.38,2.61,3.71,3.62,16.77,3.62,16.77l12.39-4.57s-5.43-9.85-4.33-11.53Z"/><path class="cls-6" d="m54.55,97.49c.67-1.09,1.31-2.11,2.28-3.51,2.43-3.5-2.73-7.62-3.47-8.18-.15-1.28-1.55-13.15-2.14-14.37-.21-.44-.78-.76-1.38-.76-.75,0-1.34.47-1.58,1.25-.29.96.07,8.96.32,11.66-.49-.42-1.33-.98-2.3-.98-1.02,0-1.92.62-2.67,1.84-.84.1-2.22.68-2.24,2.3-.46.17-1.7.79-2.14,2.53-.6,2.39.89,3.99,1.33,4.4-.18.67-.84,3.54.49,5.44,2.55,3.62,3.57,16.53,3.58,16.66,0,.07.04.13.1.17.04.02.08.04.12.04.03,0,.05,0,.08-.01l12.39-4.57c.06-.02.11-.07.13-.13.02-.06.02-.13-.01-.18-2.16-3.91-5.09-10.15-4.34-11.3.56-.85,1.01-1.58,1.45-2.29Zm2.38,13.57l-11.88,4.38c-.17-2-1.21-13.14-3.64-16.59-1.36-1.93-.4-5.16-.39-5.19.03-.09,0-.18-.07-.24-.08-.06-1.9-1.6-1.29-4.04.46-1.84,1.92-2.25,1.99-2.27.1-.03.17-.12.16-.22-.08-1.84,1.86-2.01,1.94-2.01.07,0,.14-.04.18-.11.67-1.14,1.46-1.72,2.34-1.72,1.3,0,2.41,1.25,2.42,1.27.06.07.17.1.26.06.09-.04.14-.13.13-.23-.25-1.79-.67-11.19-.4-12.09.26-.85.89-.94,1.15-.94.43,0,.84.21.98.51.46.96,1.59,9.79,2.11,14.33,0,.06.04.12.09.15.06.04,5.76,4.29,3.44,7.63-.98,1.41-1.62,2.44-2.29,3.53-.44.71-.88,1.43-1.44,2.27-1.08,1.65,3.26,9.8,4.2,11.53Z"/><path class="cls-6" d="m45.8,99.84c-.03-.12-.15-.19-.27-.16-.12.03-.19.15-.16.27l1.64,6.03c.03.1.12.16.21.16.02,0,.04,0,.06,0,.12-.03.19-.15.15-.27l-1.64-6.03Z"/><path class="cls-6" d="m49.3,85.74c-1.11-.57-2.65.46-2.72.51-.1.07-.13.21-.06.31.07.1.21.13.31.06.01,0,1.39-.93,2.27-.48.49.25.75.9.78,1.92.04,1.4-.62,2.36-1.8,2.63-1.32.31-3.15-.38-3.91-2.05-.77-1.71-.21-3.92-.21-3.94.03-.12-.04-.24-.16-.27-.12-.03-.24.04-.27.16-.03.1-.61,2.38.23,4.23.72,1.59,2.3,2.38,3.68,2.38.25,0,.5-.03.74-.08,1.39-.32,2.19-1.47,2.14-3.08-.04-1.2-.38-1.98-1.02-2.31Z"/><path class="cls-6" d="m47.8,90.73c-.12,0-.22.11-.21.23.03,1.02-.86,1.33-1.24,1.42-1.33.31-3.18-.41-3.96-2.14-.78-1.71-.57-3.29-.56-3.3.02-.12-.07-.23-.19-.25-.12-.02-.23.07-.25.19,0,.07-.24,1.71.6,3.55.75,1.65,2.36,2.47,3.75,2.47.25,0,.49-.03.72-.08,1.01-.23,1.61-.93,1.58-1.86,0-.12-.1-.21-.23-.22Z"/><path class="cls-6" d="m42.81,93.5c-1.1.81-1.77.04-1.84-.06-.08-.1-.21-.11-.31-.04-.1.07-.11.21-.04.31,0,0,.47.59,1.25.59.35,0,.75-.12,1.21-.45.1-.07.12-.21.05-.31-.07-.1-.21-.12-.31-.05Z"/><path class="cls-1" d="m44.97,95.49l7.32-5.17s-5.57.63-7.32,5.17Z"/><path class="cls-6" d="m52.27,90.1c-.06,0-5.72.7-7.5,5.31-.04.11.01.24.13.29.03,0,.05.01.08.01.09,0,.17-.05.21-.14,1.68-4.35,7.09-5.02,7.14-5.02.12-.01.21-.12.2-.25-.01-.12-.11-.21-.24-.2Z"/><path class="cls-1" d="m59.45,115.41l-4.35-15.09-13.57,7.28s.16,25.58,11.61,34c7.24,5.33,16.58-.13,14.74-17.63l-8.42-8.55Z"/><path class="cls-6" d="m67.85,123.74c-.12.01-.21.12-.2.24.95,9-1.1,15.88-5.48,18.39-2.72,1.56-5.96,1.21-8.91-.96-10.8-7.95-11.48-31.69-11.52-33.69l13.21-7.09,4.28,14.83c.03.12.16.19.27.15.12-.03.19-.16.15-.27l-4.35-15.09c-.02-.06-.07-.12-.13-.14-.06-.03-.13-.02-.19,0l-13.57,7.28c-.07.04-.12.11-.12.2,0,.26.3,25.79,11.7,34.18,1.81,1.33,3.74,2.01,5.6,2.01,1.32,0,2.6-.34,3.8-1.02,4.54-2.6,6.67-9.64,5.7-18.82-.01-.12-.12-.21-.24-.2Z"/><path class="cls-1" d="m72.88,91.51c.43,1.21,5.71,5.58,6.37,5.34,1.07-2.7,3.57-4.76,3.57-4.76-3.91-.57-6.88-2.33-6.88-2.33l-3.07,1.75Z"/><path class="cls-6" d="m82.86,91.87c-3.82-.56-6.77-2.28-6.79-2.3-.07-.04-.15-.04-.22,0l-3.07,1.75c-.09.05-.14.16-.1.27.43,1.23,5.49,5.49,6.52,5.49.05,0,.1,0,.14-.02.06-.02.11-.07.13-.13,1.03-2.62,3.48-4.65,3.51-4.67.07-.06.1-.15.07-.23-.02-.08-.09-.15-.18-.16Zm-3.75,4.75c-.92-.24-5.21-3.73-5.94-5.02l2.78-1.59c.56.31,3.11,1.66,6.37,2.22-.72.67-2.36,2.32-3.22,4.39Z"/><path class="cls-1" d="m87.41,89.6s-1.5,1.91-3.19,2.38c0,0,3.79,2.25,5.23,3.96,0,0,.85-2.98.15-5.68,0,0-.75-.67-2.19-.67Z"/><path class="cls-6" d="m89.75,90.1s-.83-.72-2.34-.72c-.07,0-.13.03-.17.09-.02.02-1.47,1.86-3.08,2.31-.09.02-.15.1-.16.18-.01.09.03.18.11.22.04.02,3.77,2.25,5.17,3.92.04.05.11.08.17.08.02,0,.03,0,.05,0,.08-.02.15-.08.17-.16.04-.12.85-3.07.15-5.8-.01-.04-.03-.08-.07-.11Zm-.42,5.39c-1.29-1.34-3.65-2.87-4.6-3.45,1.36-.57,2.49-1.87,2.78-2.22,1.07.03,1.71.44,1.89.57.5,2.02.12,4.21-.07,5.1Z"/><path class="cls-1" d="m77.72,114.87c-.57.04-.99.54-.95,1.1.04.57.54.99,1.1.95.57-.04.99-.54.95-1.11-.04-.57-.54-.99-1.11-.95Z"/><path class="cls-2" d="m77.7,114.64c-.33.02-.64.18-.85.43-.22.25-.33.58-.3.91.05.65.6,1.16,1.25,1.16.03,0,.06,0,.09,0,.69-.05,1.21-.65,1.16-1.34-.05-.68-.67-1.2-1.34-1.15Zm.15,2.06h-.06c-.42,0-.77-.33-.81-.75-.02-.21.05-.42.19-.59.14-.16.34-.26.55-.28h.06c.42,0,.77.33.81.75.03.45-.3.84-.75.87Z"/><path class="cls-1" d="m80.44,130.06c-.57.04-.99.54-.95,1.1.04.57.54.99,1.11.95s.99-.54.95-1.11-.54-.99-1.11-.95Z"/><path class="cls-2" d="m80.42,129.83c-.33.02-.64.18-.86.43-.22.25-.32.58-.3.91.05.65.6,1.16,1.25,1.16.03,0,.06,0,.1,0,.33-.03.64-.18.86-.43.22-.25.32-.58.3-.91-.05-.68-.66-1.2-1.34-1.16Zm.71,1.78c-.14.16-.34.26-.55.28h-.06c-.42,0-.77-.33-.8-.75-.02-.22.05-.42.19-.59.14-.16.34-.26.55-.28h.06c.42,0,.77.33.81.75.02.21-.05.42-.19.59Z"/><path class="cls-1" d="m82.36,145.34c-.57.04-.99.54-.95,1.11.04.57.54.99,1.11.95.57-.04.99-.54.95-1.11-.04-.57-.54-.99-1.11-.95Z"/><path class="cls-2" d="m82.35,145.11c-.33.03-.64.18-.86.43-.22.25-.32.58-.3.91.05.65.6,1.16,1.25,1.16.03,0,.06,0,.1,0,.69-.05,1.21-.65,1.15-1.34-.05-.68-.67-1.21-1.34-1.16Zm.15,2.06h-.06c-.42,0-.77-.33-.81-.75-.02-.22.05-.42.19-.59.14-.16.34-.26.55-.28h.06c.42,0,.77.33.81.75.03.45-.3.83-.75.87Z"/><path class="cls-1" d="m131.74,74.73c-.92-.38-2.1-1.18-3.6-1.66-1.51-.48-2.08.28-3.34.48-1.27.21-1.79,1.17-1.35,1.64.44.47,1.89.44,1.89.44,0,0-1.85.79-2.88,1.34-1.03.55-1.64,1.34-1.75,1.54-.1.21-.34,1.2-.34,1.2,0,0-2.45,3.64-1.36,4.61,1.17,1.04,2.26-1.68,2.26-1.68.75.11,1.44-.75,1.44-.75.87,2.06-.09,2.53-3.65,5.45-3.56,2.93-.47,3.24-.79,5.62-.32,2.37-.95,7.83-.95,7.83,4.43,7.12,10.4,5.43,10.4,5.43,0,0-3.48-11.26-.46-15.93,3.02-4.67,6.97-4.04,6.11-8.12-.86-4.08-.71-7.07-1.63-7.45Z"/><path class="cls-6" d="m132.94,78.06c-.26-2.03-.42-3.26-1.12-3.54-.33-.14-.71-.34-1.12-.55-.72-.38-1.54-.81-2.5-1.12-.35-.11-.68-.17-.99-.17-.54,0-.95.16-1.39.32-.33.12-.66.25-1.07.32-.8.13-1.44.58-1.63,1.14-.11.32-.06.64.15.87.24.26.69.39,1.13.45-.62.28-1.47.66-2.06.98-1.04.56-1.7,1.36-1.84,1.64-.1.2-.29.97-.35,1.21-.35.52-2.48,3.83-1.3,4.87.22.19.46.29.7.29.93,0,1.63-1.41,1.85-1.91.5,0,.95-.33,1.21-.57.51,1.45-.15,1.99-2.71,4.06-.31.25-.64.52-1,.82-2.42,1.99-1.9,2.93-1.35,3.91.29.52.59,1.06.49,1.84-.31,2.35-.94,7.78-.95,7.83,0,.05,0,.1.03.14,3.09,4.97,6.96,5.71,8.98,5.71,1.01,0,1.64-.18,1.67-.18.06-.02.11-.05.13-.11.03-.05.03-.11.02-.17-.04-.11-3.41-11.22-.48-15.75,1.25-1.94,2.69-2.96,3.84-3.78,1.64-1.17,2.83-2.01,2.3-4.5-.32-1.54-.5-2.94-.65-4.07Zm-1.91,8.21c-1.18.84-2.66,1.89-3.96,3.9-2.84,4.39-.13,14.21.36,15.89-.26.05-.72.12-1.33.12-1.93,0-5.59-.71-8.56-5.43.08-.67.65-5.56.94-7.75.12-.93-.23-1.56-.54-2.12-.52-.93-.89-1.6,1.25-3.36.36-.29.69-.57,1-.82,2.74-2.22,3.56-2.89,2.71-4.89-.03-.07-.1-.12-.17-.13-.07-.01-.15.02-.2.08-.16.2-.7.74-1.23.67-.1-.02-.2.04-.24.14-.18.46-.86,1.78-1.5,1.78-.13,0-.27-.06-.41-.18-.69-.61.49-2.98,1.39-4.32.02-.02.03-.05.03-.07.1-.4.26-1.03.33-1.15.06-.12.62-.89,1.65-1.44,1.01-.54,2.84-1.32,2.86-1.33.1-.04.13-.15.11-.25-.02-.1-.14-.18-.24-.18-.66,0-1.44-.12-1.68-.37-.13-.14-.09-.33-.06-.42.11-.31.51-.72,1.29-.85.45-.07.81-.21,1.15-.34.42-.16.78-.29,1.23-.29.27,0,.55.05.86.15.93.3,1.73.71,2.43,1.08.41.22.8.42,1.16.57.45.18.62,1.51.84,3.18.15,1.14.33,2.55.66,4.11.46,2.21-.51,2.9-2.12,4.05Z"/><path class="cls-6" d="m129.99,76.79l.05-.21-.2-.06s-1.06-.3-2.37-1.48l-.09-.08-.11.03s-1.51.35-2.14.46c-.12.02-.2.14-.18.26.02.12.13.2.26.18.54-.09,1.69-.35,2.05-.44,1.03.91,1.89,1.3,2.27,1.44-.2,1.17.19,1.83.21,1.85.04.07.11.11.19.11.04,0,.08,0,.12-.03.1-.06.14-.2.08-.3,0,0-.35-.62-.12-1.73Z"/><path class="cls-6" d="m125.3,80.1c-.64-.66-1.94-1.66-2.76-1.61-.7.06-2.13.94-2.29,1.04-.1.07-.13.2-.07.31.06.1.2.13.31.07.41-.26,1.58-.93,2.08-.97.54-.05,1.68.73,2.41,1.48.77.8,1.48,2,1.49,2.01.04.07.12.11.19.11.04,0,.08,0,.11-.03.11-.06.14-.2.08-.3-.03-.05-.74-1.26-1.55-2.09Z"/><path class="cls-6" d="m126.24,75.28c-.11-.05-.24,0-.3.1s0,.24.1.3c2.25,1.12,4.33,4.04,4.36,4.07.04.06.11.09.18.09.04,0,.09-.01.13-.04.1-.07.12-.21.05-.31-.09-.12-2.17-3.05-4.52-4.21Z"/><path class="cls-6" d="m125.26,77.17c-1.78-.62-4.66,1.85-4.78,1.96-.09.08-.1.22-.02.31.08.09.22.1.31.02.03-.02,2.81-2.41,4.34-1.87,1.6.56,3.74,2.92,3.77,2.94.04.05.1.07.17.07.05,0,.11-.02.15-.06.09-.08.1-.22.02-.31-.09-.1-2.24-2.46-3.95-3.06Z"/><path class="cls-1" d="m128.75,98.61s-7.45-1.63-12.35-4.91c0,0-7.28,30.45.77,39.59,9.9,11.25,14.78-2.58,14.24-10.3-.55-7.87-2.66-24.39-2.66-24.39Z"/><path class="cls-6" d="m128.97,98.58c-.01-.09-.08-.17-.17-.19-.07-.02-7.47-1.67-12.28-4.87-.06-.04-.14-.05-.2-.02-.07.03-.12.08-.13.16-.3,1.25-7.21,30.67.82,39.79,2.52,2.86,4.9,4.31,7.07,4.32h0c1.42,0,2.72-.62,3.86-1.84,2.78-2.98,3.98-8.88,3.7-12.93-.54-7.79-2.64-24.24-2.66-24.4Zm-1.37,37.03c-1.05,1.13-2.25,1.7-3.54,1.7h0c-2.04,0-4.3-1.4-6.73-4.17-7.45-8.46-1.52-35.86-.79-39.08,4.49,2.89,10.94,4.48,12.01,4.73.21,1.69,2.12,16.85,2.63,24.22.28,3.95-.89,9.71-3.58,12.6Z"/><path class="cls-1" d="m57.65,85.15c-1.19-.98-3.7-.48-5.06.95-1.36,1.42-4.26,1-2.97,3.46,1.29,2.46,5.76-.39,5.76-.39l.65,5.44s1.75-1.75,2.78-4.34c.49-1.23.02-4.14-1.17-5.11Z"/><path class="cls-6" d="m57.79,84.98c-1.26-1.03-3.91-.55-5.36.96-.44.47-1.07.72-1.67.97-.71.29-1.39.57-1.61,1.17-.15.42-.06.93.28,1.58.28.53.71.88,1.29,1.03,1.88.5,4.67-1.26,4.79-1.34.1-.07.13-.2.07-.31-.07-.1-.2-.13-.31-.07-.03.02-2.74,1.73-4.44,1.28-.46-.12-.79-.39-1.01-.81-.28-.53-.36-.93-.25-1.22.15-.42.71-.65,1.36-.91.62-.25,1.32-.54,1.83-1.07,1.28-1.34,3.68-1.81,4.76-.93,1.08.89,1.58,3.66,1.1,4.86-1,2.51-2.72,4.25-2.73,4.26-.09.09-.09.23,0,.31.04.04.1.07.16.07s.11-.02.16-.07c.07-.07,1.79-1.81,2.83-4.41.54-1.36,0-4.36-1.23-5.37Z"/><path class="cls-5" d="m58.82.74c-1.54,1.74-1.95,5.61-1.95,5.61l-2.16,2.78s.82-6.37-.76-4.19c-1.58,2.18.27,4.79.27,4.79-3.27,5.23-8,14.7-8,14.7l.47.22c2.35-5.32,6.92-12.89,6.92-12.89,2.36,1.09,5.56-.78,5-1.84-.56-1.06-1.68-.53-2.51.24-.83.77-2.07,1-2.07,1,1.48-2.42,3.48-4.6,3.48-4.6,0,0,4.1-1.71,4.78-3.84.68-2.13-1.95-3.72-3.48-1.98Z"/><path class="cls-4" d="m78.4,17.41c-.66-.54-1.86-.36-2.4,1.32-.54,1.68.12,2.88-.48,4.56-.6,1.68-2.04,5.34-2.04,5.34,0,0,.66-2.88.66-4.26s-1.44-1.92-1.68.9c-.24,2.82.36,5.22.36,5.22-1.74,6-9.3,8.65-9.3,8.65l.06.65c9.34-3.51,10.5-10.68,10.5-10.68,0,0,2.16.06,3.84-1.5,1.68-1.56-.24-3.06-1.08-2.22-.84.84-2.22,1.98-2.22,1.98.96-2.88,1.08-2.64,2.76-5.1,1.68-2.46,1.68-4.32,1.02-4.86Z"/><path class="cls-5" d="m72.91,34.66c-5.51,4.83-17,8.24-17,8.24l-3.15,9.04s14.65-.15,24.98-8.13c10.33-7.98,1.79-14.96-4.84-9.15Z"/><path class="cls-3" d="m53.77,47.52l.02.31c12.89-.87,23.86-10.84,23.97-10.94l-.21-.23c-.11.1-11,9.99-23.78,10.86Z"/><path class="cls-3" d="m73.57,39.97l-.05.3c.07.01,1.17.21,2.35.21.72,0,1.46-.07,2.02-.3l-.12-.28c-1.4.58-4.17.08-4.2.08Z"/><path class="cls-3" d="m68.93,42.77h.31s.1-3.39,1.17-4.88l-.25-.18c-1.13,1.56-1.22,4.91-1.23,5.05Z"/><path class="cls-3" d="m65.71,44.43l-.1.29c.15.05,3.42,1.17,5.77,1.17.29,0,.56-.02.81-.05l-.04-.3c-2.25.33-6.4-1.09-6.44-1.11Z"/><path class="cls-3" d="m61.66,46.17l.28-.11s-1.04-2.76,1.76-5.23l-.2-.23c-2.96,2.61-1.85,5.54-1.84,5.57Z"/><path class="cls-3" d="m57.83,47.09l-.28.12s1.16,2.74,4.81,2.74c.34,0,.71-.02,1.09-.08l-.04-.3c-4.28.58-5.53-2.35-5.58-2.48Z"/><path class="cls-5" d="m10.04,29.96c2.79,6.78,11.56,14.94,11.56,14.94l-1.2,9.5S7.34,47.75,1.64,36.01c-5.7-11.74,5.05-14.2,8.4-6.04Z"/><path class="cls-3" d="m21.46,50l-.15.26C10.15,43.74,4.76,29.94,4.71,29.8l.29-.11c.05.14,5.4,13.84,16.46,20.31Z"/><path class="cls-3" d="m7.09,34.42l-.08.29c-.07-.02-1.14-.33-2.19-.86-.64-.32-1.28-.72-1.68-1.17l.23-.2c1,1.14,3.7,1.93,3.73,1.94Z"/><path class="cls-3" d="m10,38.99l-.28-.13s1.42-3.08,1.12-4.89l.3-.05c.32,1.9-1.09,4.95-1.15,5.07Z"/><path class="cls-3" d="m12.15,41.91l-.04.3c-.16-.02-3.58-.47-5.69-1.52-.26-.13-.5-.26-.71-.41l.17-.25c1.87,1.3,6.22,1.87,6.26,1.87Z"/><path class="cls-3" d="m15,45.27l-.2-.23s2.16-2,.75-5.46l.28-.12c1.49,3.65-.81,5.78-.83,5.81Z"/><path class="cls-3" d="m18.02,47.8l.2.23s-2.25,1.94-5.52.32c-.31-.15-.62-.34-.95-.55l.17-.25c3.57,2.42,6,.35,6.1.26Z"/><path class="cls-4" d="m42.54,38.89l8.27,8.7s9.79,2.39,15.67-7.18c5.88-9.57,5.22-27.85,5.22-27.85,0,0-28.94,4.57-29.16,26.33Z"/><path d="m48.23,39.98l.27.15c5.72-9.99,22.35-25.92,22.52-26.08l-.21-.22c-.17.16-16.84,16.12-22.58,26.14Z"/><path d="m66.17,18.59l.04.3c.13-.02,3.2-.43,4.46-.93l-.11-.28c-1.22.49-4.35.9-4.38.91Z"/><path d="m62.59,22.18l.03.3c.21-.02,5.24-.52,7.28-1.12l-.09-.29c-2.02.6-7.17,1.11-7.23,1.11Z"/><path d="m59.27,25.76v.31c.06,0,6.15-.01,10.29-.93l-.07-.3c-4.1.91-10.16.93-10.22.93Z"/><path d="m56.05,29.44l-.07.3s1.73.38,5,.38c2.05,0,4.73-.15,7.98-.63l-.04-.3c-8.37,1.23-12.83.26-12.87.25Z"/><path d="m52.68,33.62l-.16.26s3.01,1.77,8.28,1.77c1.71,0,3.67-.18,5.84-.67l-.07-.3c-8.75,1.96-13.84-1.04-13.89-1.07Z"/><path d="m49.73,37.91l-.21.22s3.56,3.23,9.78,3.23c1.32,0,2.77-.14,4.33-.49l-.07-.3c-8.73,1.96-13.79-2.61-13.84-2.66Z"/><path d="m64.1,20.71l.3.04s.56-3.83,1.14-5.1l-.28-.13c-.59,1.3-1.14,5.02-1.16,5.18Z"/><path d="m60.66,23.94l.3.07s1.21-4.86,1.99-6.9l-.29-.11c-.78,2.05-1.99,6.88-2,6.93Z"/><path d="m57.61,27.7l.3.05c0-.05.9-5.43,2.2-9.47l-.29-.09c-1.31,4.06-2.21,9.46-2.22,9.51Z"/><path d="m56.49,19.75c-2.06,7.96-1.92,11.58-1.92,11.62h.31s-.13-3.63,1.91-11.54l-.3-.08Z"/><path d="m52.02,23.24c-2.49,8.4-.87,11.88-.8,12.02l.28-.13s-1.64-3.51.81-11.8l-.29-.09Z"/><path d="m47.49,27.51l-.3-.08c-2.29,8.23,1.01,12.67,1.04,12.71l.24-.19s-3.25-4.36-.99-12.45Z"/><path class="cls-4" d="m21.63,29.46c-1.72-2.24-3.59-4.4-5.07-6.82-1.21-1.99-2.05-4.17-2.5-6.47-.46-2.36-.48-5.13-1.14-7.46-.73-2.54-4.03-6.59-4.04-6.51,0,.12,2.27,3.97,3.04,6.38.71,2.25,1.38,4.63,1.76,6.93.34,2.08.97,4.1,1.94,5.98,1.18,2.29,2.81,4.31,4.41,6.32.96,1.21,1.93,2.41,2.83,3.66.91,1.25,1.72,2.53,1.15,4.12-.02.06.08.1.11.04.42-.93.3-1.89-.14-2.78-.61-1.22-1.54-2.31-2.36-3.39Z"/><path class="cls-4" d="m9.25,24.65c1.29.47,2.71.35,4.07.11,1.35-.24,2.7-.58,4.07-.54h.07c-2.55-1.34-5.82-1.17-8.21.43Z"/><path class="cls-4" d="m15.27,20.61c.07.04.13.09.19.14l-.14-.14s-.04,0-.05,0Z"/><path class="cls-4" d="m12.13,20.04c-.57.03-1.14.07-1.68.26-1.06.37-1.85,1.24-2.6,2.08,1.59-.52,3.34-.39,4.92-.96.83-.3,1.62-.79,2.5-.8-.89-.59-2.06-.63-3.14-.58Z"/><path class="cls-4" d="m5.95,14.3c2.57,1.74,5.29,3.54,8.39,3.81l-.15-.12c-2.61-1.53-5.3-3-8.24-3.68Z"/><path class="cls-4" d="m11.21,13.61c-.83-.08-1.66.03-2.48.14-.75.1-1.49.21-2.24.31,1.79-.12,3.57.99,5.41.95.58-.01,1.16-.14,1.75-.1l-.21-.3c-.57-.61-1.4-.92-2.23-1Z"/><path class="cls-4" d="m6.49,14.07c-.18.01-.37.04-.55.08.18-.03.37-.05.55-.08Z"/><path class="cls-4" d="m12.98,11.9c-1.96-1.57-4.01-3.04-6.14-4.38.46,1.16,1.11,2.3,2.11,3.05.64.48,1.39.79,2.12,1.1.72.3,1.45.6,2.17.89l.22.06c0-.3-.25-.54-.49-.73Z"/><path class="cls-4" d="m16.12,12.59c-.99.54-1.78,1.41-2.34,2.39,1.03-.21,2.06-.42,3.03-.82,1.01-.41,1.97-1.04,2.6-1.94-1.08-.36-2.29-.17-3.29.37Z"/><path class="cls-4" d="m13.77,14.99s0-.01,0-.02c-.05,0-.09.02-.14.03h.13Z"/><path class="cls-4" d="m14.11,18.09c.07-.02.14-.04.21-.06,0,0,0,0,0,0l-.21.07Z"/><path class="cls-4" d="m17.98,15.76c-1.28.66-2.29,1.85-3.65,2.27.02.03.06.04.1.05,3.18.45,6.55-.71,8.79-3.01-1.78-.07-3.65-.12-5.23.7Z"/><path class="cls-4" d="m14.32,18.01s0,0,0,.01l.06-.02s-.07-.04-.07,0Z"/><path class="cls-4" d="m17.29,18.45c-.58.82-1.14,1.76-2.08,2.13l.31-.12c.62.19,1.32.05,1.89-.27.57-.31,1.05-.78,1.48-1.27.93-1.03,1.74-2.16,2.41-3.36-1.68.25-3.04,1.5-4.02,2.88Z"/><path class="cls-4" d="m17.36,24.14s0,0,0,0c-.02,0-.04,0-.06,0h.06Z"/><path class="cls-4" d="m18.85,21.57c-.43.91-.62,2.05-1.49,2.57.61.02,1.2-.29,1.64-.72.46-.44.78-1,1.1-1.55.67-1.17,1.35-2.33,2.03-3.49-1.31.82-2.62,1.79-3.28,3.19Z"/><path class="cls-4" d="m17,26.05c-.69.23-1.31.63-1.95.97-.75.4-1.54.71-2.35.94.23.05.47.08.7.09,2.05.06,3.9-1.34,5.96-1.47l-.24-.39c-.62-.39-1.42-.36-2.11-.13Z"/><path class="cls-4" d="m19.33,26.64l.08.08c.78-.25,1.43-.83,1.91-1.49.48-.67.81-1.43,1.14-2.18.41-.94.83-1.89.96-2.91-1.33,1.42-2.53,2.97-3.56,4.62-.36.57-.71,1.24-.53,1.89Z"/><path class="cls-4" d="m24.16,26.8c-1.17.21-2.3.75-3.1,1.63l-.14.24c.56-.44,1.33-.42,2.04-.45,1.64-.07,3.27-.5,4.73-1.25-1.16-.27-2.37-.38-3.54-.17Z"/><path class="cls-4" d="m20.82,28.83c.07-.01.13-.03.2-.03l-.08-.12s-.09.1-.12.15Z"/><path class="cls-4" d="m17.62,31.57c-.6.93-1.13,1.92-1.86,2.76.83-.16,1.7-.34,2.35-.88.29-.23.52-.52.75-.81.67-.83,1.36-1.7,1.61-2.74.09-.37.13-.77.34-1.08-.32.07-.63.19-.91.35-.97.55-1.68,1.45-2.28,2.38Z"/><path class="cls-4" d="m13.59,12.38c.02-.11.04-.22.06-.33-.09.11-.17.23-.24.35l.17-.02Z"/><path class="cls-4" d="m14.93,8.25c-.37.65-.7,1.32-.9,2.03-.1.36-.17.72-.25,1.09-.04.23-.09.45-.13.68.12-.15.24-.3.38-.44.45-.44,1.01-.77,1.45-1.22.55-.56.91-1.28,1.13-2.02.23-.75.32-1.53.4-2.3-.22,0-.42.14-.59.28-.63.51-1.09,1.2-1.5,1.91Z"/><path class="cls-4" d="m10.55,6.57c-.42-.37-.9-.66-1.37-.95-.22-.14-.45-.27-.69-.37-.31-.11-.64-.15-.96-.18-.51-.04-1.02-.04-1.52.04.17.48.64.76,1.09,1.01,1.52.83,3.18,2.5,4.81,3.06-.3-.64-.82-2.15-1.36-2.61Z"/><path class="cls-4" d="m12.33,5.83c.02.68.25,1.91.26,1.87.14-.94.78-1.74,1-2.66.11-.46.17-.93.24-1.41.05-.36.09-.72.08-1.09-.02-.56-.16-1.1-.3-1.64-.74,1.54-1.33,3.21-1.27,4.93Z"/><path class="cls-1" d="m51.38,65.64c-1.92,0-3.83-.17-5.67-.5-1.86-.34-3.03-.99-3.89-1.46-.61-.34-1.05-.58-1.49-.58-.07,0-.14,0-.21.02-1.26.25-2.58.38-3.92.38-9.06,0-18.01-5.68-21.29-13.5-1.05-2.3-1.69-4.54-1.93-6.68-.81-6.84,1.18-13.34,5.59-18.3,4.37-4.92,10.66-7.74,17.24-7.74,3.79,0,7.5.91,11.04,2.71,6.53,3.43,10.86,9.66,11.89,17.1,1.03,7.48-1.52,14.94-6.83,19.97-1.08,1.02-1.55,2.54-1.23,3.96.61,2.72,5.97,3.47,8.62,3.67-1.59.4-4.43.96-7.92.96Z"/><path d="m35.81,17.52h0c3.75,0,7.42.9,10.93,2.68,6.46,3.4,10.75,9.56,11.76,16.92,1.02,7.4-1.5,14.79-6.76,19.76-1.14,1.08-1.64,2.69-1.3,4.19.54,2.42,4.44,3.36,7.31,3.72-1.61.32-3.82.62-6.37.62-1.91,0-3.81-.17-5.63-.5-1.82-.33-2.97-.97-3.81-1.43-.62-.34-1.11-.61-1.61-.61-.09,0-.17,0-.26.03-1.25.25-2.55.37-3.87.37-8.96,0-17.82-5.62-21.07-13.37-1.03-2.27-1.67-4.49-1.9-6.61-.8-6.77,1.17-13.2,5.53-18.1,4.33-4.87,10.55-7.66,17.06-7.66h0Zm0-.49c-13.34,0-24.82,11.41-23.07,26.31.24,2.17.89,4.44,1.95,6.75,3.46,8.25,12.7,13.65,21.51,13.65,1.34,0,2.67-.12,3.97-.38.05-.01.11-.02.17-.02.94,0,2.17,1.46,5.33,2.04,2.03.37,3.96.51,5.72.51,5.51,0,9.38-1.37,9.38-1.37,0,0-9.08-.16-9.85-3.56-.31-1.36.15-2.77,1.16-3.73,11.1-10.52,9.12-29.97-5.11-37.46-3.7-1.88-7.5-2.74-11.16-2.74h0Z"/><path class="cls-4" d="m23.42,36v-1.23h2.81v2.51c-.54.37-1.01.62-1.43.75-.41.13-.91.2-1.47.2-.7,0-1.27-.12-1.71-.36-.44-.24-.78-.59-1.03-1.06-.24-.47-.36-1.01-.36-1.62,0-.64.13-1.2.4-1.68.27-.48.65-.84,1.17-1.08.4-.19.94-.29,1.61-.29s1.14.06,1.46.18c.32.12.59.3.8.55.21.25.37.56.48.94l-1.76.31c-.07-.22-.19-.39-.37-.51-.17-.12-.39-.18-.66-.18-.4,0-.72.14-.96.42-.24.28-.36.72-.36,1.32,0,.64.12,1.09.36,1.37.24.27.57.41,1,.41.2,0,.4-.03.58-.09.18-.06.4-.16.63-.3v-.55h-1.22Z"/><path class="cls-4" d="m27.34,38.13v-5.89h3.03c.56,0,.99.05,1.29.14.3.1.54.27.72.54.18.26.27.58.27.95,0,.33-.07.61-.21.85-.14.24-.33.43-.58.58-.16.09-.37.17-.64.23.22.07.38.15.47.22.07.05.16.15.29.31.13.16.21.28.25.37l.88,1.71h-2.06l-.97-1.8c-.12-.23-.23-.38-.33-.45-.13-.09-.28-.14-.45-.14h-.16v2.39h-1.83Zm1.83-3.5h.77c.08,0,.24-.03.48-.08.12-.02.22-.09.3-.19.08-.1.11-.21.11-.34,0-.19-.06-.34-.18-.44-.12-.1-.35-.15-.68-.15h-.8v1.2Z"/><path class="cls-4" d="m33.71,32.24h4.88v1.26h-3.05v.94h2.83v1.2h-2.83v1.16h3.14v1.33h-4.97v-5.89Z"/><path class="cls-4" d="m39.66,32.24h4.88v1.26h-3.05v.94h2.83v1.2h-2.83v1.16h3.14v1.33h-4.97v-5.89Z"/><path class="cls-4" d="m45.62,32.24h1.7l2.22,3.26v-3.26h1.72v5.89h-1.72l-2.21-3.23v3.23h-1.71v-5.89Z"/><path class="cls-4" d="m17.33,42.12h4.88v1.26h-3.05v.94h2.83v1.2h-2.83v1.16h3.14v1.33h-4.97v-5.89Z"/><path class="cls-4" d="m23.29,42.12h1.7l2.22,3.26v-3.26h1.72v5.89h-1.72l-2.21-3.23v3.23h-1.71v-5.89Z"/><path class="cls-4" d="m30.13,42.12h4.88v1.26h-3.05v.94h2.83v1.2h-2.83v1.16h3.14v1.33h-4.97v-5.89Z"/><path class="cls-4" d="m36.1,48.01v-5.89h3.03c.56,0,.99.05,1.29.15.3.1.54.27.72.54.18.26.27.58.27.95,0,.33-.07.61-.21.85-.14.24-.33.43-.58.58-.16.09-.37.17-.64.23.22.07.38.15.47.22.07.05.16.15.29.31.13.16.21.28.25.37l.88,1.71h-2.06l-.97-1.8c-.12-.23-.23-.38-.33-.45-.13-.09-.28-.14-.45-.14h-.16v2.39h-1.83Zm1.83-3.5h.77c.08,0,.24-.03.48-.08.12-.02.22-.09.3-.19.08-.1.11-.21.11-.34,0-.19-.06-.34-.18-.44-.12-.1-.35-.15-.68-.15h-.8v1.2Z"/><path class="cls-4" d="m45.29,45.87v-1.23h2.81v2.51c-.54.37-1.01.62-1.43.75-.41.13-.91.2-1.47.2-.7,0-1.27-.12-1.71-.36-.44-.24-.78-.59-1.03-1.06-.24-.47-.36-1.01-.36-1.62,0-.64.13-1.2.4-1.68.27-.48.65-.84,1.17-1.08.4-.19.94-.29,1.61-.29s1.14.06,1.46.18c.32.12.59.3.8.55.21.25.37.56.48.94l-1.76.31c-.07-.22-.19-.39-.37-.51-.17-.12-.39-.18-.66-.18-.4,0-.72.14-.96.42-.24.28-.36.72-.36,1.32,0,.64.12,1.09.36,1.37.24.27.57.41,1,.41.2,0,.4-.03.58-.09.18-.06.4-.16.63-.3v-.55h-1.22Z"/><path class="cls-4" d="m48.59,42.12h2.02l1.19,1.99,1.19-1.99h2.01l-2.29,3.42v2.47h-1.82v-2.47l-2.29-3.42Z"/><rect class="cls-6" x="18.99" y="152.86" width="115.37" height="1.15"/></g></svg>