<?xml version="1.0" encoding="UTF-8"?><svg id="Layer_2" xmlns="http://www.w3.org/2000/svg" viewBox="0 0 133.09 126.19"><defs><style>.cls-1{fill:#fff;}.cls-2{fill:#000502;}.cls-3{fill:#87be4b;}.cls-4{fill:#3b9d81;}.cls-5{fill:#16162b;}.cls-6{fill:#fab903;}</style></defs><g id="Layer_1-2"><path class="cls-1" d="m39.9,120.09c-7.24,0-11.38-11.34-12.68-34.66-.02-.36-.02-.71-.02-1.03,0-1.18,0-2.19-1.14-2.55-1.08-.33-8.24-2.72-9.21-3.22-.58-.3-.9-.61-.91-.87,0-.3.39-.55.4-.55l.56-.33-.64-.13c-2.03-.42-3.44-1.36-3.63-2.02-.05-.19,0-.28.03-.34.18-.25.75-.33.94-.33l1.91-.06-1.86-.43c-.51-.12-1.36-.46-1.51-.86-.02-.05-.07-.2.12-.45.14-.19.51-.29,1.04-.29,1.65,0,4.32.95,4.34.96.21,0,.37,0,.53,0,.09,0,.18,0,.27,0,3.96,0,6.05.83,6.07.84l.06.03h.07c.45-.08.95-.11,1.5-.11,1.82,0,3.56.37,3.58.37l.35.07-.05-.35c-.33-2.41.11-5.18.98-6.17.21-.24.44-.37.68-.37.05,0,.11,0,.16.02.61.13.61,1.17.6,2.27,0,.81,0,1.65.24,2.29.2.54.42,1.05.63,1.56.94,2.24,1.83,4.36,1.37,8.7-.61,5.84,3.25,12.45,6.06,17.27,1.24,2.12,2.22,3.8,2.45,4.8l.13.59,4.72-7.5,9.35,8.37c-.47.46-1.29,1.46-2.35,2.76-3.17,3.89-8.49,10.41-11.77,11.22-.95.23-2.13.53-3.37.53Z"/><path d="m31.67,67.48h0s.08,0,.11.01c.41.09.41,1.11.41,2.02,0,.83,0,1.69.25,2.38.2.55.42,1.06.63,1.56.93,2.21,1.8,4.3,1.35,8.58-.62,5.92,3.26,12.57,6.09,17.42,1.18,2.02,2.2,3.76,2.42,4.73l.27,1.17.64-1.02,4.24-6.74,8.93,8c-.46.49-1.15,1.33-2.18,2.59-3.16,3.87-8.44,10.35-11.64,11.14-.94.23-2.1.52-3.31.52-7.08,0-11.14-11.26-12.43-34.43-.02-.36-.02-.69-.02-1.01,0-1.17,0-2.38-1.32-2.79-1.07-.33-8.21-2.71-9.17-3.21-.6-.31-.77-.56-.77-.66,0-.1.16-.26.27-.32l1.14-.65-1.29-.27c-2.02-.42-3.29-1.34-3.44-1.84-.02-.06-.02-.1,0-.12.09-.12.47-.22.75-.23l3.83-.11-3.74-.88c-.56-.13-1.24-.45-1.33-.7-.02-.05,0-.12.08-.22.02-.03.18-.19.85-.19,1.61,0,4.23.94,4.26.95l.09.03h.09c.24,0,.47-.01.7-.01,3.9,0,5.95.82,5.97.82l.13.05.14-.02c.43-.06.93-.1,1.46-.1,1.79,0,3.52.36,3.53.37l.7.15-.1-.7c-.31-2.31.11-5.05.92-5.98.25-.28.43-.28.49-.28h0Zm0-.5c-1.61,0-2.3,3.93-1.91,6.83,0,0-1.77-.38-3.64-.38-.51,0-1.04.03-1.53.1,0,0-2.09-.86-6.16-.86-.23,0-.47,0-.71,0,0,0-2.71-.97-4.43-.97-.57,0-1.03.11-1.25.39-.86,1.15,1.54,1.71,1.54,1.71,0,0-1.48.04-1.21,1,.23.8,1.78,1.76,3.82,2.19,0,0-1.47.84.52,1.86,1.02.52,8.25,2.93,9.25,3.24,1.25.39.89,1.69.98,3.35,1.68,30.25,7.88,34.9,12.93,34.9,1.24,0,2.42-.28,3.43-.53,4.65-1.15,13.04-13.18,14.44-14.23l-9.78-8.75-4.55,7.24c-.76-3.33-9.38-13.61-8.5-21.98.56-5.38-.9-7.38-2.01-10.37-.56-1.51.31-4.43-1.02-4.71-.07-.01-.15-.02-.22-.02h0Z"/><path d="m20.37,77.5c-2.52-1.7-4.22-.76-4.29-.72l.24.42c.06-.03,1.55-.83,3.84.74l.07.05h.08s1.69-.06,3.14.51l.18-.45c-1.38-.54-2.89-.55-3.26-.55Z"/><path d="m17.62,74.29c-2.33-.96-3.99-.74-4.06-.73l.07.48s1.64-.21,3.86.72l.06.02h.06s2.24-.16,4.95,1.23l.22-.43c-2.62-1.35-4.76-1.31-5.15-1.29Z"/><path d="m17.71,72.92s3.12.24,6.26,1.63l.2-.45c-3.22-1.43-6.29-1.66-6.42-1.67l-.03.49Z"/><path class="cls-1" d="m91.72,105.98l2.13-15.27,8.78.61v-.26c.18-4.07.23-7.49.27-10.79.08-5.75.15-10.71.88-16.77.4-3.27,2.05-6.09,3.51-8.57.2-.34.39-.66.57-.98.34-.6.51-1.33.68-2.04.22-.93.42-1.81.97-2.2.18-.13.34-.19.48-.19.2,0,.38.13.54.39.69,1.12.65,4.12-.44,6.3l-.21.42.46-.06s.3-.04.77-.04c.73,0,1.87.08,3.1.48l.07.02.07-.02s1.18-.33,2.96-.33c1.55,0,3.08.24,4.56.7l.06.02h.06s1.69-.32,3.17-.32c1.55,0,1.95.32,2.05.52.12.24.08.37.04.44-.2.36-1.07.54-1.57.58l-1.9.12,1.87.37c.17.04.7.19.84.46.03.06.06.15-.02.32-.28.59-1.77,1.26-3.77,1.34l-.65.03.5.42s.34.29.29.58c-.05.25-.4.49-1,.68-1.1.35-8.3,1.57-9.25,1.61-1.79.08-1.75,1.38-1.72,2.64,0,.21.01.42.01.64,0,2.52.93,6.24,2,10.54,2.42,9.71,5.43,21.79-1.37,25.2-3.95,1.97-16.77,2.4-19.73,2.4h-.07Z"/><path d="m109.99,49.76c.13,0,.25.15.32.27.66,1.07.61,3.95-.45,6.06l-.42.83.93-.11s.28-.03.74-.03c.72,0,1.82.08,3.02.47l.14.05.14-.04s1.15-.32,2.89-.32c1.52,0,3.03.23,4.49.69l.12.04.12-.02s1.67-.3,3.12-.3c1.62,0,1.82.37,1.83.38.03.07.07.16.04.2-.12.22-.82.41-1.37.45l-3.74.25,3.67.74c.26.05.6.2.66.33.01.02-.01.08-.02.1-.22.45-1.57,1.12-3.55,1.2l-1.28.06.98.83c.09.08.22.25.2.34,0,0-.06.24-.83.49-1.05.33-8.28,1.56-9.19,1.6-2.04.09-1.99,1.65-1.96,2.9,0,.2.01.42.01.64,0,2.55.93,6.28,2.01,10.6,2.4,9.62,5.38,21.6-1.24,24.91-3.81,1.91-16.08,2.36-19.4,2.38l2.06-14.75,8.29.58.51.04.02-.51c.17-4.07.22-7.49.26-10.79.08-5.74.15-10.7.88-16.75.39-3.22,2.03-6.02,3.48-8.48.2-.33.39-.66.57-.98.36-.63.54-1.38.71-2.11.21-.88.4-1.72.87-2.06.13-.09.25-.15.34-.15h0Zm0-.5c-.19,0-.4.08-.63.24-1.07.77-.94,2.98-1.72,4.33-1.53,2.67-3.65,5.87-4.11,9.65-1.15,9.48-.67,16.25-1.15,27.58l-8.75-.61-2.2,15.78c.09,0,.2,0,.35,0,2.78,0,15.78-.39,19.85-2.43,9.98-4.99-.49-27.68-.49-35.96,0-1.61-.33-2.96,1.47-3.04,1.01-.04,8.26-1.29,9.32-1.62,2.06-.66.79-1.69.79-1.69,2.01-.09,3.64-.76,3.98-1.49.42-.86-.99-1.14-.99-1.14,0,0,2.38-.15,1.74-1.38-.26-.5-1.23-.65-2.28-.65-1.52,0-3.21.31-3.21.31-1.75-.55-3.35-.71-4.63-.71-1.85,0-3.03.33-3.03.33-1.27-.41-2.44-.49-3.17-.49-.5,0-.8.04-.8.04,1.45-2.89,1.1-7.05-.32-7.05h0Z"/><path d="m118.73,61.29c-.31-.16-1.28-.48-3.59-.17l.07.48c2.59-.35,3.35.15,3.35.15l.1.08.12-.04c2.9-.92,3.76-.14,3.77-.13l.17-.17-.18.17.18-.17.18-.17c-.1-.11-1.05-.98-4.16-.03Z"/><path d="m121.81,58.69c-.11,0-2.67-.17-5.1.41l.11.47c2.36-.56,4.92-.4,5.01-.4h0c2-.32,3.82-.07,3.84-.07l.07-.48c-.08-.01-1.91-.25-3.93.07Z"/><path d="m115.59,57.47l.12.47c3.21-.83,6.18-.57,6.21-.56l.04-.49c-.12-.01-3.09-.28-6.38.58Z"/><path class="cls-4" d="m44.22,102.09s4.04,11.44,13.17,12.08c0,0-1.63-22.13-1.85-26.67,0,0-5.73,1.14-11.33,14.59Z"/><path class="cls-5" d="m55.69,87.31c-.06-.04-.13-.06-.2-.05-.24.05-5.92,1.31-11.51,14.73-.02.06-.02.12,0,.18.04.12,4.2,11.6,13.39,12.24,0,0,.01,0,.01,0,.07,0,.13-.03.18-.07.05-.05.08-.12.07-.19-.02-.22-1.63-22.18-1.85-26.66,0-.07-.04-.14-.09-.18Zm-11.22,14.79c4.76-11.4,9.64-13.83,10.84-14.27.25,4.79,1.62,23.54,1.81,26.08-8.26-.79-12.26-10.77-12.65-11.81Z"/><path class="cls-4" d="m72.45,83.43c-8.29,0-17.63,4.07-17.63,4.07,0,0-6.48,15.37-4.07,21.55,1.39,3.55,2.72,11.14,3.61,16.94h38.77c-1.36-2.88-2.52-5.51-2.52-6.88,0-3.32,1.23-6.88,1.87-10.88l7.6.74c1.57-8.55.15-19.32.15-19.32,0,0-19.49-6.23-27.78-6.23Z"/><path d="m92.47,108.24s-6.89,6.1-5.81,13.39c.24,1.61.59,3.06,1.03,4.37h5.43c-1.36-2.88-2.52-5.51-2.52-6.88,0-3.29,1.22-6.89,1.87-10.88Z"/><path d="m87.71,83.78c-6.28-2.77-7.97-13.28-7.97-13.28l-2.82,1.64s-.57,11.88,1.63,11.88c5.55,0,4.83,13.81,7.8,13.81s2.91-3.92,2.91-3.92c3.31,0,4.73-7.37-1.56-10.14Z"/><path d="m87.81,83.56c-6.09-2.69-7.81-12.99-7.83-13.09l-.06-.35-3.24,1.89v.13c-.03.41-.47,10.08,1.19,11.82.2.21.43.32.68.32,3.01,0,4.08,4.41,5.02,8.31.74,3.07,1.33,5.5,2.78,5.5.81,0,1.48-.27,2-.8.96-.97,1.12-2.54,1.14-3.13,1.29-.12,2.34-1.27,2.7-2.99.54-2.58-.6-5.93-4.4-7.6Zm3.92,7.5c-.33,1.59-1.3,2.61-2.46,2.61h-.25v.25s.02,1.98-1.01,3.02c-.42.43-.98.65-1.65.65-1.06,0-1.67-2.49-2.31-5.13-.94-3.87-2.1-8.68-5.5-8.68-.11,0-.22-.05-.32-.17-1.24-1.3-1.19-8.49-1.07-11.32l2.4-1.4c.36,1.88,2.29,10.58,8.05,13.11,3.54,1.56,4.62,4.67,4.12,7.06Z"/><path class="cls-1" d="m71.43,89.03c-2.18,0-3.74-.54-4.62-1.61-1.07-1.29-.77-2.94-.77-2.96.04-.1,1.13-3.41,1.13-10.32v-.3l-.3.05s-.19.03-.48.03c-.93,0-2.63-.32-3.56-2.43-.86-1.96-.35-3.48,1.43-4.28l.25-.11-.13-.24c-.04-.07-3.63-6.69-1.25-10.23,1.18-1.75,4.61-2.97,8.34-2.97s6.52,1.18,7.59,3.15c.35.65.53,1.42.71,2.16.26,1.11.53,2.25,1.36,3.08,1.66,1.67,2.26,5.61,1.34,8.78-.82,2.82-2.68,4.69-5.26,5.28l-.25.06.07.25s.69,2.61.83,7.35c-.27.55-2.68,5.24-6.44,5.24Z"/><path d="m71.48,53.92c3.6,0,6.35,1.13,7.37,3.02.34.62.51,1.34.69,2.1.27,1.14.55,2.32,1.43,3.2,1.6,1.61,2.18,5.44,1.28,8.54-.56,1.93-1.89,4.38-5.07,5.11l-.51.12.13.5s.68,2.57.82,7.23c-.36.72-2.68,5.04-6.19,5.04-2.1,0-3.59-.51-4.43-1.52-.93-1.11-.75-2.53-.72-2.73.14-.42,1.14-3.77,1.14-10.39v-.59s-.59.1-.59.1c0,0-.17.03-.43.03-.87,0-2.46-.3-3.33-2.28-.56-1.28-.79-3.01,1.31-3.95l.49-.22-.26-.47c-.04-.07-3.55-6.56-1.26-9.97,1.13-1.68,4.48-2.86,8.14-2.86h0Zm0-.5c-3.59,0-7.26,1.16-8.55,3.08-2.49,3.71,1.24,10.49,1.24,10.49-1.98.89-2.43,2.62-1.56,4.61,1,2.28,2.87,2.58,3.79,2.58.32,0,.52-.04.52-.04,0,6.95-1.13,10.27-1.13,10.27,0,0-.94,4.87,5.64,4.87,4.19,0,6.7-5.44,6.7-5.44-.14-4.87-.85-7.47-.85-7.47,7.01-1.6,6.93-11.57,4.04-14.49-1.32-1.33-1.14-3.54-2.02-5.19-1.23-2.29-4.49-3.28-7.81-3.28h0Z"/><path d="m77.29,64.51c-.44.06-.82.44-1.13,1.13l.45.2c.23-.52.49-.81.75-.85.29-.04.53.25.53.25l.38-.31s-.42-.5-.97-.43Z"/><path d="m75.51,70.06s3.5,1.71,4.27-.85c.39-1.29-.47-2.76-4.27.85Z"/><path d="m63.24,69.15c-.27.51-.24,1.15.1,1.89l.44-.2c-.27-.6-.31-1.09-.11-1.46.29-.55,1-.69,1.01-.69l-.09-.48s-.95.18-1.35.94Z"/><path d="m63.43,70.33l.2.44c1.2-.56,1.84.12,1.86.15l.18-.16-.18.16.18-.16.18-.16s-.89-.98-2.43-.27Z"/><path d="m64.33,84.14c-.28,0-.53.1-.75.26.63-.17.94-.26.75-.26Z"/><path d="m65.64,49.56c-8.83,2.68-8.46,8.9-8.46,8.9-5.73,2.59-3.33,9.61-2.86,14.39.55,5.7-.69,7.93-7.6,10.23-6.9,2.3-3.6,5.98-3.6,5.98-3.45,4.76,2.98,8.79,2.98,8.79,0,0,3.61-6.54,7.33-9.45,2.54-1.98,8.07-3.43,10.14-4,.22-.17.47-.26.75-.26.19,0-.12.09-.75.26-2.68,2.02-.63,15.39,3.94,15.39,3.58,0,3.92-3.72,3.92-3.72,0,0,5.51-2.2.59-7.73-6.14-6.91-3.04-15.14-5.11-14.21-.95.43-2.2-.2-3.59-1.42-2.15-1.89-1.35-5.78,1.28-5.78,5.64,0,.28-9.89.28-9.89,8.97-4.54,13.45,2.63,17.45,2.05,0-8.76-8.71-11.97-16.71-9.55Z"/><path d="m70.82,48.53c-1.75,0-3.51.27-5.25.8-8.09,2.45-8.61,7.94-8.63,8.98-4.73,2.25-3.9,7.59-3.23,11.89.15.95.29,1.85.37,2.68.53,5.45-.47,7.66-7.43,9.98-2.58.86-4.09,2.02-4.47,3.45-.34,1.29.34,2.38.63,2.77-.83,1.21-1.12,2.48-.87,3.78.59,3.02,3.88,5.12,4.02,5.21l.22.14.12-.23c.04-.06,3.63-6.53,7.27-9.37,2.23-1.74,6.89-3.09,9.29-3.75-1.17,2.03-.86,6.92.36,10.45,1.05,3.05,2.57,4.74,4.28,4.74,3.34,0,4.03-3.08,4.14-3.79.49-.23,2.14-1.11,2.56-2.88.36-1.53-.32-3.28-2.01-5.19-3.78-4.25-4-8.96-4.14-11.78-.08-1.61-.12-2.58-.86-2.58-.12,0-.24.03-.38.09-.78.35-1.9-.12-3.33-1.38-1.23-1.08-1.35-2.74-.94-3.82.37-.97,1.12-1.53,2.06-1.53,1.14,0,1.95-.39,2.41-1.15,1.42-2.38-1.18-7.71-1.79-8.88,1.9-.93,3.69-1.38,5.47-1.38,2.81,0,5.04,1.14,7.01,2.14,1.73.88,3.22,1.63,4.68,1.42l.21-.03v-.21c0-7.3-5.91-10.57-11.77-10.57Zm7.11,8.96c-2.02-1.03-4.3-2.19-7.23-2.19-1.93,0-3.86.5-5.91,1.54l-.22.11.12.22c.03.06,3.34,6.23,1.92,8.62-.37.61-1.02.91-1.99.91-1.14,0-2.08.69-2.52,1.84-.57,1.51-.13,3.3,1.07,4.36,1.61,1.42,2.88,1.9,3.85,1.46.09-.04.15-.05.18-.05.27,0,.33,1.08.38,2.12.14,2.88.37,7.7,4.26,12.08,1.58,1.78,2.23,3.38,1.9,4.75-.42,1.78-2.38,2.59-2.4,2.6l-.14.06v.15c-.03.14-.37,3.5-3.69,3.5-1.46,0-2.85-1.61-3.82-4.41-1.43-4.15-1.44-9.32-.03-10.51.91-.25.99-.28.96-.51l-.08-.22h-.21c-.32,0-.62.1-.88.29l-.22.06c-2.24.61-7.47,2.04-9.93,3.96-3.37,2.63-6.58,8.08-7.27,9.29-.73-.51-3.13-2.35-3.59-4.75-.23-1.22.07-2.41.89-3.55l.12-.16-.13-.15s-1-1.14-.65-2.47c.33-1.26,1.73-2.31,4.15-3.12,7.22-2.41,8.31-4.84,7.76-10.49-.08-.85-.22-1.75-.37-2.71-.69-4.39-1.46-9.38,3.09-11.43l.15-.07v-.17c-.01-.06-.27-6.06,8.28-8.65,1.69-.51,3.41-.77,5.11-.77,5.16,0,11.17,2.59,11.28,9.87-1.26.09-2.61-.59-4.18-1.4Z"/><path d="m68.38,62.48l.44.21c.56-1.18,1.51-2.54,3.82-2.54v-.49c-2.61,0-3.68,1.61-4.26,2.81Z"/><path d="m71.39,63.59c-.42.14-.65.59-.51,1.01s.59.65,1.01.51c.42-.14.65-.59.51-1.01-.14-.42-.59-.65-1.01-.51Z"/><path d="m76.38,58.75l.26.41c1.5-.94,2.03-.6,3.2.14l.17.11.26-.41-.17-.11c-1.22-.78-1.96-1.25-3.72-.14Z"/><path d="m78.46,61.26c-.42.14-.65.59-.51,1.01.14.42.59.65,1.01.51.42-.14.65-.59.51-1.01-.14-.42-.59-.65-1.01-.51Z"/><path class="cls-2" d="m52.24,115.52c-1.93-7.49-.31-17.38-.29-17.48l.49.08c-.02.1-1.62,9.89.28,17.27l-.48.12Z"/><path class="cls-6" d="m37.95,45.44c0,8.38-6.8,15.18-15.18,15.18s-15.18-6.8-15.18-15.18,6.8-15.18,15.18-15.18,15.18,6.8,15.18,15.18Z"/><polygon class="cls-6" points="25.78 28.69 19.76 28.69 22.77 22.67 22.77 22.67 25.78 28.69"/><polygon class="cls-6" points="25.78 28.69 19.76 28.69 22.77 22.67 22.77 22.67 25.78 28.69"/><polygon class="cls-6" points="19.76 62.2 25.78 62.2 22.77 68.21 22.77 68.21 19.76 62.2"/><polygon class="cls-6" points="39.53 48.45 39.53 42.43 45.54 45.44 45.54 45.44 39.53 48.45"/><polygon class="cls-6" points="6.02 42.43 6.02 48.45 0 45.44 0 45.44 6.02 42.43"/><polygon class="cls-6" points="36.75 35.72 32.49 31.47 38.87 29.34 38.87 29.34 36.75 35.72"/><polygon class="cls-6" points="8.8 55.16 13.05 59.41 6.67 61.54 6.67 61.54 8.8 55.16"/><polygon class="cls-6" points="32.49 59.41 36.75 55.16 38.87 61.54 38.87 61.54 32.49 59.41"/><polygon class="cls-6" points="13.05 31.47 8.8 35.72 6.67 29.34 6.67 29.34 13.05 31.47"/><path class="cls-3" d="m133.09,37.89c0,7.81-5.31,14.14-11.86,14.14s-11.86-6.33-11.86-14.14,11.86-23.76,11.86-23.76c0,0,11.86,15.95,11.86,23.76Z"/><polygon points="15.83 47.81 26.27 32.99 24.32 43.05 28.24 43.56 18.89 57.33 20.64 47.38 15.83 47.81"/><polygon points="114.45 38.36 124.9 23.55 122.95 33.61 126.86 34.12 117.52 47.89 119.27 37.94 114.45 38.36"/><path class="cls-1" d="m91.43,49.69c-2,0-3.63-1.63-3.63-3.63s1.63-3.63,3.63-3.63,3.63,1.63,3.63,3.63-1.63,3.63-3.63,3.63Z"/><path d="m91.43,42.68c1.86,0,3.38,1.52,3.38,3.38s-1.52,3.38-3.38,3.38-3.38-1.52-3.38-3.38,1.52-3.38,3.38-3.38h0Zm0-.5c-2.14,0-3.88,1.74-3.88,3.88s1.74,3.88,3.88,3.88,3.88-1.74,3.88-3.88-1.74-3.88-3.88-3.88h0Z"/><path class="cls-1" d="m89.63,59.92c-1.39,0-2.52-1.13-2.52-2.52s1.13-2.52,2.52-2.52,2.52,1.13,2.52,2.52-1.13,2.52-2.52,2.52Z"/><path d="m89.63,55.13c1.25,0,2.27,1.02,2.27,2.27s-1.02,2.27-2.27,2.27-2.27-1.02-2.27-2.27,1.02-2.27,2.27-2.27h0Zm0-.5c-1.53,0-2.77,1.24-2.77,2.77s1.24,2.77,2.77,2.77,2.77-1.24,2.77-2.77-1.24-2.77-2.77-2.77h0Z"/><path class="cls-1" d="m84.35,38.33c-2.72,0-5.29-1.2-7.03-3.3l-.12-.15-.18.08c-1.9.92-3.91,1.38-5.98,1.38-3.14,0-6.11-1.04-8.58-3l-.16-.13-.16.14c-1.38,1.2-3.15,1.87-4.97,1.87-.35,0-.7-.02-1.05-.07-3.38-.46-6.1-3.25-6.47-6.65-.24-2.19.43-4.29,1.89-5.91,1.44-1.6,3.49-2.52,5.64-2.52h.21l.14-.2c.11-.57.28-1.17.51-1.83l.04-.13-.08-.11c-1.43-1.88-2.11-4.22-1.91-6.58.38-4.46,4.02-8.17,8.46-8.64.35-.04.69-.05,1.03-.05,4.15,0,7.8,2.66,9.07,6.61l.04.13.13.04c.31.09.66.16,1.02.2.18.02.35.03.53.03,2.34,0,4.25-1.83,4.28-4.08-.01-2.02.92-3.72,2.44-4.52.9-.47,1.82-.71,2.75-.71,2.72,0,4.99,2.13,5.17,4.84v.21s.22.02.22.02c5.82.61,10.21,5.48,10.21,11.34,0,4.95-3.17,9.31-7.88,10.84l-.2.07.03.21c.08.53.12.98.12,1.41,0,5.04-4.1,9.14-9.14,9.14Z"/><path d="m85.82.5c2.59,0,4.75,2.03,4.92,4.61l.03.42.42.04c5.69.59,9.98,5.36,9.98,11.09,0,4.84-3.1,9.11-7.71,10.61l-.41.13.07.42c.08.51.12.95.12,1.37,0,4.9-3.99,8.89-8.89,8.89-2.65,0-5.14-1.17-6.84-3.21l-.25-.3-.35.17c-1.86.9-3.84,1.35-5.87,1.35-3.09,0-6-1.02-8.42-2.95l-.33-.26-.31.27c-1.34,1.16-3.04,1.8-4.8,1.8-.34,0-.68-.02-1.02-.07-3.27-.44-5.9-3.15-6.26-6.43-.23-2.12.42-4.14,1.82-5.71,1.39-1.55,3.37-2.44,5.47-2.44h.07s.01,0,.01,0h.42s.08-.4.08-.4c.11-.56.27-1.14.5-1.79l.09-.25-.16-.21c-1.4-1.84-2.05-4.11-1.86-6.41.37-4.34,3.91-7.96,8.24-8.41.33-.04.67-.05,1-.05,4.04,0,7.59,2.59,8.83,6.44l.08.25.26.07c.33.09.69.16,1.06.21.19.02.37.03.56.03,2.47,0,4.5-1.94,4.53-4.32v-.07c-.01-1.86.87-3.48,2.3-4.23.86-.45,1.75-.68,2.63-.68h0Zm0-.5c-.92,0-1.89.23-2.86.74-1.7.89-2.58,2.75-2.57,4.67v.06c-.02,2.19-1.88,3.83-4.03,3.83-.17,0-.33,0-.5-.03-.34-.04-.67-.1-.99-.19-1.26-3.94-4.95-6.79-9.3-6.79-.35,0-.7.02-1.05.05-4.58.48-8.29,4.27-8.68,8.86-.22,2.55.55,4.91,1.96,6.76-.21.6-.39,1.22-.52,1.86-.04,0-.07,0-.1,0-4.61,0-8.29,3.99-7.78,8.7.38,3.51,3.19,6.39,6.69,6.87.37.05.73.07,1.09.07,1.96,0,3.76-.73,5.13-1.93,2.4,1.91,5.43,3.06,8.73,3.06,2.18,0,4.24-.51,6.09-1.4,1.72,2.07,4.32,3.39,7.22,3.39,5.19,0,9.39-4.2,9.39-9.39,0-.49-.05-.97-.12-1.44,4.67-1.52,8.05-5.9,8.05-11.08,0-6.02-4.57-10.98-10.43-11.59-.18-2.83-2.53-5.08-5.42-5.08h0Z"/><path class="cls-4" d="m74.33,11.62c-5.9,1.52-9.52,7.52-8.07,13.42,1.45,5.9,7.41,9.45,13.31,7.93,5.9-1.52,9.52-7.52,8.07-13.42-1.45-5.9-7.41-9.45-13.31-7.93Z"/><path d="m80.32,12.11q-.4-.17-1.02.05.6.41,1.02-.05Zm-2.06,10.47c-.59.06-1.06.1-1.53.15-.02,0-.04.09-.08.19.11.08.23.18.35.27.28-.46.83-.24,1.25-.61Zm.16-10.62c.05-.05.05-.14.1-.27-.2-.06-.37-.1-.53-.26-.05-.05-.1-.09-.15-.14-1.15-.08-2.33.02-3.51.32-.04.01-.08.02-.12.03.1.08.22.12.4.05.31-.11.58-.04.82.25.17.21.53.17.71.41.03.04.15,0,.23,0-.05.12-.09.22-.16.4.3.12.68.14.82.34.36.51.84.58,1.49.61-.15-.22-.36-.38-.34-.51.04-.23.13-.42-.18-.52.1-.09.2-.17.3-.25-.03-.12-.06-.23-.09-.37.07-.04.16-.06.21-.11Zm-.82,4.29c-.02.1-.05.2-.07.32.32,0,.6-.02.89-.02-.03-.13-.07-.27-.08-.34-.26-.1-.47-.19-.69-.27-.01.1-.03.21-.05.31Zm7.24-1.24c-.12.14-.25.31-.33.4.22.4.41.72.59,1.05.16.03.34.06.61.1-.12-.3.3-.62-.17-.85-.02-.18-.11-.36-.13-.54-.6-.72-1.29-1.35-2.04-1.88-.21-.08-.43-.04-.68.17.13.17.26.33.35.45.37.02.71.03,1.08.05-.04.2-.07.32-.13.59.25.14.54.3.84.47Zm-8.51,7.74c-.08-.08-.14-.2-.21-.21-.18,0-.43.12-.55.04-.46-.32-.82-.01-1.25.09.25.55.38.08.54,0,.48-.04.91.56,1.47.07Zm-8.43-5.08c.03.24-.03.49.02.72.13.57.14.56.06,1.01-.01.08-.02.16-.03.24-.07.57-.08,1.1.29,1.62.2.28.51.32.69.57.04.17.12.34.11.5,0,.17.4.21.18.41.16.08.34.17.49.25,0-.09-.02-.25-.04-.48.15.11.25.16.32.24.18.19.33.42.53.59.21.18.48.3.36.66.54.31,1.09.61,1.74.5.3-.05.58-.17.86.09.15.13.39.17.59.22.04.01.12-.11.18-.17.97.88.99.88,2.1.51,0-.03-.02-.08-.02-.08-.17,0-.32.02-.48.03-.54.02-.64-.09-.73-.67-.03-.17-.17-.32-.25-.47-.34.06-.6.11-.88.17.03-.39.05-.71.08-1.06-.21.05-.37.1-.54.14-.08.24-.04.53-.39.65-.37.12-.57-.12-.82-.26-.11-.45-.22-.9-.33-1.34q.48-.61,1.19-.58c.01-.11.02-.21.04-.38.36-.01.72-.03,1.01-.04.28.32.52.59.8.92.09-.55-.31-.87-.44-1.34.21-.25.44-.52.66-.8.2-.25.18-.32-.14-.7.11-.11.3-.21.32-.34.05-.4.35-.55.61-.77-.02-.14-.04-.27-.05-.4.2-.11.39-.22.57-.32.05.1.08.17.13.28.29-.29.55-.55.81-.81-.03-.04-.07-.08-.1-.11-.14.1-.28.2-.45.33-.12-.08-.25-.16-.43-.29.22-.28.46-.48.57-.74.13-.3.47-.33.63-.57-.26-.28-.51-.41-.82-.44-.24-.02-.43-.12-.57-.34-.08-.13-.21-.24-.33-.34-.05-.04-.15-.04-.24-.05-.04.16-.08.3-.13.49-.55-.16-.81-1.05-1.51-.53.06.33-.14.72.2,1.01.05.04.07.2.03.23-.32.29-.09.68-.13,1-.59.08-.51-.44-.64-.68-.27,0-.49.04-.7,0-.21-.04-.4-.13-.6-.22-.21-.09-.26-.29-.2-.49.09-.34.41-.53.53-.87.07-.2.39,0,.6,0,.16,0,.31-.07.64-.16-.32-.12-.47-.18-.61-.24.1-.2.2-.35.25-.51.2-.59.28-.63.78-.35.07.04.15.08.24.14-.18.23-.35.46-.53.69q.57-.08,1.24.28c.14-.13.29-.26.42-.38-.09-.09-.16-.17-.23-.24.09-.19.16-.35.24-.5-.67-.3-1.28-.57-1.85-.83-.33.07-.61.12-.89.18,0-.04-.02-.09-.03-.13.26-.07.52-.13.75-.19.05-.13.09-.24.13-.36-.15.05-.31.1-.46.15.02.03.05.06.07.1-.15,0-.28.01-.4.02-.23.09-.45.19-.67.29-.12.19-.22.36-.33.54.09.13.19.27.39.57-.34-.09-.51-.14-.64-.18.03-.17.06-.3.08-.38-.13-.03-.26-.06-.38-.09-.33.19-.64.4-.95.63.09.02.16.03.25.05-.08.13-.14.22-.18.29-.11-.03-.24-.08-.35-.12-1,.79-1.85,1.74-2.52,2.8.08.14.12.31.09.53-.03.21.12.44.15.67Zm4.37-4.8c.17-.05.3-.08.48-.12.12.19.27.43.42.67-.05.04-.1.09-.14.13-.24-.21-.48-.42-.76-.67Zm4.35,13.3c-.13.22-.31.51-.48.8.29.19.04.53.16.74.3.21.59.38.85.59.23.18.39.45.63.6.26.17.58.25.81.34.29.95.37,1.81.2,2.68.05.09.18.2.18.3-.02.26,0,.51.04.75,0,.04.01.08.02.11.18-.04.37-.08.55-.13.04,0,.07-.02.11-.03.14-.52.3-1.04.78-1.36.18-.12.28-.23.35-.42.03-.09.06-.22.12-.25.61-.26.88-.79,1.04-1.39.09-.33.34-.55.58-.62.52-.15.64-.53.78-.97.2-.66.34-1.34.79-1.89.02-.02.04-.05.04-.07,0-.14,0-.27,0-.44-.35.07-.57-.34-.92-.2-.32.13-.62.03-.94-.04-.12-.03-.26.08-.43.14-.2-.28-.45-.61-.72-.97-.3,0-.65.01-1.02.02-.41-.17-.85-.37-1.27-.54-.17.15-.21.32-.5.25-.3-.08-.68-.25-.95.13-.06-.12-.09-.19-.16-.32-.17.2-.21.48-.5.52-.34.05-.01.58-.4.63.08.31.15.61.25,1.03Zm8.91-6.1c.15,0,.23-.01.39-.02.03.33.25.59.07.93-.06.11,0,.42.11.48.53.28.54,1.01,1.09,1.22.24-.18.5-.38.77-.58,0-.84-.11-1.69-.32-2.54-.31-1.26-.83-2.42-1.51-3.44-.02,0-.04,0-.07,0-.04.12-.05.36-.17.46-.35.29-.32.63-.23,1.01.04.16.1.35.06.49-.2.65,0,1.32-.18,1.99Z"/><rect class="cls-5" x="15.07" y="125.04" width="115.37" height="1.15"/></g></svg>