<?xml version="1.0" encoding="UTF-8"?><svg xmlns="http://www.w3.org/2000/svg" viewBox="0 0 124.98 104.98"><defs><style>.cls-1{fill:#fff;}.cls-2{fill:#000502;}.cls-3{isolation:isolate;}.cls-4{fill:#00272e;}.cls-5{opacity:.72;}.cls-5,.cls-6{fill:#6d6494;mix-blend-mode:multiply;}.cls-5,.cls-7,.cls-8{fill-rule:evenodd;}.cls-9,.cls-7{fill:#3b9d81;}.cls-6{opacity:.55;}.cls-10{fill:#16162b;}.cls-11,.cls-8{fill:#fab903;}</style></defs><g class="cls-3"><g id="Layer_2"><g id="Layer_1-2"><path class="cls-1" d="m47.43,69.75c-.38-.88-.35-2.04-.32-3.26.06-2.26.12-4.81-2.7-5.87-.91-.34-1.32-1.65-1.65-2.69-.32-1.01-.57-1.81-1.21-1.81h-.16c-1.15,0-1.62-.62-2.17-1.33l-.09-.12c-.86-1.12-.61-2.44-.61-2.45v-.07s-.01-.07-.01-.07c0-.02-.61-1.5.12-2.09.46-.37.43-.98.4-1.57-.02-.41-.05-.82.1-1.13.25-.53.44-.71,1.51-.71.32,0,.71.02,1.19.05,1.42.1,2.31.71,2.32.72l.56.4-.18-.67c-.04-.15-.96-3.6-1.72-4.92-.63-1.1-1.46-3.72.03-4.79.07-.05.13-.08.18-.08.36,0,.71,1.19.9,1.84.1.34.19.64.28.86.33.79.62,1.65.91,2.49.6,1.74,1.21,3.53,2.1,4.69.56.74,1.65,4,2.79,7.45,1.37,4.13,2.92,8.78,4.18,11.07l-6.76,4.07Z"/><path d="m43.02,37.54c.24.19.54,1.2.67,1.65.1.33.19.65.29.89.32.78.62,1.64.91,2.48.6,1.75,1.23,3.57,2.14,4.76.54.71,1.67,4.1,2.76,7.38,1.33,4.01,2.83,8.52,4.08,10.89l-6.3,3.79c-.25-.8-.23-1.82-.2-2.88.06-2.34.13-4.99-2.86-6.11-.8-.3-1.19-1.54-1.5-2.53-.33-1.06-.62-1.98-1.48-1.98h-.12c-1.02,0-1.44-.54-1.97-1.23l-.09-.12c-.78-1.02-.56-2.24-.56-2.25l.03-.15-.06-.14c-.14-.34-.44-1.41.04-1.8.57-.45.52-1.19.49-1.78-.02-.37-.04-.76.07-1,.2-.41.28-.57,1.28-.57.3,0,.67.02,1.18.05,1.34.09,2.19.67,2.19.67l1.13.8-.36-1.34c-.04-.15-.97-3.64-1.74-4.98-.59-1.04-1.39-3.5-.04-4.46.01,0,.02-.01.03-.02h0Zm0-.51c-.1,0-.21.04-.33.12-1.64,1.18-.79,3.92-.1,5.12.75,1.3,1.69,4.86,1.69,4.86,0,0-.93-.66-2.45-.76-.49-.03-.89-.05-1.21-.05-1.14,0-1.43.23-1.73.86-.39.81.23,2.09-.43,2.61-.89.72-.19,2.38-.19,2.38,0,0-.28,1.43.65,2.65.59.77,1.12,1.55,2.46,1.55.05,0,.09,0,.14,0h.02c1.02,0,.93,3.8,2.77,4.49,4.23,1.59,1.57,6.65,3,9.25l7.21-4.34c-2.34-4.01-5.82-17.07-7.11-18.76-1.29-1.69-1.98-4.71-2.98-7.13-.33-.8-.67-2.85-1.41-2.85h0Z"/><path class="cls-9" d="m61.96,74.52l-10.83-17.59s-4.93,3.1-10.58,5.62c0,0,3.09,16,9.29,23.44,16.95,20.3,27-1.03,27-1.03l.22-34.61s-11.73.48-15.09,24.17Z"/><path d="m63.97,95.01c-4.6,0-9.41-2.97-14.32-8.85-6.18-7.4-9.32-23.39-9.35-23.55l-.04-.19.18-.08c5.57-2.49,10.5-5.57,10.55-5.6l.21-.13.13.21,10.47,17c3.48-22.96,14.75-23.69,15.23-23.71h.26s0,.25,0,.25l-.24,34.72c-.04.09-4.27,8.89-11.74,9.85-.45.06-.9.09-1.35.09Zm-23.14-32.3c.38,1.84,3.47,16.27,9.2,23.13,5.28,6.32,10.39,9.2,15.23,8.59,6.92-.89,10.98-8.82,11.33-9.52l.21-34.27c-1.74.27-11.58,2.72-14.59,23.92l-.1.69-11.07-17.96c-1,.61-5.35,3.23-10.21,5.42Z"/><path class="cls-9" d="m62.85,76.89s-.07-3.42-1-3.68c-.93-.26-1.01,4.45-1.01,4.45l2.01-.77Z"/><path d="m61.09,77.66h-.5c.01-.68.11-4.04.88-4.61.14-.1.29-.13.46-.09,1.06.3,1.17,3.32,1.18,3.92h-.5c-.03-1.55-.35-3.31-.82-3.44-.33.08-.66,2.09-.69,4.22Z"/><path class="cls-6" d="m59.27,89.62c-7.11,0-15.31-18.82-15.31-18.82l1.02-.41c-.75-.6-2.79-7.86-2.94-9.01-.83.38-1.7.76-2.64,1.14l2.37,8.76s.31.01,1.04-.17c1.98,5.92,3.59,10.76,7.03,14.89,16.95,20.3,27-1.03,27-1.03l.12-20.84c-8.33,0-8.95,25.49-17.68,25.49Z"/><path class="cls-9" d="m88.06,48.99c-10.81,0-17.74,5.17-18.88,10.08-3.21,13.83-3.54,17.03-3.96,45.17h48.46c-.36-29.99-.7-34.44-5.5-46.23-2.27-5.59-6.4-9.01-20.12-9.01Z"/><path d="m113.94,104.49h-48.97v-.25c.42-27.83.72-31.21,3.98-45.22,1.16-4.98,8.25-10.27,19.12-10.27,13.84,0,18.05,3.51,20.35,9.17,4.83,11.87,5.16,16.39,5.52,46.33v.25Zm-48.46-.5h47.96c-.36-29.63-.7-34.13-5.48-45.89-2.22-5.47-6.33-8.85-19.89-8.85-10.61,0-17.52,5.09-18.63,9.89-3.23,13.92-3.54,17.31-3.95,44.86Z"/><path class="cls-9" d="m67.31,63.41h3.88l5.39-11.36h-2.54s-5.01,1.94-6.73,11.36Z"/><path class="cls-1" d="m79.93,69.35c-.37-1.51-1.47-7.02-.28-15.01.85-5.73,4.27-7.77,6.94-7.77,1.53,0,2.96.65,3.93,1.79,3.43,4.02-4.35,14.63-10.59,20.99Z"/><path d="m86.58,46.82c1.46,0,2.82.62,3.74,1.7,3.26,3.83-4.14,14-10.26,20.33-.42-1.95-1.26-7.17-.18-14.47.83-5.58,4.12-7.55,6.69-7.55h0Zm0-.5c-3.04,0-6.37,2.43-7.19,7.98-1.42,9.57.4,15.54.4,15.54,5.27-5.3,14.81-17.07,10.91-21.64-1.04-1.22-2.54-1.87-4.12-1.87h0Z"/><path class="cls-1" d="m79.56,56.2c-.64,0-1.24-.12-1.78-.37-2.53-1.13-6.33-6.2-4.93-11.09.18-.62.34-.98.48-1.29.3-.67.48-1.08.37-3.02-.04-.66-.05-1.23-.02-1.75.07-1.78.48-2.78.87-3.52.7-1.34,2.58-2.12,5.15-2.12,2.8,0,5.87.92,7.29,2.18,2.58,2.29,4.99,11.16,2.7,14.62-.04.06-5.46,6.36-10.11,6.36h0Z"/><path d="m79.69,33.3c2.75,0,5.74.89,7.12,2.12,2.52,2.24,4.89,10.91,2.67,14.27-.05.06-5.43,6.27-9.92,6.27-.6,0-1.17-.12-1.68-.34-2.75-1.23-6.05-6.42-4.8-10.79.17-.6.33-.95.46-1.26.34-.77.5-1.22.39-3.13-.04-.64-.04-1.21-.02-1.72.07-1.73.47-2.7.84-3.42.66-1.26,2.46-1.98,4.93-1.98h0Zm0-.5c-2.37,0-4.54.64-5.38,2.25-.48.92-.83,1.97-.9,3.63-.02.52-.01,1.11.02,1.77.16,2.76-.27,2.25-.84,4.22-1.38,4.84,2.27,10.13,5.07,11.39.6.27,1.24.39,1.88.39,4.72,0,10.22-6.33,10.32-6.47,2.38-3.59-.04-12.54-2.74-14.94-1.47-1.31-4.61-2.24-7.45-2.24h0Z"/><path d="m73.8,47.77s0-.08,0-.09c.25-.51.98-1.8.99-1.81l-.34-.19c-.03.05-.74,1.31-1,1.83-.06.12-.07.25-.02.39.18.54,1.24,1.07,1.36,1.13l.17-.35c-.4-.19-1.07-.61-1.17-.9Z"/><path d="m76.51,52.98c-.08-.44.09-.57.14-.61.49-.39,2.06.07,2.94.45l.15-.36c-.19-.08-1.49-.63-2.48-.63-.34,0-.64.06-.86.23-.27.21-.36.54-.28.98l.38-.07Z"/><path d="m78.97,41.97c-.32-.05-.51-.09-.63-.26l-.31.23c.23.3.56.36.88.41.59.1,1.26.21,1.89,1.71l.36-.15c-.71-1.7-1.56-1.84-2.18-1.94Z"/><path d="m73.27,41.63l.24.31c.62-.48,1.22-.04,1.24-.02l.24-.31c-.29-.22-1.03-.51-1.72.03Z"/><path d="m78.56,45.51c-.23.05-.38.27-.33.5.05.23.27.38.5.33.23-.05.38-.27.33-.5-.05-.23-.27-.38-.5-.33Z"/><path d="m74.15,43.75c-.24,0-.43.19-.43.43s.19.43.43.43.43-.19.43-.43-.19-.43-.43-.43Z"/><path d="m81.09,46.06c-.73-.82-2.63-2.56-4.99-1.59-.14-.15-.82-.48-1.05-.47-.16-.53-.73-1.84-2.57-2.72-.68-.32-1.23-.18-1.52.4-.62,1.25.18,4.2,1.62,4.92.44.22.85.24,1.22.05.8-.39,1.15-1.61,1.26-2.04.07,0,.64.23.72.37.02.48.27,3.86,3.14,4.76.3.09.58.14.83.14.39,0,.72-.11.99-.33.62-.5.77-1.43.79-2.04,0-.23.16-.43.38-.51l5.13-1.8v-.85l-5.36,1.84c-.22.07-.45.02-.6-.15Zm-6.45-1.67c-.08.42-.42,1.57-1.05,1.88-.24.12-.51.1-.82-.05-1.2-.61-1.94-3.28-1.42-4.33.08-.15.2-.32.46-.32.12,0,.27.04.46.12,2.09,1,2.37,2.56,2.38,2.62,0,0-.01.06-.02.08Zm5.82,4.84c-.33.26-.81.3-1.41.11-2.77-.88-2.83-4.37-2.83-4.4,0,0,0-.02,0-.02,2.71-1.17,4.74,1.68,4.83,1.8.03.04.03.2.04.28,0,.02.14,1.63-.62,2.24Z"/><path d="m98.58,32.4s2.33-2.97-1.96-4.18c0,0,.54-2.88-3.04-2.12,0,0-3.21-6.4-7.26-.99,0,0-1.91-4.46-3.6-.14,0,0-4.94-4.18-5.59,1.95,0,0-4.36-2.75-3.37,3.26,0,0-4.51-3.04-2.03,1.55,0,0-4.58,2-.51,4.51,0,0-2.17,2.57.78,2.49,0,0-.66,2.52,1.26,1.82,0-.01-.13-1.77.5-2.82,0,0,1.74,1.52,3.34-.92,0,0-.26,3.09,2.79,2.06,0,0-.46,1.27.74,1.24,0,0-.14,2.94,1.77,2.06,0,0,1.14,1.81,2.05.9,0,0-1.82,2.18.91,3.59,0,0-1.17,2.91,2.1,2.91,0,0,1.54,2.38,3.13.08,0,0,3.38,2.66,5.05-.9,0,0,4.07-.32,2.59-3.25,0,0,3.71-1.78.97-4.52,0,0,3.61-.94.8-3.48,0,0,3.9-3.42-1.39-5.11Z"/><rect class="cls-1" x="9.34" y="76.04" width="33.92" height="15.71"/><path d="m43.01,76.29v15.21H9.59v-15.21h33.42Zm.5-.5H9.09v16.21h34.42v-16.21h0Z"/><g id="LDuPgP"><path class="cls-8" d="m26.02.26c-1.24.06-2.47.21-3.7.36-.73.09-1.46.21-2.17.41C9.35,3.99,2.51,10.91.66,21.95c-1.79,10.68,2.19,19.31,11.02,25.62.9.64,1.24,1.3,1.28,2.37.19,5.65.45,11.31.68,16.96.07,1.63.37,3.24,1.87,4.08,1.34.75,2.37,1.74,3.44,2.79,1.72,1.68,4.05,2.19,6.37,2.25,3.62.09,7.12-.31,9.42-3.7.16-.24.48-.43.76-.54,2.97-1.13,3.62-2.06,3.71-5.18.16-5.7.37-11.4.52-17.11.03-1,.37-1.66,1.21-2.28,7.89-5.87,11.6-13.71,10.76-23.56C50.6,10.51,39.28-.36,26.02.26Z"/><path class="cls-4" d="m27.09,0c-.36,0-.72,0-1.09.03-1.2.06-2.41.2-3.58.34l-.14.02c-.84.1-1.56.24-2.2.41C8.88,3.88,2.26,10.98.43,21.91c-1.78,10.61,1.96,19.3,11.11,25.84.83.59,1.14,1.18,1.18,2.19.13,3.87.3,7.8.46,11.6.08,1.79.15,3.57.22,5.36.06,1.6.35,3.36,1.99,4.27,1.32.73,2.33,1.72,3.39,2.76,1.52,1.49,3.66,2.25,6.53,2.31.27,0,.54.01.81.01,3.08,0,6.53-.45,8.8-3.81.12-.17.37-.34.65-.45,3.05-1.16,3.77-2.17,3.86-5.39.08-2.66.16-5.31.25-7.97.1-3.05.19-6.09.28-9.14.03-.93.34-1.52,1.12-2.1,8.03-5.98,11.69-13.98,10.86-23.76C50.84,10.6,39.69,0,27.09,0Zm13.72,47.02c-.9.67-1.27,1.38-1.31,2.46-.08,3.05-.18,6.09-.28,9.14-.08,2.66-.17,5.31-.25,7.97-.09,3.04-.69,3.88-3.56,4.97-.18.07-.63.27-.87.63-2.15,3.18-5.46,3.61-8.42,3.61-.27,0-.54,0-.8-.01-2.75-.06-4.78-.78-6.21-2.18-1.09-1.06-2.11-2.06-3.49-2.83-1.44-.8-1.69-2.41-1.75-3.88-.07-1.79-.15-3.57-.22-5.36-.16-3.8-.33-7.73-.46-11.6-.04-1.16-.42-1.88-1.37-2.56C2.82,40.95-.85,32.41.89,21.99,2.69,11.26,9.19,4.28,20.21,1.25c.62-.17,1.32-.3,2.13-.4l.14-.02c1.16-.14,2.36-.29,3.54-.34.36-.02.71-.02,1.06-.02,12.36,0,23.3,10.41,24.38,23.2.81,9.62-2.78,17.47-10.67,23.35Z"/><path class="cls-7" d="m9.83,62.08c10.64-1.19,21.27-2.4,31.9-3.64.58-.07,1.09-.13,1.55-.19v-3.66c-11.15,1.24-22.31,2.46-33.45,3.74v3.75Z"/><path class="cls-2" d="m43.25,54.36l-3.49.39c-9.82,1.09-19.98,2.21-29.96,3.35-.12.01-.21.11-.21.23v3.75c0,.07.03.13.08.17.04.04.1.06.16.06,0,0,.02,0,.03,0,10.05-1.12,20.48-2.31,31.9-3.64.58-.07,1.09-.13,1.55-.19.12-.02.2-.11.2-.23v-3.66c0-.07-.03-.13-.08-.17-.05-.04-.12-.06-.18-.06Zm-.21,3.69c-.41.05-.85.11-1.34.16-11.32,1.31-21.67,2.49-31.63,3.61v-3.29c9.91-1.13,20-2.25,29.75-3.33l3.23-.36v3.2Z"/><path class="cls-7" d="m9.83,67.47c11.12-1.25,33.41-3.77,33.45-3.77v-3.82s-22.32,2.58-33.45,3.81v3.78Z"/><path class="cls-2" d="m43.25,59.65h-.09c-3.78.45-23.14,2.68-33.36,3.81-.12.01-.21.11-.21.23v3.78c0,.07.03.13.08.17.04.04.1.06.16.06,0,0,.02,0,.03,0,10.95-1.24,33.34-3.76,33.45-3.77.12-.01.21-.11.21-.23v-3.82c0-.07-.03-.13-.08-.17-.05-.05-.12-.06-.18-.06Zm-.21,3.84c-2.28.26-22.7,2.56-32.98,3.72v-3.31c10.12-1.12,28.84-3.28,32.98-3.76v3.35Z"/><path class="cls-7" d="m9.83,51.68v5.01c11.11-1.28,22.23-2.54,33.34-3.82.04,0,.07-.01.11-.02v-1.26c-.26,0-.52-.02-.79-.02-10.89.03-21.77.06-32.66.1Z"/><path class="cls-2" d="m43.28,51.37h-.27c-.17-.01-.33-.02-.52-.02h0c-10.32.03-20.63.06-30.95.1h-1.71c-.13,0-.23.11-.23.24v5.01c0,.07.03.13.08.17.04.04.1.06.16.06,0,0,.02,0,.03,0,4.96-.57,9.92-1.14,14.88-1.71,6.15-.7,12.31-1.41,18.46-2.12l.11-.02c.12-.01.21-.11.21-.23v-1.26c0-.13-.1-.23-.23-.23Zm-.24,1.29c-6.12.71-12.24,1.41-18.36,2.11-4.87.56-9.75,1.11-14.62,1.67v-4.52h1.48c10.32-.04,20.63-.08,30.97-.1.16,0,.33,0,.49,0h.04v.83Z"/><path class="cls-7" d="m9.83,70.31c11.15,0,22.3-.02,33.45-.09v-4.89c-11.34,1.29-22.41,2.56-33.45,3.82v1.17Z"/><path class="cls-2" d="m43.25,65.09l-33.45,3.82c-.12.01-.21.11-.21.23v1.17c0,.06.02.12.07.17.04.04.1.07.16.07,10.91,0,22.19-.02,33.45-.09.13,0,.23-.11.23-.23v-4.89c0-.07-.03-.13-.08-.17-.05-.04-.11-.06-.18-.06Zm-.21,4.89c-11.1.07-22.22.08-32.98.09v-.72l32.98-3.77v4.4Z"/></g><path class="cls-11" d="m16.22,31.31c2.33,3.36,5.03,4,7.18,2.95-.54-4.5-1.59-8.63-3.54-10.5-5.38-5.2-8.82.1-3.64,7.56Z"/><path class="cls-11" d="m27.11,24.68c-1.16-7.3-3.21,1.1-.86,6.55.87-1.76,1.25-4.05.86-6.55Z"/><path class="cls-11" d="m29.89,26.16c-.16,2.3-.23,5.31-.24,8.45,3.56.65,7.49-5.07,7.49-8.18,0-3.8-6.69-8.44-7.24-.27Z"/><path class="cls-11" d="m27.29,33.03c-.42-.54-.76-1.15-1.04-1.81-.69,1.4-1.69,2.46-2.85,3.03.97,7.98.37,17.17.37,17.17h6.13s-.29-8.81-.24-16.8c-.82-.15-1.62-.64-2.36-1.58Z"/><path class="cls-2" d="m32.85,21.17c-.97-.03-3.12.39-3.43,4.96-.15,2.15-.22,4.94-.24,7.86-.55-.23-1.06-.64-1.53-1.25-.35-.45-.64-.95-.89-1.49.86-1.87,1.19-4.22.8-6.66-.43-2.68-.94-3.14-1.38-3.22-.19-.04-.55-.03-.85.46-.75,1.21-1.01,5.83.41,9.36-.53.99-1.21,1.78-1.96,2.3-.59-4.32-1.67-8.22-3.59-10.08-2.29-2.21-4.49-2.81-5.9-1.62-1.64,1.39-1.63,5.2,1.55,9.78,2.09,3,4.68,4.21,7.18,3.35.84,7.69.3,16.33.29,16.47l.93.06c.04-.58.58-9.21-.32-16.93.92-.52,1.71-1.3,2.32-2.27.21.38.44.74.69,1.07.73.95,1.51,1.44,2.26,1.67-.03,7.84.24,16.33.24,16.45l.93-.03c0-.12-.27-8.5-.24-16.27.53.02,1.04-.09,1.48-.24,3.18-1.09,6.01-5.64,6.01-8.46,0-2.43-2.48-5.19-4.74-5.26Zm-16.26,9.87c-2.83-4.08-2.99-7.45-1.71-8.54.29-.25.66-.37,1.07-.37.98,0,2.25.68,3.58,1.95,1.81,1.75,2.82,5.61,3.36,9.89-2.12.84-4.42-.22-6.3-2.93Zm9.45-8.61c.13.25.37.87.6,2.32.31,1.98.12,3.75-.38,5.21-.96-3.08-.68-6.65-.23-7.54Zm4.31,3.77c.18-2.69,1.01-4.13,2.47-4.1,1.8.06,3.85,2.37,3.85,4.33,0,2.45-2.66,6.64-5.38,7.58-.4.14-.79.2-1.17.19l.24-8Z"/><path class="cls-5" d="m26.02.26c-1.24.06-2.47.21-3.7.36-.5.06-1,.15-1.5.25,12.66.71,23.21,10.67,24.28,23.35.83,9.85-2.88,17.69-10.76,23.56-.84.62-1.18,1.28-1.21,2.28-.02.7-.04,1.4-.06,2.1.94,0,1.88,0,2.82,0,.26,0,.52.01.79.02v1.26s-.07.01-.11.02c-1.18.14-2.36.27-3.55.41-.02.57-.03,1.15-.05,1.72,1.24-.14,2.47-.27,3.71-.41v3.67c-.46.06-.97.12-1.55.19-.76.09-1.51.17-2.27.26-.02.54-.03,1.08-.05,1.62,2.38-.27,3.86-.45,3.87-.45v3.82s-1.54.17-3.99.45c-.02.54-.04,1.09-.05,1.63,1.35-.15,2.68-.31,4.04-.46v4.42c-1.7.01-3.39.01-5.09.02-.56.61-1.41,1.53-2.69,2.02-.28.11-.6.3-.76.54-1.08,1.6-2.44,2.53-3.95,3.06.38.04.76.06,1.14.07,3.62.09,7.12-.31,9.42-3.7.16-.24.48-.43.76-.54,1.28-.49,2.13-.94,2.69-1.54,1.7,0,3.39,0,5.09-.02v-4.89c-1.35.16-2.69.31-4.04.46.02-.54.03-1.09.05-1.63,2.45-.28,3.98-.45,3.99-.45v-3.82s-1.49.17-3.87.45c.02-.54.03-1.08.05-1.62.76-.09,1.51-.17,2.27-.26.58-.07,1.09-.13,1.55-.19v-3.66c-1.24.14-2.47.27-3.71.41.02-.57.04-1.15.05-1.72,1.18-.14,2.36-.27,3.54-.41.04,0,.07-.01.11-.02v-1.26c-.26,0-.52-.02-.79-.02-.94,0-1.88,0-2.82,0,.02-.7.04-1.4.06-2.1.03-1,.37-1.66,1.21-2.28,7.89-5.87,11.6-13.71,10.76-23.56C50.6,10.51,39.28-.36,26.02.26Z"/><rect class="cls-1" x=".63" y="80.81" width="51.33" height="23.92"/><path d="m51.72,81.06v23.42H.88v-23.42h50.83Zm.5-.5H.38v24.42h51.83v-24.42h0Z"/><path class="cls-1" d="m43.43,42.08c-.67-.09-2.15,1.7-1.12,3.33,2.16,3.43-.7,6.56,3.49,9.9l1.46-6.44s-1.82-3.35-2.3-3.96c-.48-.61-1.07-2.77-1.53-2.83Z"/><path class="cls-4" d="m44.49,43.51c-.41-.98-.68-1.58-1.04-1.63-.39-.04-.88.3-1.25.87-.57.88-.59,1.91-.06,2.75.87,1.38.9,2.74.93,4.06.04,1.91.09,3.88,2.61,5.89l.24-.3c-2.38-1.9-2.42-3.69-2.46-5.6-.03-1.37-.06-2.79-.99-4.26-.66-1.05-.12-2.05.06-2.34.3-.46.7-.72.87-.7.18.06.53.9.73,1.4.23.56.45,1.08.67,1.36.47.6,2.27,3.9,2.28,3.94l.34-.19c-.07-.14-1.83-3.37-2.32-3.99-.19-.24-.41-.76-.62-1.27Z"/><path d="m64.97,102.45c-.5-6.69,1.81-32.99,1.84-33.25l.5.05c-.02.26-2.33,26.52-1.84,33.17l-.5.04Z"/><path d="m98.22,100.72c-2.43,0-4.74-.19-6.67-.67-3.68-.92-3.69-5.55-3.69-9.63,0-2.77,0-5.38-1.25-5.94-1.33-.59-4.11,1.01-8.52,4.9-17.24,15.21-26.05,8.91-26.42,8.64l.3-.4c.09.07,8.88,6.3,25.79-8.61,4.7-4.15,7.49-5.67,9.05-4.98,1.54.69,1.54,3.34,1.55,6.4,0,3.9.01,8.32,3.31,9.15,8.32,2.08,24.18-1.47,24.34-1.5l.11.49c-.12.03-9.67,2.17-17.91,2.17Z"/><path class="cls-1" d="m103.23,90.39c-.62-.15-4.49-1.09-6.24-1.55-.2-.05-.39-.08-.59-.08-.49,0-.89.16-1.25.31-.29.12-.55.22-.8.22-.35,0-.87-.18-1.75-1.56l-.41-.65c-1.34-2.14-2.08-3.32-3.3-3.32-.4,0-.83.13-1.34.41l-.23.12.13.22s.35.59.59,1.44l.02.07.06.05c.41.35,1.04,1.05,1,1.47,0,.08-.04.19-.24.29-.07.04-.15.06-.23.06-.77,0-1.85-1.46-2.2-2.02l-.04-.07-.08-.03c-.37-.14-.81-.32-.9-.38-.13-.08-.67-.64-.99-1.47-.34-.88-.79-2.46-.8-2.48l-.35-1.24-.13,1.28c-.05.45-.22,1.16-.45,1.33-.04.03-.08.04-.13.04-.26,0-.66-.4-.69-1.13-.01-.38-.09-.71-.16-1-.13-.55-.24-.98.09-1.69.33-.73.76-1.34,1.13-1.88.23-.33.43-.62.59-.9.18-.32,1.32-.33,2.64-.34.95,0,2.13-.01,3.44-.12.14-.01.27-.02.4-.02,1.49,0,1.93.81,2.65,2.14.57,1.06,1.29,2.38,2.82,3.67,1.42,1.19,3.92,1.8,7.42,1.8,2.54,0,4.88-.33,5.65-.45.06,1.04-.07,4.97-5.32,7.44Z"/><path d="m90.01,76.06c1.35,0,1.73.71,2.43,2.01.58,1.08,1.31,2.43,2.88,3.74,1.47,1.23,4.02,1.85,7.58,1.85,2.33,0,4.44-.27,5.41-.41,0,1.28-.46,4.66-5.1,6.88-.83-.2-4.48-1.09-6.15-1.53-.22-.06-.43-.09-.65-.09-.54,0-.96.17-1.34.32-.27.11-.5.2-.71.2-.15,0-.62,0-1.54-1.44l-.41-.65c-1.39-2.21-2.16-3.43-3.51-3.43-.44,0-.92.14-1.46.44l-.45.25.26.44s.33.57.56,1.38l.04.15.12.1c.45.38.94,1,.91,1.25,0,.03-.04.06-.11.1-.04.02-.07.03-.11.03-.55,0-1.5-1.13-1.98-1.9l-.09-.14-.16-.06c-.34-.13-.76-.3-.85-.35-.08-.06-.59-.56-.9-1.35-.33-.87-.79-2.44-.79-2.46l-.71-2.48-.27,2.57c-.05.48-.22,1.05-.33,1.15-.1,0-.41-.27-.44-.89-.02-.41-.1-.75-.17-1.04-.13-.54-.22-.89.07-1.52.33-.71.74-1.31,1.11-1.84.23-.32.44-.63.59-.91.19-.2,1.43-.21,2.43-.22.95,0,2.14-.01,3.46-.12.13-.01.26-.02.37-.02h0Zm0-.5c-.13,0-.27,0-.42.02-3.43.29-5.88-.14-6.28.59-.4.72-1.18,1.6-1.73,2.79-.55,1.19.01,1.73.05,2.79.03.86.52,1.37.94,1.37.1,0,.19-.03.28-.09.43-.31.56-1.51.56-1.51,0,0,.46,1.6.8,2.5.35.9.93,1.49,1.09,1.59.16.11.95.4.95.4,0,0,1.33,2.14,2.41,2.14.12,0,.24-.03.35-.09,1.15-.6-.71-2.18-.71-2.18-.25-.89-.62-1.5-.62-1.5.47-.26.86-.38,1.22-.38,1.18,0,1.93,1.38,3.5,3.85.83,1.32,1.42,1.68,1.96,1.68.65,0,1.22-.53,2.05-.53.16,0,.34.02.52.07,1.91.5,6.33,1.57,6.33,1.57,6.29-2.92,5.51-7.99,5.51-7.99,0,0-2.77.49-5.87.49-2.68,0-5.62-.37-7.26-1.74-3.38-2.83-2.68-5.86-5.63-5.86h0Z"/><path class="cls-9" d="m103.37,76.56c1.58,2.85,3.36,4.91,3.36,4.91l-3.21.67s-.64,10.66-1.09,11.97c0,0,6.82,1.61,11.55,1.17,8.66-.81,12.38-4.25,10.1-13.84-2.52-10.58-8.2-22.19-19.43-28.57l-1.27,23.69Z"/><path d="m112.2,95.61c-4.48,0-9.77-1.24-9.83-1.25l-.27-.06.09-.26c.35-1.01.85-8.23,1.07-11.9v-.19s3.01-.63,3.01-.63c-.56-.69-1.91-2.44-3.12-4.63l.44-.24c1.55,2.79,3.31,4.85,3.33,4.87l.28.32-3.44.72c-.09,1.41-.6,9.64-1.02,11.58,1.27.28,7.08,1.49,11.22,1.11,4.72-.44,7.64-1.65,9.18-3.8,1.52-2.12,1.75-5.31.7-9.74-2.19-9.2-7.32-21.59-19.31-28.41l.25-.44c12.15,6.91,17.34,19.44,19.55,28.73,1.09,4.58.84,7.9-.78,10.14-1.63,2.27-4.66,3.55-9.54,4-.57.05-1.18.08-1.8.08Z"/><path d="m110.6,95.74c-5.6,0-8.17-1.34-8.29-1.4l.24-.44s3.51,1.82,11.12,1.22l.04.5c-1.12.09-2.16.13-3.1.13Z"/><path class="cls-11" d="m8.3,86.83c0,1.17-.95,2.12-2.12,2.12s-2.12-.95-2.12-2.12.95-2.12,2.12-2.12,2.12.95,2.12,2.12Z"/><path class="cls-9" d="m14.12,86.83c0,1.17-.95,2.12-2.12,2.12s-2.12-.95-2.12-2.12.95-2.12,2.12-2.12,2.12.95,2.12,2.12Z"/><path class="cls-1" d="m10.43,100.14c-1.7,0-3.08-1.38-3.08-3.08,0-.82.32-1.59.9-2.18.58-.58,1.36-.9,2.18-.9h30.25c1.7,0,3.08,1.38,3.08,3.08,0,.82-.32,1.59-.9,2.18-.58.58-1.36.9-2.18.9H10.43Z"/><path d="m40.68,94.23c1.56,0,2.83,1.27,2.83,2.83,0,.78-.32,1.49-.83,2-.51.51-1.22.83-2,.83H10.43c-1.56,0-2.83-1.27-2.83-2.83,0-.78.32-1.49.83-2,.51-.51,1.22-.83,2-.83h30.25Zm0-.5H10.43c-.89,0-1.72.35-2.35.98s-.98,1.47-.98,2.35c0,1.84,1.49,3.33,3.33,3.33h30.25c.89,0,1.72-.35,2.35-.98.63-.63.98-1.46.98-2.35,0-1.84-1.49-3.33-3.33-3.33h0Z"/><rect class="cls-9" x="10.72" y="94.23" width="3.41" height="5.66"/><rect class="cls-9" x="14.9" y="94.23" width="3.41" height="5.66"/><rect class="cls-9" x="19.08" y="94.23" width="3.41" height="5.66"/><rect class="cls-9" x="23.26" y="94.23" width="3.41" height="5.66"/><rect class="cls-9" x="27.45" y="94.23" width="3.4" height="5.66"/><rect class="cls-9" x="31.63" y="94.23" width="3.4" height="5.66"/><rect class="cls-10" x=".71" y="103.83" width="115.37" height="1.15"/></g></g></g></svg>